<svg width="139" height="35" viewBox="0 0 139 35" fill="none" xmlns="http://www.w3.org/2000/svg">
<path d="M27.6857 10.5289L23.9835 14.1228L17.264 7.37026L10.6376 13.9207L6.80859 10.0841L17.0522 0L27.6857 10.5289Z" fill="#F0B90B"/>
<path d="M6.80859 24.5363L10.5616 20.8773L17.3438 27.7053C20.0843 25.454 22.1946 23.027 24.5671 20.9495L28.2998 24.6593C24.7887 28.0372 21.1435 31.5733 17.5979 35L6.80859 24.5363Z" fill="#F0B90B"/>
<path d="M52.6942 10.0432L53.7641 10.7553C54.285 11.0845 54.7033 11.542 54.9748 12.0818C55.2463 12.6197 55.363 13.2189 55.3107 13.8161C55.2584 14.4133 55.0392 14.9838 54.6752 15.4719C54.3132 15.9581 53.8205 16.3429 53.2493 16.584C52.5655 16.9075 51.8214 17.1009 51.0612 17.1526C48.6318 17.2234 46.1923 17.1794 43.6562 17.1794V3.77417C46.4517 3.75694 49.2693 3.42578 52.0125 4.15318C54.6008 4.83464 55.3368 7.60067 53.553 9.53019C53.372 9.72352 53.0683 9.8154 52.6942 10.0432ZM46.4537 14.7349C48.0928 14.6296 49.6434 14.9608 51.1919 14.5167C51.5238 14.4497 51.8194 14.2717 52.0245 14.0133C52.2297 13.7548 52.3322 13.4333 52.3121 13.1098C52.3222 12.9356 52.294 12.7614 52.2337 12.5968C52.1713 12.4321 52.0768 12.2828 51.9541 12.1527C51.8315 12.0244 51.6826 11.921 51.5177 11.8483C51.3528 11.7756 51.1738 11.7354 50.9928 11.7296C49.4925 11.6339 47.9761 11.7028 46.4517 11.7028V14.7349H46.4537ZM46.4175 9.1818C47.7429 9.25263 49.0601 9.36939 50.3593 9.12055C50.6992 9.07652 51.0089 8.91573 51.2321 8.66497C51.4554 8.41612 51.574 8.09645 51.566 7.7672C51.5881 7.46284 51.4916 7.16231 51.2985 6.92304C51.1054 6.68185 50.8259 6.51914 50.5142 6.46171C49.1687 6.15353 47.767 6.14013 46.4175 6.42534V9.1818Z" fill="#F0B90B"/>
<path d="M97.0742 3.68414H99.6502L106.123 11.7804L106.489 11.6656V3.71334H109.355V17.1832H106.838L100.29 9.01096L99.9016 9.11216C99.7462 10.4122 99.8505 11.7298 99.8342 13.0416C99.8158 14.3514 99.8342 15.7391 99.8342 17.1929H97.0803L97.0742 3.68414Z" fill="#F0B90B"/>
<path d="M68.4994 9.00062V17.187H65.75V3.68414H68.29C70.4132 6.318 72.3075 9.17231 74.5005 11.7828L74.7777 11.6481V3.70951H77.4166V17.1929H75.1074L68.8504 8.90893L68.4994 9.00062Z" fill="#F0B90B"/>
<path d="M127.156 17.1929V3.68414H137.595V6.29767H130.296V9.17664H136.734V11.6438H130.296V14.7394H137.583V17.1831L127.156 17.1929Z" fill="#F0B90B"/>
<path d="M94.6189 17.1929H91.7146L90.4102 14.2126H84.5959L83.3168 17.1658H80.4961C82.442 12.5978 84.3179 8.14773 86.2074 3.68414H88.8881L94.6189 17.1929ZM85.6825 11.5573C87.0258 11.7333 88.1144 11.8358 89.3236 11.48L87.6731 7.49792H87.3427L85.6825 11.5573Z" fill="#F0B90B"/>
<path d="M124.574 5.71387C124.491 5.89689 124.392 6.07007 124.278 6.23341C123.848 6.72737 123.4 7.20363 122.925 7.72317C121.652 6.87104 120.395 5.99529 118.805 6.30426C117.833 6.48138 116.963 7.0147 116.355 7.80189C115.71 8.6678 115.372 9.7305 115.395 10.8168C115.418 11.9031 115.804 12.9481 116.486 13.7865C118.023 15.5832 120.008 15.5518 123.062 13.6664C123.342 13.9282 123.662 14.1978 123.958 14.4871C124.251 14.7764 124.464 15.0263 124.703 15.2881C122.937 18.1082 117.902 18.7182 114.996 16.3094C111.883 13.7334 111.561 8.9315 114.208 5.83589C116.709 2.91345 122.644 3.06104 124.574 5.71387Z" fill="#F0B90B"/>
<path d="M43.6562 27.0176V25.7896H96.9721C97.0039 26.1598 97.0336 26.528 97.0772 27.0176H43.6562Z" fill="#F0B90B"/>
<path d="M121.637 21.4973C123.331 21.4973 124.908 21.4834 126.498 21.4973C127.56 21.4973 128.421 21.9044 128.867 22.957C129.314 24.0115 129.004 24.8893 128.224 25.6538C128.119 25.773 128.024 25.9021 127.941 26.0371C128.07 26.1702 128.208 26.2893 128.354 26.3986C129.318 26.9506 129.766 27.8066 129.57 28.8889C129.375 29.9712 128.617 30.7815 127.483 30.8927C125.584 31.0953 123.67 31.1787 121.633 31.3157L121.637 21.4973ZM123.214 29.7488C124.494 29.6912 125.696 29.6912 126.885 29.5621C127.189 29.5224 127.469 29.3735 127.673 29.1391C127.876 28.9048 127.989 28.6049 127.989 28.2931C127.989 27.9813 127.878 27.6795 127.673 27.4471C127.469 27.2128 127.189 27.0619 126.885 27.0241C125.657 26.9149 124.415 26.9924 123.201 26.9924L123.214 29.7488ZM123.214 25.5029C124.196 25.5466 125.179 25.5387 126.158 25.4751C126.826 25.3977 127.398 24.9826 127.432 24.1902C127.465 23.3978 126.984 22.9331 126.247 22.8855C125.254 22.8199 124.249 22.8676 123.212 22.8676V25.5029H123.214Z" fill="#F0B90B"/>
<path d="M61.4608 3.68414V17.1929H58.3906V3.68414H61.4608Z" fill="#F0B90B"/>
<path d="M119.79 31.3039H118.095L116.99 28.9078H112.136L110.952 31.3157H109.352C110.832 28.0317 112.291 24.8402 113.773 21.5699L115.323 21.4911C116.797 24.7319 118.26 27.945 119.79 31.3039ZM116.34 27.3977L114.526 23.4226C113.864 24.9386 113.342 26.1199 112.783 27.3977H116.34Z" fill="#F0B90B"/>
<path d="M131.469 29.8412L132.195 28.879C133.051 29.2401 133.818 29.6987 134.664 29.8959C135.508 30.093 136.376 30.1008 137.12 29.2088L137.172 28.0826C136.919 27.8601 136.635 27.6708 136.334 27.5205C135.478 27.2394 134.622 27.0364 133.766 26.7515C132.313 26.2616 131.692 25.393 131.77 24.058C131.808 23.4451 132.059 22.8634 132.483 22.4126C132.904 21.9617 133.47 21.667 134.087 21.5791C135.622 21.3391 137.094 21.5557 138.449 22.6605L137.729 23.7066C136.324 23.1913 134.967 22.1413 133.468 23.5212V24.8894C134.189 25.1705 134.917 25.4516 135.658 25.7131C136.055 25.8536 136.484 25.8966 136.879 26.0391C138.306 26.5563 138.978 27.5537 138.813 28.918C138.723 29.525 138.429 30.0832 137.98 30.5068C137.531 30.9303 136.953 31.1938 136.336 31.2563C134.59 31.4534 132.936 31.2036 131.469 29.8412Z" fill="#F0B90B"/>
<path d="M3.82889 14.1228L7.42309 17.5101L3.69193 20.8772L0.0546875 17.3995L3.82889 14.1228Z" fill="#F0B90B"/>
<path d="M17.667 13.5086L20.9302 17.0809L17.3574 20.877L14.1758 17.3531L17.667 13.5086Z" fill="#F0B90B"/>
<path d="M31.3033 20.8772L27.6875 17.5831L31.5096 14.1228L35.0559 17.4594L31.3033 20.8772Z" fill="#F0B90B"/>
<path d="M101.373 21.4911H102.796V29.873H107.511V31.3157H101.371V21.4911H101.373Z" fill="#F0B90B"/>
</svg>
