<svg width="18" height="17" viewBox="0 0 18 17" fill="none" xmlns="http://www.w3.org/2000/svg">
<path d="M0.75 1.5H0V3H0.75H2.25V5H0.75H0V6.5H0.75H2.25H3.75H6.25H7.75H17.25H18V5H17.25H15.75V3H17H17.75V1.5H17H0.75ZM14.25 3V5H11.75V3H14.25ZM10.25 3V5H7.75V3H10.25ZM6.25 3V5H3.75V3H6.25ZM0.75 8H0V9.5H0.75C1.57812 9.5 2.25 10.1719 2.25 11V14.75V15.5H3H6H6.75V14.75V11.75C6.75 10.5063 7.75625 9.5 9 9.5C10.2437 9.5 11.25 10.5063 11.25 11.75V14.75V15.5H12H15H15.75V14.75V11C15.75 10.1719 16.4219 9.5 17.25 9.5H18V8H17.25C15.5938 8 14.25 9.34375 14.25 11V14H12.75V11.75C12.75 9.67812 11.0719 8 9 8C6.92812 8 5.25 9.67812 5.25 11.75V14H3.75V11C3.75 9.34375 2.40625 8 0.75 8Z" fill="#092306"/>
</svg>
