<svg xmlns="http://www.w3.org/2000/svg" viewBox="0 0 1286 317.91">   <defs>     <style>.cls-1{fill:url(#linear-gradient);}.cls-2{fill:#1221eb;}</style>   </defs>   <g>     <path class="cls-2" d="M278.69,159.99c-3.64,8.68-5.46,17.89-5.46,27.59,0,9.71,1.82,18.91,5.46,27.59,3.64,8.68,8.73,16.39,15.27,23.11,6.35,6.72,13.82,11.91,22.41,15.55,8.59,3.64,17.83,5.46,27.73,5.46,8.78,0,17.23-2.05,25.35-6.16,8.12-4.11,15.17-9.71,21.15-16.81v21.57s24.65,0,24.65,0V59.62s-24.65,0-24.65,0v78.39c-5.42-6.91-12.09-12.33-20.03-16.25-7.94-3.92-16.76-5.88-26.47-5.88-9.9,0-19.15,1.82-27.73,5.46-8.59,3.64-16.06,8.82-22.41,15.55-6.54,6.72-11.63,14.43-15.27,23.11Zm19.75,27.59c0-6.16,1.21-12.09,3.64-17.79,2.43-5.7,5.69-10.69,9.8-14.99,4.11-4.29,8.96-7.61,14.57-9.95,5.6-2.33,11.49-3.5,17.65-3.5,6.16,0,12.09,1.17,17.79,3.5,5.7,2.34,10.6,5.65,14.71,9.95,4.11,4.3,7.38,9.29,9.8,14.99,2.43,5.7,3.64,11.63,3.64,17.79,0,12.51-4.48,23.44-13.45,32.77-4.11,4.3-9.01,7.66-14.71,10.09-5.7,2.43-11.63,3.64-17.79,3.64s-12.05-1.21-17.65-3.64c-5.6-2.42-10.46-5.79-14.57-10.09-8.96-9.34-13.45-20.26-13.45-32.77Z" style="fill: rgb(0, 0, 0);"></path>     <path class="cls-2" d="M445.56,161.39c-3.64,8.68-5.46,17.79-5.46,27.31,0,9.53,1.82,18.59,5.46,27.17,3.64,8.59,8.73,16.16,15.27,22.69,6.54,6.54,14.1,11.63,22.69,15.27,8.59,3.64,17.65,5.46,27.17,5.46,12.7,0,24.37-3.17,35.02-9.53,10.65-6.35,19.61-15.41,26.89-27.17l-21.29-12.61c-10.46,16.06-24,24.09-40.62,24.09-10.46,0-19.61-3.08-27.45-9.24-4.3-3.36-8.08-7.47-11.35-12.33-3.27-4.85-4.9-9.53-4.9-14.01h113.46c.56-3.73,.84-7.28,.84-10.64,0-18.67-6.91-35.11-20.73-49.31-6.35-6.54-13.87-11.58-22.55-15.13-8.68-3.55-17.79-5.32-27.31-5.32-9.52,0-18.63,1.78-27.31,5.32-8.68,3.55-16.2,8.59-22.55,15.13-6.54,6.54-11.63,14.15-15.27,22.83Zm21.43,15.55c0-6.16,2-12,6.02-17.51,4.01-5.51,9.38-9.95,16.11-13.31,6.72-3.36,13.91-5.04,21.57-5.04,7.66,0,14.85,1.68,21.57,5.04,6.72,3.36,12.09,7.8,16.11,13.31,4.01,5.51,6.02,11.35,6.02,17.51h-87.4Z" style="fill: rgb(0, 0, 0);"></path>     <path class="cls-2" d="M626.58,138.84c6.54-6.54,14.05-11.63,22.55-15.27,8.5-3.64,17.51-5.46,27.03-5.46,22.04,0,40.71,9.34,56.03,28.01l-21.85,12.61c-9.71-10.27-21.11-15.41-34.18-15.41-6.16,0-12,1.17-17.51,3.5-5.51,2.34-10.32,5.56-14.43,9.66-4.11,4.11-7.38,8.96-9.81,14.57-2.43,5.6-3.64,11.49-3.64,17.65,0,6.16,1.21,12.05,3.64,17.65,2.43,5.6,5.7,10.46,9.81,14.57,4.1,4.11,8.92,7.33,14.43,9.67,5.51,2.34,11.35,3.5,17.51,3.5,13.07,0,24.46-5.13,34.18-15.41l21.85,12.6c-15.32,18.68-33.99,28.01-56.03,28.01-9.53,0-18.54-1.82-27.03-5.46-8.5-3.64-16.02-8.73-22.55-15.27-6.35-6.35-11.35-13.87-14.99-22.55-3.64-8.68-5.46-17.79-5.46-27.31,0-9.53,1.82-18.63,5.46-27.31,3.64-8.68,8.64-16.2,14.99-22.55Z" style="fill: rgb(0, 0, 0);"></path>     <path class="cls-2" d="M782.98,202.72c0,8.59,3.08,15.97,9.24,22.13,6.16,6.16,13.45,9.24,21.85,9.24,3.92,0,7.84-.84,11.77-2.52,3.92-1.68,7.28-3.92,10.09-6.72,6.16-6.16,9.24-13.54,9.24-22.13V117.83h24.37s0,140.07,0,140.07h-24.37v-12.61c-3.74,3.92-8.45,7.19-14.15,9.8-5.7,2.62-11.35,3.92-16.95,3.92-7.47,0-14.62-1.45-21.43-4.34-6.82-2.89-12.84-6.96-18.07-12.19-5.04-5.23-9.01-11.25-11.91-18.07-2.9-6.81-4.34-14.05-4.34-21.71V117.83h24.65s0,84.88,0,84.88Z" style="fill: rgb(0, 0, 0);"></path>     <path class="cls-2" d="M930.96,121.47c6.72-3.17,13.91-4.76,21.57-4.76,6.16,0,12.05,1.12,17.65,3.36,5.6,2.24,11.49,5.88,17.65,10.93l-23.25,13.73c-4.48-2.05-8.5-3.08-12.05-3.08-7.47,0-13.63,2.62-18.49,7.84-5.23,5.6-7.84,12.05-7.84,19.33v89.09h-24.09s0-89.09,0-89.09c0-10.08,2.56-19.33,7.7-27.73,5.13-8.4,12.19-14.94,21.15-19.61Z" style="fill: rgb(0, 0, 0);"></path>     <g>       <rect class="cls-2" x="1013.25" y="117.83" width="23.53" height="140.07" style="fill: rgb(0, 0, 0);"></rect>       <path class="cls-2" d="M1024.74,71.61c3.55,0,6.58,1.26,9.11,3.78,2.52,2.52,3.78,5.56,3.78,9.1,0,3.55-1.26,6.58-3.78,9.1-2.52,2.52-5.56,3.78-9.11,3.78-3.55,0-6.58-1.26-9.1-3.78-2.52-2.52-3.78-5.55-3.78-9.1s1.26-6.58,3.78-9.1c2.52-2.52,5.55-3.78,9.1-3.78Z" style="fill: rgb(0, 0, 0);"></path>     </g>     <polygon class="cls-2" points="1088.7 59.62 1112.51 59.62 1112.51 117.83 1133.52 117.83 1133.52 143.04 1112.51 143.04 1112.51 257.9 1088.7 257.9 1088.7 143.04 1067.69 143.04 1067.69 117.83 1088.7 117.83 1088.7 59.62" style="fill: rgb(0, 0, 0);"></polygon>     <path class="cls-2" d="M1189.07,198.23c0,6.54,1.63,12.66,4.9,18.35,3.27,5.7,7.66,10.22,13.17,13.59,5.51,3.36,11.53,5.04,18.07,5.04,6.54,0,12.61-1.63,18.21-4.9,5.6-3.26,9.99-7.75,13.17-13.45,3.17-5.7,4.76-11.91,4.76-18.63V117.83h24.65s0,137.55,0,137.55c0,8.41-1.54,16.43-4.62,24.09-3.08,7.66-7.42,14.29-13.03,19.89-5.79,5.79-12.37,10.27-19.75,13.45-7.38,3.17-15.18,4.76-23.39,4.76-10.65,0-20.5-2.71-29.56-8.12-9.06-5.42-16.95-13.26-23.67-23.53l21.85-12.61c3.92,6.16,8.59,10.88,14.01,14.15,5.41,3.26,11.21,4.9,17.37,4.9,9.9,0,18.49-3.64,25.77-10.93,3.36-3.36,5.93-7.28,7.7-11.77,1.77-4.48,2.66-9.24,2.66-14.29v-9.8c-4.3,4.48-9.71,8.08-16.25,10.79-6.54,2.71-13.17,4.06-19.89,4.06-8.22,0-15.97-1.54-23.25-4.62-7.28-3.08-13.73-7.42-19.33-13.03-5.79-5.6-10.27-12.09-13.45-19.47-3.18-7.37-4.76-15.17-4.76-23.39V117.83h24.65s0,80.4,0,80.4Z" style="fill: rgb(0, 0, 0);"></path>   </g>   <path class="cls-1" d="M217.61,186.37c-3.32-1.36-5.93-4.05-7-7.48l-32.59-104.46c-.55-1.77-.26-3.71,.85-5.2,2.35-3.17,3.61-7.18,3.23-11.5-.68-7.78-6.85-14.22-14.6-15.19-4.62-.58-8.93,.72-12.27,3.23-3.06,2.3-7.13,2.79-10.79,1.66L43.55,16.27c-1.31-.4-2.36-1.39-2.84-2.67C37.45,5,28.74-.92,18.77,.12,8.89,1.15,.93,9.29,.08,19.19c-.72,8.38,3.49,15.83,10.05,19.82,1.33,.81,2.15,2.22,2.17,3.77l2.13,218.32c.01,1.19-.54,2.34-1.52,3.01-8.83,6.01-14.24,16.67-12.62,28.49,1.77,12.93,12.19,23.32,25.13,25.04,16.41,2.18,30.62-9.16,33.1-24.43,.21-1.31,1.16-2.39,2.43-2.81l112.35-37.96c3.34-1.13,7-.69,10,1.18,6.17,3.84,13.52,5.95,21.38,5.66,19.17-.7,35.07-16.08,36.37-35.21,1.15-16.96-8.88-31.73-23.44-37.7ZM39.84,30.48c.97-1.9,3.14-2.86,5.19-2.28l100.78,28.54c.86,.32,2.34,1.19,2.73,3.56,0,.02,.02,.04,.02,.06,.12,1.85,.53,3.62,1.2,5.25,1.45,3.54,.91,7.58-1.07,10.85l-28.05,46.3L40.25,36.1c-1.27-1.37-1.6-3.42-.7-5.06,.1-.18,.2-.37,.29-.56Zm-4.83,229.06s-.09-.02-.13-.02c-1.68-.32-2.93-1.73-3-3.44L22.92,45.83c-.09-2.06,1.28-3.89,3.28-4.4l.06-.02c1.73-.44,3.55,.15,4.69,1.52l80.21,95.46-72.36,119.44c-.79,1.3-2.3,1.98-3.8,1.69Zm131.59-47.67c-.79,3.05-1.22,6.26-1.22,9.56,0,.17,0,.33,0,.5,.06,4.87-2.72,9.32-7.22,11.2l-99.04,41.49c-1.69,.71-3.62,.03-4.58-1.53,0-.01-.02-.03-.03-.04-.67-1.09-.68-2.47-.06-3.6l65.54-120.5,44.09,52.47c2.44,2.9,3.46,6.8,2.5,10.47Zm20.8-24.84c-.12,.06-.25,.12-.37,.18-2.71,1.29-5.93,.73-7.97-1.47l-49.85-53.73,28.81-52.97c1.16-2.13,3.49-3.25,5.91-3.04,.46,.04,.93,.06,1.4,.06h.05c2.87,0,5.38,1.87,5.95,4.68l20.01,98.71c.64,3.14-1.04,6.23-3.95,7.58Z" style="fill: rgb(0, 0, 0);"></path> </svg>