<svg width="106" height="11" viewBox="0 0 106 11" fill="none" xmlns="http://www.w3.org/2000/svg">
<path d="M15.8621 5.19368C15.8621 5.92691 15.6354 6.38334 15.0501 6.91187L12.0286 9.57471C11.4432 10.1032 10.8579 10.3874 9.97065 10.3874H0V0H9.97065C10.8579 0 11.4432 0.302456 12.0286 0.812048L15.0501 3.47488C15.6354 3.98508 15.8621 4.46046 15.8621 5.19368ZM13.1602 4.77574C13.1603 4.42117 13.0904 4.07006 12.9547 3.7425C12.819 3.41493 12.62 3.11734 12.3692 2.86673C12.1184 2.61613 11.8206 2.41743 11.4929 2.282C11.1652 2.14657 10.814 2.07707 10.4595 2.07747H2.26567V8.30989H10.4216C11.1471 8.3086 11.8425 8.01999 12.3558 7.50721C12.869 6.99443 13.1582 6.29924 13.1602 5.57374V4.77574Z" fill="black"/>
<path d="M51.6716 5.19368C51.6716 5.92691 51.4455 6.38334 50.8596 6.91187L47.8387 9.57471C47.2552 10.1032 46.668 10.3874 45.7802 10.3874H35.8095V0H45.7802C46.668 0 47.2533 0.302456 47.8387 0.812048L50.8602 3.47549C51.4455 3.98508 51.6716 4.46046 51.6716 5.19368ZM48.966 4.77574C48.9661 4.42148 48.8964 4.07068 48.7609 3.74335C48.6254 3.41602 48.4268 3.11859 48.1763 2.86803C47.9259 2.61747 47.6285 2.4187 47.3013 2.28305C46.974 2.14741 46.6232 2.07755 46.269 2.07747H38.0758V8.30989H46.2311C46.956 8.30779 47.6506 8.01881 48.1631 7.5061C48.6756 6.99339 48.9643 6.29865 48.966 5.57374V4.77574Z" fill="black"/>
<path d="M22.8143 2.07747H33.2328V0H23.2622C22.375 0 21.7896 0.283514 21.2043 0.812048L18.1828 3.47549C17.5974 4.00402 17.3707 4.4574 17.3707 5.19368C17.3707 5.92996 17.5974 6.40228 18.1828 6.91187L21.2043 9.57471C21.7896 10.0819 22.375 10.3874 23.2622 10.3874H33.2328V8.30989H22.7734C22.1654 8.31023 21.5752 8.10526 21.0983 7.72819C20.6214 7.35112 20.2859 6.82405 20.146 6.23242H33.2328V4.15495H20.157C20.3056 3.56235 20.6477 3.03626 21.129 2.65997C21.6103 2.28369 22.2034 2.0787 22.8143 2.07747Z" fill="black"/>
<path d="M105.186 3.47549L102.164 0.812658C101.579 0.30551 100.993 0 100.109 0H90.1354V10.3874H100.109C100.996 10.3874 101.581 10.1039 102.166 9.57532L105.188 6.91249C105.773 6.38395 106 5.93057 106 5.19429C106 4.45801 105.771 3.98508 105.186 3.47549ZM100.597 2.07747C101.205 2.07702 101.796 2.28196 102.273 2.65905C102.749 3.03613 103.085 3.56326 103.225 4.15495H92.4017V2.07747H100.597ZM100.559 8.30989H92.4017V6.23242H103.211C103.063 6.82451 102.721 7.35022 102.241 7.72645C101.76 8.10269 101.167 8.30799 100.557 8.30989H100.559Z" fill="black"/>
<path d="M85.2925 0V8.30989H76.5842C76.2389 8.30989 75.8969 8.24181 75.5779 8.10954C75.2589 7.97727 74.9691 7.78342 74.7251 7.53905C74.481 7.29469 74.2876 7.00461 74.1558 6.68542C74.0239 6.36623 73.9563 6.02418 73.9568 5.67883L73.9654 0.00122137H71.696V5.14969C71.696 6.0375 71.979 6.60392 72.5081 7.20822L74.9125 9.57532C75.5168 10.1039 76.0838 10.3874 76.971 10.3874H87.5582V0H85.2925Z" fill="black"/>
<path d="M58.7772 0C57.8894 0 57.323 0.283514 56.7187 0.812048L54.3137 3.17731C53.7852 3.78161 53.5016 4.34803 53.5016 5.23584V10.3874H55.7679V6.23242H64.1432C65.031 6.23242 65.5974 5.94891 66.2017 5.42037L67.0981 4.53622V10.3874H69.3638V0H58.7772ZM64.6015 4.15495H55.7563C55.8822 3.56692 56.2059 3.03987 56.6736 2.66178C57.1412 2.28369 57.7243 2.07744 58.3257 2.07747H67.1745C67.0485 2.66611 66.7242 3.19363 66.2558 3.57179C65.7875 3.94995 65.2034 4.15582 64.6015 4.15495Z" fill="black"/>
</svg>
