<svg width="123" height="40" viewBox="0 0 123 40" fill="none" xmlns="http://www.w3.org/2000/svg">
<path id="dragonfly-capital" d="M0.308594 0.306592C0.43123 0.306592 0.553867 0.327032 0.696943 0.327032C12.1022 0.327032 23.5074 0.327032 34.933 0.327032C35.0557 0.327032 35.1579 0.327032 35.3418 0.327032C34.2585 3.29075 33.1752 6.19316 32.0715 9.13644C27.6157 6.90854 23.2008 4.68063 18.7245 2.45273C18.7245 10.5059 18.7245 18.4977 18.7245 26.5304C18.1522 26.5304 17.5799 26.5304 17.0076 26.5304C17.0076 18.5386 17.0076 10.5263 17.0076 2.45273C12.5314 4.70107 8.09602 6.92898 3.61978 9.15688C3.51759 8.87072 3.41539 8.60501 3.31319 8.31886C2.3321 5.74349 1.39188 3.18855 0.431231 0.613183C0.410791 0.572305 0.349473 0.490547 0.329033 0.408789C0.308594 0.38835 0.308594 0.36791 0.308594 0.306592ZM2.80221 2.10526C3.37451 3.63822 3.94682 5.17118 4.51912 6.70414C7.58504 5.17118 10.6101 3.63822 13.6351 2.1257C13.6351 2.10526 13.6147 2.10527 13.6147 2.08483C10.0378 2.10527 6.46087 2.10526 2.80221 2.10526ZM32.7869 2.10526C29.1691 2.10526 25.5513 2.10526 21.954 2.10526V2.1257C24.9994 3.63822 28.0245 5.17118 31.07 6.70414C31.6423 5.17118 32.1941 3.65866 32.7869 2.10526ZM110.968 0.061319C110.968 4.78283 110.968 9.54522 110.968 14.3076C111.52 14.3894 112.072 14.4303 112.644 14.512C112.623 14.7164 112.603 14.9208 112.562 15.1252C111.07 15.1252 109.578 15.1252 108.065 15.1252C108.045 14.9412 107.984 14.7368 107.963 14.512C108.392 14.4303 108.822 14.3894 109.251 14.3076C109.251 11.6709 109.251 9.0138 109.251 6.35667C107.759 6.35667 106.267 6.35667 104.754 6.35667C104.754 9.0138 104.754 11.6505 104.754 14.2667C105.367 14.3076 105.94 14.3485 106.573 14.3894C106.553 14.6346 106.492 14.839 106.471 15.0639C104.836 15.0639 103.242 15.0639 101.586 15.0639C101.566 14.8799 101.504 14.6755 101.484 14.4507C102.015 14.3689 102.506 14.3281 103.037 14.2463C103.037 11.6096 103.037 8.95248 103.037 6.29535C102.424 6.29535 101.831 6.29535 101.198 6.29535C101.116 6.07052 101.198 5.907 101.3 5.76393C101.586 5.3347 101.934 5.15074 102.404 5.2325C102.608 5.25294 102.812 5.2325 103.017 5.2325C103.037 4.88503 103.058 4.51712 103.119 4.16965C103.242 3.39295 103.63 2.69801 104.141 2.10526C104.652 1.49208 105.143 0.899336 105.654 0.265713C105.756 0.143077 105.878 0.0817597 106.062 0.0817597C107.227 0.0817597 108.392 0.0613208 109.537 0.0408814C109.66 0.0408814 109.782 0.0204394 109.925 0C110.273 0.0613183 110.62 0.061319 110.968 0.061319ZM109.251 1.32856C109.21 1.32856 109.149 1.32857 109.128 1.349C108.392 1.69648 107.616 1.75779 106.798 1.69647C106.492 1.67604 106.164 1.69647 105.858 1.69647C105.756 1.69647 105.654 1.73735 105.572 1.81911C105.061 2.30966 104.795 2.88196 104.795 3.59734C104.775 4.16965 104.795 4.78283 104.795 5.37558C106.287 5.37558 107.779 5.37558 109.271 5.37558C109.251 4.02657 109.251 2.69801 109.251 1.32856ZM22.1584 17.905C22.1584 17.2918 22.1584 16.7399 22.1584 16.1676C23.8957 16.1676 25.6331 16.1676 27.3704 16.1676C27.3704 22.5447 27.3704 28.9218 27.3704 35.2989C20.9933 35.2989 14.6366 35.2989 8.2391 35.2989C8.2391 28.9218 8.2391 22.5447 8.2391 16.1676C9.95601 16.1676 11.6729 16.1676 13.4307 16.1676C13.4307 16.7399 13.4307 17.3122 13.4307 17.8845C12.2657 17.8845 11.1211 17.8845 9.95601 17.8845C9.95601 23.117 9.95601 28.3291 9.95601 33.5411C15.1681 33.5411 20.3801 33.5411 25.6126 33.5411C25.6126 28.3291 25.6126 23.117 25.6126 17.8845C24.4885 17.905 23.3234 17.905 22.1584 17.905ZM39.4297 15.1456C39.4093 14.9412 39.3479 14.7368 39.3275 14.4916C39.6545 14.4507 39.9816 14.3894 40.3086 14.3485C40.6356 14.3076 40.9627 14.2463 41.3306 14.2259C41.3306 14.1237 41.3306 14.0215 41.3306 13.9397C41.3306 9.81094 41.3306 5.72305 41.3306 1.59428C41.3306 1.349 41.2488 1.26725 41.024 1.24681C40.5334 1.20593 40.0429 1.12417 39.5523 1.04241C39.4706 1.04241 39.4297 1.02197 39.3479 1.00153C39.3684 0.776701 39.4297 0.572306 39.4501 0.388351C39.8998 0.388351 40.3699 0.388351 40.8196 0.388351C42.7613 0.388351 44.7235 0.367911 46.6857 0.367911C47.9734 0.367911 49.1998 0.613184 50.3035 1.28769C51.7138 2.1257 52.5723 3.35207 52.981 4.90547C53.4307 6.70414 53.4103 8.50281 52.8788 10.2606C52.2248 12.4885 50.6714 13.8784 48.5252 14.6142C47.2376 15.0639 45.9294 15.1661 44.5804 15.1252C43.1088 15.0843 41.6372 15.1252 40.186 15.1252C39.9202 15.1456 39.6954 15.1456 39.4297 15.1456ZM43.2314 1.30813C43.2314 5.55953 43.2314 9.7905 43.2314 14.0419C43.9673 14.0828 44.7031 14.1237 45.4389 14.2259C47.3398 14.4507 49.2815 13.5514 50.2626 11.5687C51.3255 9.44303 51.4277 7.21513 50.7123 4.96679C50.0991 3.08636 48.8114 1.88043 46.8697 1.38988C45.6637 1.08329 44.4578 1.26725 43.2314 1.30813ZM72.2554 15.1456C72.0102 15.0026 71.7445 14.9004 71.4992 14.7164C70.9678 14.3689 70.6816 13.6127 70.8451 12.9995C70.8656 12.9177 70.9473 12.8769 71.0291 12.8155C71.6423 12.3863 72.235 11.9366 72.9095 11.4665C72.7869 11.4257 72.6847 11.3643 72.562 11.3235C70.1297 10.2606 70.4159 7.62391 71.7036 6.41799C72.5416 5.64129 73.584 5.1303 74.6673 4.96679C75.7302 4.82371 76.7317 5.17118 77.5697 5.88656C77.6106 5.92744 77.6719 5.98876 77.7537 6.02964C78.1011 5.70261 78.4282 5.37558 78.7961 5.04855C78.8778 4.96679 79.0209 4.92591 79.1231 4.92591C79.4501 4.90547 79.7772 4.92591 80.1042 4.92591C80.1042 5.45733 80.1042 5.94788 80.1042 6.45887C79.4501 6.43843 78.7961 6.41799 78.3055 6.80634C78.3464 7.25601 78.4282 7.68523 78.4282 8.11446C78.4077 9.13644 77.8967 9.91313 77.0792 10.5263C76.3025 11.0986 75.4031 11.4052 74.4833 11.6709C74.4016 11.6914 74.2994 11.6914 74.2381 11.6709C73.8906 11.5687 73.6658 11.7527 73.4614 12.0184C73.2365 12.325 72.9504 12.5907 72.7051 12.8973C72.4803 13.1834 72.5007 13.5105 72.8073 13.674C72.9504 13.7557 73.1343 13.7966 73.3183 13.7966C74.5855 13.7966 75.8732 13.7966 77.1405 13.7966C77.5493 13.7966 77.9172 13.8375 78.326 13.9397C79.5319 14.2463 80.1246 15.3091 79.7363 16.4946C79.4501 17.3735 78.8574 17.9867 78.142 18.5181C77.0996 19.2948 75.9345 19.8263 74.7082 20.1533C74.2994 20.2555 73.8702 20.1737 73.4409 20.1533C72.7664 20.1124 72.0715 19.9489 71.4379 19.6219C70.2319 18.9882 70.0275 17.9254 70.0684 16.9647C70.0684 16.883 70.1706 16.7808 70.2524 16.7399C70.8656 16.2289 71.4583 15.7179 72.0715 15.2274C72.1124 15.2478 72.1737 15.1865 72.2554 15.1456ZM74.5855 19.1313C75.4644 19.1313 76.2616 18.8861 76.9361 18.3546C77.4471 17.9458 77.815 17.4757 77.9581 16.8217C78.142 16.045 77.8559 15.6157 77.0792 15.4318C76.8543 15.3909 76.6295 15.35 76.4251 15.35C75.3418 15.3296 74.279 15.3296 73.1957 15.3296C73.1139 15.3296 72.9913 15.35 72.9504 15.4113C72.6029 15.9019 72.2146 16.3516 71.8875 16.8217C71.6423 17.2305 71.6831 17.6597 71.9693 18.0276C72.1124 18.2524 72.3577 18.4364 72.5825 18.5795C73.1548 19.0087 73.8702 19.1109 74.5855 19.1313ZM72.4598 8.05314C72.4803 8.29841 72.5007 8.56413 72.562 8.78896C72.8073 10.0971 73.7066 10.8125 74.9943 10.7307C75.7506 10.6898 76.4047 10.2402 76.5886 9.54522C76.8748 8.44149 76.6704 7.39908 75.9345 6.49975C75.4031 5.88656 74.6877 5.74348 73.911 5.92744C73.1957 6.07052 72.7664 6.5815 72.6029 7.29689C72.5007 7.54216 72.4803 7.82831 72.4598 8.05314ZM64.7133 34.9719C64.7133 36.3413 64.7133 37.7108 64.7133 39.1007C65.4696 39.1824 66.2054 39.2437 66.9821 39.3255C66.9616 39.5299 66.9412 39.7138 66.8799 39.8774C66.8594 39.9182 66.7572 40 66.6755 40C65.8579 40 65.0608 39.9591 64.2636 39.9591C63.4256 39.9591 62.5876 39.9796 61.7496 40C61.6678 40 61.6269 40 61.5247 40C61.5043 39.7752 61.443 39.5708 61.4021 39.3459C61.9131 39.2642 62.4241 39.2029 62.9351 39.1211C62.9351 34.931 62.9351 30.7001 62.9351 26.4691C62.4241 26.51 61.9131 26.5713 61.4021 26.6122C61.3817 26.4078 61.3203 26.2034 61.2795 25.9581C62.3423 25.7333 63.3438 25.2427 64.4885 25.2223C64.5089 25.7741 64.5702 26.326 64.5907 26.9188C64.6724 26.8779 64.7133 26.837 64.7746 26.8166C65.5309 26.2443 66.3076 25.6515 67.0843 25.0792C67.166 25.0383 67.2682 24.977 67.3295 24.977C68.5355 24.977 69.6392 25.304 70.4568 26.2238C71.0904 26.8983 71.3765 27.7363 71.5196 28.6357C71.6627 29.6576 71.6627 30.6592 71.4174 31.6811C71.0086 33.2141 70.048 34.3178 68.5763 34.8901C67.9223 35.1354 67.1865 35.3194 66.4711 35.442C65.8988 35.5442 65.3265 35.3398 64.8359 35.0945C64.795 35.0741 64.7337 35.0537 64.6929 35.0128C64.7337 34.9719 64.7337 34.9719 64.7133 34.9719ZM64.7133 30.5365C64.7133 31.3541 64.7133 32.1513 64.7133 32.9688C64.7133 33.071 64.7542 33.2141 64.8155 33.2959C65.4287 34.1339 66.7368 34.604 67.7588 34.3587C68.7194 34.1134 69.2508 33.4185 69.5779 32.5396C69.9662 31.4972 69.9662 30.4343 69.8232 29.3715C69.721 28.6152 69.537 27.8998 69.1078 27.2662C68.4946 26.3464 67.6361 26.1012 66.655 26.6326C66.001 26.9801 65.3878 27.4502 64.7746 27.8794C64.6928 27.9203 64.6724 28.0634 64.6724 28.1656C64.6928 28.9218 64.7133 29.7394 64.7133 30.5365ZM52.4701 24.3025C52.143 24.3025 51.8569 24.3025 51.5503 24.3025C51.4072 24.3025 51.3459 24.2616 51.305 24.1185C51.1211 23.6076 50.978 23.0966 50.7736 22.606C50.6918 22.4221 50.5896 22.279 50.467 22.1564C48.096 20.1329 43.1497 20.4395 41.9642 24.8953C41.3306 27.2662 41.535 29.5963 42.9044 31.722C44.0899 33.5411 45.7864 34.5018 48.0143 34.3996C48.934 34.3587 49.7107 33.909 50.3852 33.3367C50.6101 33.1323 50.7123 32.7849 50.8349 32.4987C51.0597 32.0695 51.2846 31.6198 51.5094 31.1906C51.5503 31.1088 51.6934 31.0475 51.7956 31.0066C52.0817 30.9862 52.3679 31.0066 52.7153 31.0066C52.5109 31.9264 52.327 32.8258 52.143 33.7046C52.1226 33.7455 52.0408 33.8273 52 33.8477C50.5079 34.5631 48.9545 35.1354 47.3193 35.4216C46.5017 35.5646 45.725 35.4011 44.9483 35.1763C41.9029 34.3383 39.9202 31.8855 39.6341 28.7787C39.5115 27.1845 39.6545 25.6515 40.3699 24.2003C41.1875 22.5856 42.4956 21.5023 44.1308 20.8074C45.2141 20.3577 46.3587 19.9898 47.5442 19.9898C49.3224 19.9898 50.8758 20.603 52.327 21.5841C52.4087 21.6249 52.4496 21.7067 52.4496 21.7885C52.4905 22.606 52.4701 23.444 52.4701 24.3025ZM94.2074 14.4711C94.187 14.696 94.1257 14.9004 94.1052 15.1048C92.6949 15.1048 91.2641 15.1048 89.8129 15.1048C89.7925 14.9208 89.7312 14.696 89.7107 14.4711C90.2422 14.3894 90.7532 14.3485 91.2846 14.2667C91.2846 11.6709 91.2846 9.07512 91.2846 6.47931C90.7736 6.52019 90.283 6.5815 89.772 6.62238C89.7516 6.39755 89.6903 6.19316 89.6699 5.98876C90.2217 5.70261 92.3065 5.21206 92.838 5.25294C92.8788 5.80481 92.9197 6.39755 92.9606 6.99029C93.0832 6.90854 93.165 6.86766 93.2468 6.80634C94.1052 6.23404 94.9841 5.64129 95.8426 5.08942C95.9652 5.00767 96.1287 4.96679 96.2514 4.96679C96.5988 4.96679 96.9667 4.98723 97.3142 5.04855C98.4179 5.2325 98.9494 5.82524 99.0924 6.99029C99.1333 7.37864 99.1333 7.76699 99.1742 8.15534C99.1742 10.0971 99.1742 12.0593 99.1742 14.0215C99.1742 14.2463 99.256 14.3281 99.4604 14.3281C99.91 14.3485 100.401 14.4303 100.912 14.4711C100.891 14.696 100.83 14.9004 100.809 15.1048C99.3582 15.1048 97.9478 15.1048 96.5171 15.1048C96.4966 14.9004 96.4353 14.696 96.4149 14.4711C96.8032 14.3894 97.1507 14.3485 97.5186 14.2667C97.5186 14.1645 97.5186 14.0828 97.5186 13.9806C97.5186 12.0593 97.5186 10.138 97.5186 8.21666C97.5186 8.17578 97.5186 8.09402 97.5186 8.03271C97.4777 6.58151 96.4558 6.29535 95.4747 6.56106C95.1476 6.66326 94.841 6.80634 94.5344 6.99029C94.0848 7.23557 93.6555 7.54215 93.1854 7.84875C93.1037 7.88963 93.0628 7.99183 93.0628 8.09402C93.0628 10.0971 93.0628 12.1002 93.0628 14.1237C93.0628 14.2667 93.1037 14.3281 93.2468 14.3281C93.492 14.3485 93.8191 14.4303 94.2074 14.4711ZM120.104 6.13183C119.777 6.05008 119.471 5.98876 119.144 5.907C119.164 5.68217 119.184 5.47777 119.246 5.27338C120.431 5.27338 121.617 5.27338 122.843 5.27338C122.864 5.45733 122.925 5.68217 122.945 5.907C122.557 5.94788 122.209 6.02964 121.842 6.05008C121.637 6.07052 121.535 6.15228 121.453 6.35667C120.39 9.11599 119.348 11.8958 118.244 14.6346C117.508 16.4129 116.711 18.1502 115.914 19.9285C115.894 19.9693 115.791 20.0715 115.73 20.0715C115.015 20.0715 114.279 20.0715 113.564 20.0715C113.564 19.4379 113.564 18.8247 113.564 18.1707C113.891 18.1707 114.218 18.1502 114.545 18.1707C114.994 18.2115 115.26 18.048 115.485 17.6597C115.996 16.8012 116.527 15.9632 117.059 15.1252C117.079 15.0843 117.14 15.0026 117.181 14.9208C117.038 14.9617 116.895 15.0026 116.732 15.023C116.507 14.4711 116.302 13.9193 116.078 13.3265C115.158 10.9964 114.279 8.66632 113.38 6.31579C113.298 6.11139 113.196 6.02964 112.991 6.02964C112.603 5.98876 112.255 5.92744 111.888 5.88656C111.908 5.66173 111.969 5.45733 111.99 5.25294C113.482 5.25294 114.953 5.25294 116.466 5.25294C116.486 5.4369 116.548 5.66173 116.568 5.88656C116.057 5.96832 115.608 6.02964 115.097 6.11139C115.424 7.03117 115.73 7.91007 116.057 8.76852C116.446 9.81093 116.793 10.8329 117.161 11.8549C117.345 12.3454 117.447 12.836 117.468 13.3674C117.468 13.4696 117.488 13.5718 117.57 13.674C118.408 11.2008 119.246 8.68676 120.104 6.13183ZM79.8589 10.3832C79.8794 9.07512 80.186 7.82831 81.1057 6.80634C81.8824 5.92744 82.9044 5.49821 84.0081 5.1303C86.0725 4.49668 88.4026 5.68217 89.2202 7.80787C89.7925 9.32039 89.7925 10.8738 89.1793 12.3659C88.5457 13.8988 87.2784 14.696 85.7455 15.2069C83.1497 16.045 80.4108 14.3281 79.9611 11.4052C79.9202 11.0577 79.8794 10.7103 79.8589 10.3832ZM87.8916 10.1788C87.8712 9.99489 87.8712 9.64742 87.8099 9.32039C87.6668 8.29842 87.2784 7.39908 86.4609 6.6837C85.2958 5.64129 83.0679 5.41646 82.1277 7.62392C81.5963 8.87072 81.4941 10.138 81.8007 11.4256C82.0255 12.4067 82.4752 13.2448 83.2927 13.8784C84.4782 14.7573 86.3178 14.8186 87.2376 13.0404C87.7077 12.1819 87.8507 11.2621 87.8916 10.1788ZM61.9335 34.0317C61.954 34.2565 61.9744 34.4609 62.0153 34.7062C61.1977 34.8493 60.4006 35.0128 59.583 35.1967C59.3786 34.6653 59.1742 34.1543 58.9494 33.6025C58.8676 33.6433 58.8063 33.7047 58.7245 33.7455C58.0092 34.277 57.2733 34.8084 56.5784 35.3194C56.4762 35.4011 56.3331 35.442 56.19 35.442C55.5155 35.4216 54.841 35.2376 54.3096 34.8084C53.3694 34.0726 53.1241 32.6622 53.676 31.5176C53.8804 31.1088 54.1665 30.8431 54.6162 30.7001C55.9243 30.2913 57.2529 29.8212 58.561 29.3919C58.745 29.351 58.8063 29.2693 58.7859 29.0649C58.7654 28.4926 58.8063 27.8794 58.745 27.2867C58.6428 26.4078 58.1931 26.0807 57.2938 26.1829C56.7828 26.2238 56.3127 26.3873 55.8017 26.51C55.6995 26.5304 55.5973 26.653 55.5769 26.7552C55.4542 27.1845 55.352 27.6137 55.2498 28.0634C54.7388 28.0634 54.2279 28.0634 53.7169 28.0634C53.7169 27.5728 53.7169 27.1231 53.7169 26.6735C53.7169 26.6326 53.7986 26.5508 53.8395 26.5304C54.9841 26.0194 56.0878 25.488 57.2325 24.9974C57.2733 24.977 57.3551 24.9566 57.4164 24.977C57.8456 24.9974 58.2749 24.9974 58.6837 25.0792C59.7669 25.2836 60.2779 25.815 60.4006 26.8983C60.4414 27.4093 60.5028 27.8794 60.5028 28.3904C60.5028 29.8007 60.5028 31.2519 60.5028 32.6622C60.5028 33.0915 60.5436 33.5207 60.7889 33.8682C60.8298 33.9499 60.9729 34.0112 61.0751 34.0112C61.3203 34.0317 61.6269 34.0317 61.9335 34.0317ZM58.7859 30.1073C58.6632 30.1482 58.5815 30.1891 58.4997 30.2095C57.5799 30.5979 56.6806 30.9862 55.7404 31.3541C55.4133 31.4767 55.2294 31.7016 55.1272 32.0286C55.0046 32.417 55.025 32.7849 55.1272 33.1323C55.2703 33.6842 55.6791 34.0112 56.2718 33.9908C56.5988 33.9704 56.9463 33.909 57.2325 33.766C57.7434 33.4798 58.2135 33.1323 58.7041 32.8053C58.745 32.7849 58.8063 32.7031 58.8063 32.6214C58.7859 31.8038 58.7859 30.9658 58.7859 30.1073ZM92.2044 34.0317C91.8978 34.0317 91.632 34.0112 91.3459 34.0317C91.1619 34.0317 91.1006 33.9499 91.0189 33.8273C90.8145 33.4185 90.7736 32.9688 90.7736 32.5192C90.7736 31.0475 90.7736 29.5554 90.7736 28.0838C90.7736 27.5524 90.6918 27.0005 90.5896 26.4691C90.4874 25.9581 90.2422 25.5289 89.7516 25.2836C89.0771 24.9566 88.3617 24.9361 87.6259 24.9566C87.585 24.9566 87.5442 24.977 87.5033 24.9974C86.3996 25.5084 85.2549 26.0194 84.1308 26.51C84.0899 26.5304 84.0081 26.6122 83.9877 26.653C83.9877 27.1027 83.9877 27.5728 83.9877 28.0429C84.4987 28.0429 84.9483 28.0429 85.4389 28.0429C85.4798 28.0429 85.5615 27.9407 85.582 27.8998C85.6842 27.5115 85.7864 27.1231 85.8886 26.7144C85.909 26.6326 85.9908 26.51 86.0316 26.51C86.6039 26.3873 87.1967 26.2034 87.8099 26.1625C88.5661 26.1216 88.9749 26.4895 89.0567 27.2458C89.0975 27.859 89.0771 28.4517 89.0975 29.0649C89.0975 29.2489 89.0158 29.2897 88.8727 29.351C87.5237 29.8007 86.2156 30.2708 84.8666 30.7001C84.4169 30.8431 84.1308 31.1088 83.9468 31.5176C83.4358 32.56 83.5585 33.766 84.2943 34.5631C84.9075 35.2172 85.7046 35.4216 86.5631 35.442C86.6448 35.442 86.747 35.4011 86.8083 35.3398C87.3398 34.9515 87.8712 34.5835 88.4026 34.1748C88.6479 33.9908 88.9136 33.7864 89.1793 33.6025C89.4041 34.1543 89.6085 34.6653 89.8129 35.1967C90.6305 35.0537 91.4277 34.8901 92.2452 34.7471C92.2657 34.4609 92.2248 34.2361 92.2044 34.0317ZM89.0771 32.6418C89.0771 32.6827 89.0362 32.7644 88.9749 32.7849C88.5252 33.1119 88.0551 33.4389 87.585 33.7251C87.1558 33.9704 86.7061 34.1134 86.1951 33.9499C85.8477 33.8477 85.6228 33.6229 85.4593 33.2959C85.2754 32.8462 85.2754 32.3556 85.4389 31.906C85.5411 31.6198 85.6842 31.4563 85.9908 31.3337C86.931 30.9453 87.8712 30.557 88.8318 30.1686C88.9136 30.1482 88.9749 30.1277 89.0771 30.0664C89.0975 30.9658 89.0975 31.8038 89.0771 32.6418ZM61.8926 8.07358C61.8926 7.58303 61.8926 7.13337 61.8926 6.70414C61.8926 6.66326 61.9744 6.56106 62.0357 6.52018C63.1395 6.0092 64.2636 5.45733 65.4082 5.00766C65.7148 4.88503 66.1236 4.98723 66.4711 4.98723C66.6142 4.98723 66.7777 5.00767 66.9208 5.06898C68.004 5.29382 68.5355 5.907 68.5968 7.13337C68.6377 8.76852 68.6377 10.4241 68.6785 12.1002C68.6785 12.4476 68.699 12.836 68.7194 13.1834C68.7194 13.2856 68.7399 13.3674 68.7603 13.4696C68.9034 14.0215 68.9647 14.0828 69.537 14.0828C69.721 14.0828 69.8845 14.0828 70.0889 14.0828C70.1093 14.3076 70.1297 14.512 70.1706 14.7368C69.353 14.8799 68.5559 15.0434 67.7383 15.1865C67.5339 14.6551 67.3295 14.1441 67.1047 13.5922C67.0025 13.674 66.9208 13.7149 66.8594 13.7762C66.1441 14.2872 65.4491 14.8186 64.7337 15.3091C64.652 15.35 64.5498 15.4318 64.4885 15.4318C63.5074 15.4318 62.5876 15.1456 62.0153 14.2872C61.4021 13.4083 61.4021 12.4476 61.8926 11.4461C62.0766 11.0373 62.3423 10.8125 62.7715 10.6694C64.1205 10.2606 65.4287 9.7905 66.7368 9.36127C66.9412 9.27951 67.0229 9.21819 66.9821 9.0138C66.9616 8.46193 66.9616 7.91007 66.9412 7.37864C66.9003 6.52018 66.4506 6.1114 65.5922 6.19316C65.0403 6.23404 64.5089 6.39755 63.957 6.52018C63.8753 6.54062 63.7731 6.66326 63.7526 6.74502C63.6504 7.13337 63.5482 7.52172 63.446 7.91007C63.4256 7.99183 63.3234 8.05314 63.2621 8.05314C62.8737 8.11446 62.4036 8.07358 61.8926 8.07358ZM67.0434 10.138C66.9208 10.1788 66.8186 10.2197 66.7368 10.2606C65.7966 10.649 64.8564 11.0373 63.9366 11.4256C63.7118 11.5278 63.5278 11.6505 63.446 11.8753C63.2212 12.4067 63.2212 12.9586 63.4665 13.4696C63.6096 13.7762 63.8753 13.9193 64.1819 14.0215C64.7133 14.1441 65.163 14.001 65.6331 13.7149C66.0623 13.4287 66.4915 13.1426 66.9208 12.8564C66.9616 12.8155 67.0434 12.7338 67.0434 12.652C67.0434 11.814 67.0434 10.9964 67.0434 10.138ZM95.9856 34.2565C96.558 34.3383 97.0894 34.3792 97.6821 34.4609C97.6617 34.6653 97.6617 34.8493 97.6004 34.9923C97.5799 35.0741 97.4573 35.115 97.3551 35.115C96.7419 35.115 96.1696 35.0741 95.5564 35.0741C94.7797 35.0741 93.9621 35.0945 93.1854 35.115C93.0832 35.115 92.981 35.115 92.8584 35.115C92.838 34.8901 92.7766 34.7062 92.7562 34.4609C93.2672 34.3792 93.7577 34.3383 94.2892 34.2565C94.2892 29.9847 94.2892 25.7128 94.2892 21.441C93.7782 21.441 93.3081 21.441 92.7766 21.441C92.7562 21.2366 92.6949 21.0322 92.6745 20.7869C93.7782 20.5416 94.8206 20.0307 96.0061 20.0511C95.9856 24.7931 95.9856 29.535 95.9856 34.2565ZM80.1655 22.6673C80.1655 23.5871 80.1655 24.5069 80.1655 25.4471C81.2488 25.4471 82.3321 25.4471 83.4358 25.4471C83.4358 25.7537 83.4358 26.0194 83.4358 26.326C82.3525 26.326 81.2897 26.326 80.2064 26.326C80.2064 26.4486 80.186 26.5304 80.186 26.6326C80.186 28.5744 80.186 30.5365 80.186 32.4783C80.186 32.6622 80.2064 32.8258 80.2268 33.0097C80.3086 33.5616 80.6561 33.8886 81.2079 33.9295C81.6985 33.9499 82.1277 33.8273 82.5774 33.6229C82.7 33.582 82.8635 33.5003 83.0066 33.4389C83.1088 33.6433 83.211 33.8477 83.3336 34.0726C82.8022 34.3792 82.2912 34.6857 81.7598 34.9515C81.6576 35.0332 81.535 35.0741 81.4328 35.1558C80.5947 35.6464 79.818 35.4011 79.0618 35.0128C78.6326 34.7879 78.5712 34.2974 78.5304 33.8477C78.5099 33.5207 78.5099 33.1937 78.5099 32.8666C78.5099 30.8227 78.5099 28.7787 78.5099 26.7144C78.5099 26.6122 78.5099 26.4895 78.5099 26.3669C77.8354 26.3669 77.1405 26.3669 76.4864 26.3669C76.4047 26.1421 76.466 25.9785 76.609 25.815C76.9361 25.4062 77.3449 25.2018 77.8763 25.304C78.1011 25.3245 78.326 25.304 78.6121 25.304C78.6121 24.9157 78.5917 24.5478 78.6121 24.2003C78.6121 24.0572 78.6939 23.8937 78.7552 23.7915C79.0005 23.4645 79.3071 23.1579 79.5932 22.8513C79.7772 22.606 79.7772 22.606 80.1655 22.6673ZM57.2529 5.21206C57.2529 6.09096 57.2529 6.92898 57.2529 7.80787C57.6004 7.39908 57.9683 7.03117 58.2953 6.62238C58.7041 6.13183 59.1333 5.66173 59.5421 5.21206C59.6239 5.1303 59.7669 5.06898 59.8896 5.06898C60.3393 5.04854 60.8094 5.06898 61.2795 5.06898C61.2795 5.70261 61.2795 6.31579 61.2795 6.94941C60.8911 6.94941 60.5232 6.92897 60.1757 6.94941C59.9305 6.96985 59.6647 7.03117 59.4604 7.13337C58.6223 7.56259 57.9683 8.19622 57.4368 8.95248C57.396 8.99336 57.3551 9.09556 57.3551 9.15688C57.3551 10.792 57.3551 12.4476 57.3551 14.0828C57.3551 14.1237 57.3551 14.1645 57.3755 14.2259C58.0909 14.3076 58.8267 14.3485 59.5217 14.4303C59.5012 14.6755 59.4399 14.9412 59.4195 15.1456C57.7026 15.1456 55.9856 15.1456 54.2687 15.1456C54.2483 14.9412 54.187 14.7368 54.1665 14.512C54.6162 14.4711 55.0454 14.3894 55.5155 14.3689C55.6586 14.3485 55.7404 14.2872 55.7404 14.1441C55.7404 11.6709 55.7404 9.17732 55.7404 6.70414C55.7404 6.66326 55.7404 6.62238 55.7199 6.56106C55.209 6.60194 54.698 6.66326 54.187 6.6837C54.1665 6.45887 54.1052 6.25447 54.0848 6.0092C55.1272 5.72304 56.1083 5.27338 57.2529 5.21206ZM77.0587 34.4609C77.0383 34.6857 76.977 34.8901 76.9565 35.0945C76.4455 35.0945 75.9345 35.0945 75.444 35.0945C74.5038 35.0945 73.5636 35.115 72.6029 35.115C72.1941 35.115 72.1941 35.115 72.1124 34.7266C72.0919 34.6449 72.0919 34.5427 72.0919 34.4813C72.6029 34.3996 73.1139 34.3587 73.6249 34.277C73.6249 31.7016 73.6249 29.1262 73.6249 26.51C73.1139 26.5304 72.6029 26.5917 72.0919 26.6122C72.0715 26.3873 72.0102 26.1829 71.9897 25.9581C73.0935 25.7128 74.1563 25.2018 75.3622 25.2223C75.3622 28.2678 75.3622 31.2724 75.3622 34.277C75.9345 34.3383 76.466 34.3792 77.0587 34.4609ZM74.2381 23.8733C74.1972 23.8733 74.1563 23.8937 74.1154 23.8937C73.6658 23.9142 73.5431 23.7915 73.4614 23.3419C73.3796 22.8513 73.4205 22.3812 73.5431 21.8906C73.5636 21.8089 73.6249 21.7067 73.6658 21.7067C74.2176 21.6863 74.8104 21.5227 75.3622 21.6863C75.444 21.7067 75.5053 21.8089 75.5053 21.8702C75.6075 22.4425 75.6075 23.0353 75.4236 23.6076C75.4031 23.6893 75.3009 23.7506 75.2396 23.7506C74.9126 23.812 74.5651 23.8324 74.2381 23.8733Z" fill="black"/>
</svg>
