<svg width="42" height="32" viewBox="0 0 42 32" fill="none" xmlns="http://www.w3.org/2000/svg">
<g id="eigen-layer-logo" clip-path="url(#clip0_4352_771)">
<path id="Vector" d="M0.517722 15.4647L0.45459 14.9365C1.3009 14.5991 1.44935 14.134 1.51248 13.2036C1.57561 12.5067 1.57561 11.5764 1.57561 10.8369V5.21907C1.57561 4.47958 1.57561 3.54924 1.51248 2.85234C1.44935 1.922 1.3009 1.45854 0.45459 1.11946L0.517722 0.591248C1.34356 0.654295 1.91345 0.654295 2.4424 0.654295H6.33442C7.20119 0.654295 7.85814 0.654295 8.68227 0.591248C8.83072 1.66812 8.91434 2.45022 8.97916 3.61229L8.36487 3.71793C8.09014 2.93583 7.85643 2.49281 7.53903 2.15374C7.2217 1.81466 6.73539 1.64597 6.33271 1.58292C5.80376 1.49773 5.33795 1.47728 4.51382 1.47728C3.51906 1.47728 3.3928 1.64597 3.32966 2.49111C3.26653 3.14541 3.26653 3.90706 3.26653 4.66701V7.37112C3.98658 7.37112 5.46763 7.32852 6.14331 7.26547C7.09541 7.15982 7.3923 6.82248 7.7097 5.84952L8.21814 5.95516C8.15503 6.77988 8.15503 7.24331 8.15503 7.77156C8.15503 8.29975 8.15503 8.78534 8.21814 9.61004L7.7097 9.71569C7.3923 8.74445 7.09541 8.42756 6.14331 8.29975C5.46592 8.21455 3.9644 8.1941 3.26653 8.1941V11.0465C3.26653 11.786 3.30919 12.9276 3.32966 13.3502C3.37232 14.3861 3.73235 14.5752 4.68445 14.5752C5.63655 14.5752 6.3566 14.5548 6.92653 14.4696C7.66703 14.3639 8.00488 14.0675 8.32221 13.6245C8.57649 13.2224 8.78805 12.7793 9.06278 11.9972L9.63433 12.1029C9.52856 13.3706 9.35967 14.4065 9.12589 15.5039C7.5817 15.4187 5.65703 15.3982 2.94746 15.3982C1.91004 15.3982 1.34015 15.3982 0.51431 15.4613L0.517722 15.4647Z" fill="#1A0C6D"/>
<path id="Vector_2" d="M12.1688 8.85181C12.4657 8.04927 12.5288 7.64717 12.5288 7.43587C12.5288 7.30978 12.4657 7.24501 12.36 7.24501C12.1483 7.24501 11.7252 7.58241 10.7526 8.72406L10.3499 8.36451C11.5563 6.61117 12.4231 5.80864 13.1209 5.80864C13.5646 5.80864 13.9673 6.21076 13.9673 6.84463C13.9673 7.52108 13.6294 8.44971 13.312 9.31701L11.9368 13.2036C11.7047 13.8375 11.662 14.0062 11.662 14.0914C11.662 14.197 11.7474 14.3027 11.8737 14.3027C12.1057 14.3027 12.5288 14.0709 13.5662 12.5919L13.9894 12.8884C12.8684 15.0643 11.8941 15.6556 11.1536 15.6556C10.6673 15.6556 10.2441 15.233 10.2441 14.6843C10.2441 14.1987 10.3926 13.7335 10.8994 12.3602L12.1688 8.85352V8.85181ZM13.7983 0C14.433 0 14.9193 0.485615 14.9193 1.11947C14.9193 1.75333 14.433 2.23894 13.7983 2.23894C13.1636 2.23894 12.6773 1.75333 12.6773 1.11947C12.6773 0.485615 13.1636 0 13.7983 0Z" fill="#1A0C6D"/>
<path id="Vector_3" d="M21.8222 2.05779C22.3307 2.6286 22.5201 3.34595 22.5201 4.12804C22.5201 6.1983 20.9964 7.67731 19.1348 7.67731C18.1827 7.67731 17.4849 7.40296 16.8706 6.89521C16.2154 7.40296 16.067 7.88861 16.067 8.3742C16.067 8.98759 16.5532 9.38804 17.5053 9.43064L20.0647 9.51585C22.1174 9.57889 23.1105 10.804 23.1105 12.3886C23.1105 14.2902 21.2267 15.9583 18.2868 15.9583C15.8963 15.9583 14.6899 14.9019 14.6899 13.4655C14.6899 12.4721 15.1763 11.69 16.3826 10.867C15.4732 10.5501 14.8589 9.85318 14.8589 8.85978C14.8589 8.03515 15.2394 7.19001 16.3195 6.36696C15.8332 5.71268 15.5994 5.03623 15.5994 4.12804C15.5994 2.14128 17.1863 0.578796 19.0478 0.578796C20.2746 0.578796 20.592 1.00136 21.7983 1.00136C22.3273 1.00136 23.0678 0.98092 23.8083 0.91617L23.9772 1.27569L23.8083 2.05779H21.8188H21.8222ZM19.6859 11.1209C18.7338 11.1209 17.9729 11.1209 17.1044 11.0579C16.3638 11.7548 16.067 12.4517 16.067 13.1077C16.067 14.0158 16.8501 14.7775 18.6263 14.7775C21.0595 14.7775 21.9485 13.7415 21.9485 12.7498C21.9485 11.7582 21.2711 11.1226 19.6842 11.1226L19.6859 11.1209ZM17.2324 4.00025C17.2324 5.85922 17.9524 6.83216 19.1365 6.83216C20.2371 6.83216 20.9145 6.09266 20.9145 4.23369C20.9145 2.48036 20.1739 1.42394 19.0103 1.42394C17.9729 1.42394 17.2324 2.22648 17.2324 4.00195V4.00025Z" fill="#1A0C6D"/>
<path id="Vector_4" d="M28.0605 5.99902C30.091 5.99902 31.6369 7.49846 31.6369 9.52785C31.6369 9.69649 31.6369 9.84474 31.5942 10.0134H25.0779C25.0353 10.2673 25.0353 10.499 25.0353 10.816C25.0353 12.9919 26.3474 14.4709 28.04 14.4709C29.3948 14.4709 30.219 14.0057 31.0858 12.7602L31.5942 13.0771C30.9595 14.6617 29.7105 15.972 27.8285 15.972C25.1837 15.972 23.428 13.7331 23.428 11.1551C23.428 8.21751 25.4379 6.00073 28.0605 6.00073V5.99902ZM29.7736 9.1683C29.7531 7.73192 28.7788 6.94982 27.5947 6.94982C26.3047 6.94982 25.4789 7.92106 25.2247 9.1683H29.7736Z" fill="#1A0C6D"/>
<path id="Vector_5" d="M40.3929 5.97253C40.3929 6.62684 40.3929 7.36634 40.4355 8.02234C40.4987 8.88792 40.6266 9.22697 41.4082 9.54392L41.345 10.0295C40.6045 9.96653 40.1386 9.96653 39.6523 9.96653C39.1661 9.96653 38.7003 9.96653 37.9597 10.0295L37.8966 9.54392C38.6798 9.22697 38.7856 8.88964 38.8487 8.02234C38.9118 7.36805 38.9118 6.62856 38.9118 5.97253V3.73359C38.9118 2.55107 38.1918 1.74683 37.0708 1.74683C35.6102 1.74683 34.7007 2.7402 34.7007 4.09141V5.97253C34.7007 6.62684 34.7007 7.36634 34.7434 8.02234C34.8066 8.88792 34.9345 9.22697 35.716 9.54392L35.6529 10.0295C34.9123 9.96653 34.4465 9.96653 33.9602 9.96653C33.4739 9.96653 33.0082 9.96653 32.2676 10.0295L32.2045 9.54392C32.9876 9.22697 33.0934 8.88964 33.1566 8.02234C33.2197 7.36805 33.2197 6.62856 33.2197 5.97253V5.44431C33.2197 4.79001 33.2197 4.11356 33.1566 3.45755C33.0934 2.59196 32.8819 2.40112 32.1191 2.25288V1.80987C33.0917 1.3447 33.6207 1.00733 34.3612 0.330872L34.8049 0.499559C34.7417 1.17601 34.6991 1.74683 34.6786 2.27503L34.6991 2.29549C35.2706 1.21861 36.2654 0.373469 37.5349 0.373469C38.5723 0.373469 39.4391 0.859086 39.9475 1.68378C40.2223 2.16939 40.3912 2.69761 40.3912 3.54275V5.97253H40.3929Z" fill="#1A0C6D"/>
<path id="Vector_6" d="M3.26653 27.246C3.26653 27.9855 3.28701 29.1272 3.32966 29.5497C3.43545 30.5857 3.73234 30.7748 4.68444 30.7748C5.63655 30.7748 6.22863 30.7748 6.84291 30.6692C7.60386 30.5209 8.00659 30.1835 8.32392 29.698C8.59865 29.2959 8.83243 28.8102 9.1071 27.9872L9.72139 28.0929C9.61561 29.4458 9.4245 30.5226 9.19243 31.7052C7.52031 31.62 5.65873 31.5995 2.95087 31.5995C1.91345 31.5995 1.34356 31.5995 0.517722 31.6626L0.45459 31.1343C1.3009 30.797 1.44935 30.3318 1.51248 29.4014C1.57561 28.7046 1.57561 27.7742 1.57561 27.0347V21.4152C1.57561 20.6757 1.57561 19.7454 1.51248 19.0485C1.44935 18.1181 1.3009 17.6547 0.45459 17.3156L0.517722 16.7874C1.34356 16.8505 1.91345 16.8505 2.40145 16.8505C2.93039 16.8505 3.502 16.8505 4.32613 16.7874L4.38926 17.3156C3.54295 17.653 3.3945 18.1181 3.33137 19.0485C3.26824 19.7454 3.26823 20.6757 3.26823 21.4152V27.246H3.26653Z" fill="#1A0C6D"/>
<path id="Vector_7" d="M10.7648 23.569C11.1675 22.8295 12.2254 22.0474 13.4727 22.0474C14.5101 22.0474 15.3137 22.4069 15.8205 23.1464C16.1583 23.6321 16.4552 24.4772 16.4552 25.428V27.4556C16.4552 28.11 16.4552 28.7234 16.4979 29.3776C16.5405 30.0745 16.8784 30.6028 17.5558 30.9197L17.281 31.7648C15.8205 31.7018 15.2711 31.0679 15.08 30.1171H15.0373C14.4657 31.4053 13.5358 31.9335 12.5836 31.9335C11.2289 31.9335 10.3826 31.0458 10.3826 29.9263C10.3826 28.9329 10.8911 28.3416 11.7152 27.8135C12.4984 27.3057 13.8941 26.7996 14.9725 26.5253V25.4893C14.9725 24.835 14.8035 24.3272 14.5289 23.9677C14.2115 23.5451 13.6621 23.3764 13.1962 23.3764C12.4762 23.3764 11.8841 23.6729 11.1657 24.242L10.7631 23.5656L10.7648 23.569ZM14.9742 27.2665C14.5306 27.4147 14.1483 27.5834 13.7473 27.7521C12.309 28.3655 11.8858 28.9994 11.8858 29.5685C11.8858 30.1376 12.2032 30.6454 12.9437 30.6454C13.8105 30.6454 14.9742 29.8854 14.9742 28.4269V27.2648V27.2665Z" fill="#1A0C6D"/>
<path id="Vector_8" d="M23.5509 24.0514L24.9466 20.7765C25.5182 19.4458 25.6019 18.9602 25.6019 18.558C25.6019 18.115 25.496 17.7759 24.8613 17.4385L24.9466 16.9529C25.5609 17.016 25.9192 17.016 26.385 17.016C26.8508 17.016 27.146 17.016 27.7603 16.9529L27.8234 17.4385C27.4429 17.7759 27.2092 18.1576 26.8081 18.9602C26.4908 19.594 26.2366 20.2279 25.9824 20.7987L22.237 29.2501C21.8344 30.1583 21.4334 30.8143 21.0102 31.2573C20.6502 31.6168 20.0786 31.9338 19.4029 31.9338C18.8313 31.9338 18.4082 31.5538 18.4082 31.046C18.4082 30.5808 18.7255 30.1804 19.2118 30.1804C19.6145 30.1804 19.7612 30.2861 20.1434 30.2861C20.5871 30.2861 20.9045 29.9487 21.2218 29.2722L22.7455 25.9769L20.6502 20.8004C20.4182 20.2091 20.1417 19.427 19.8039 18.6671C19.4866 17.9702 19.3381 17.7794 18.8313 17.442L18.9166 16.9564C19.5309 16.999 20.1657 17.0194 20.6297 17.0194C21.0939 17.0194 21.4761 16.999 22.0903 16.9564L22.1535 17.442C21.6876 17.6533 21.5187 17.9497 21.5187 18.2871C21.5187 18.7728 21.604 19.1748 22.2387 20.7595L23.5509 24.0548V24.0514Z" fill="#1A0C6D"/>
<path id="Vector_9" d="M29.9094 22.0065C31.9399 22.0065 33.484 23.506 33.484 25.5353C33.484 25.704 33.484 25.8522 33.4414 26.0209H26.9251C26.8825 26.2748 26.8825 26.5065 26.8825 26.8235C26.8825 28.9994 28.1946 30.4784 29.8872 30.4784C31.242 30.4784 32.0661 30.0132 32.9329 28.7677L33.4414 29.0846C32.8066 30.6692 31.5577 31.9795 29.6757 31.9795C27.031 31.9795 25.2751 29.7406 25.2751 27.1625C25.2751 24.225 27.2852 22.0082 29.9077 22.0082L29.9094 22.0065ZM31.6225 25.1758C31.6021 23.7394 30.6278 22.9573 29.4436 22.9573C28.1537 22.9573 27.3278 23.9286 27.0736 25.1758H31.6225Z" fill="#1A0C6D"/>
<path id="Vector_10" d="M39.3973 23.4559C38.4025 23.4559 37.5784 24.6179 37.5784 26.6456V27.639C37.5784 28.2932 37.5784 29.0327 37.6211 29.6888C37.6842 30.5544 37.8753 30.936 38.8052 31.2104L38.7421 31.696C38.0016 31.6329 37.3242 31.6329 36.8379 31.6329C36.3516 31.6329 35.8858 31.6329 35.1453 31.696L35.0821 31.2104C35.8653 30.8934 35.9711 30.556 36.0342 29.6888C36.0973 29.0345 36.0973 28.295 36.0973 27.639V27.1108C36.0973 26.4564 36.0973 25.78 36.0342 25.124C35.9711 24.2584 35.7595 24.0676 34.9968 23.9193V23.4763C35.9694 23.0112 36.4984 22.6738 37.2389 21.9973L37.6825 22.166C37.6194 22.8425 37.5767 23.6876 37.5563 24.2158L37.5767 24.2362C38.1483 22.8425 39.1209 22.0382 40.1156 22.0382C40.9824 22.0382 41.4704 22.5239 41.4704 23.0946C41.4704 23.6654 41.1531 23.8341 40.7094 23.8341C40.16 23.8341 39.9058 23.4541 39.3973 23.4541V23.4559Z" fill="#1A0C6D"/>
</g>
<defs>
<clipPath id="clip0_4352_771">
<rect width="41.0159" height="32" fill="white" transform="translate(0.45459)"/>
</clipPath>
</defs>
</svg>
