<svg width="16" height="17" viewBox="0 0 16 17" fill="none" xmlns="http://www.w3.org/2000/svg">
<g id="ic-faq">
<path id="Primary" d="M1 3.25C1 1.73125 2.23125 0.5 3.75 0.5H14.25H15V1.25V12.25V13H14.25H14V15H14.25H15V16.5H14.25H3.5C2.11875 16.5 1 15.3813 1 14C1 13.9156 1.00312 13.8313 1.0125 13.75H1V3.25ZM3.5 13C2.94687 13 2.5 13.4469 2.5 14C2.5 14.5531 2.94687 15 3.5 15H12.5V13H3.5ZM2.5 11.7094C2.80625 11.575 3.14375 11.5 3.5 11.5H13.5V2H3.75C3.05938 2 2.5 2.55938 2.5 3.25V11.7094ZM5.75 4H11.25H12V5.5H11.25H5.75H5V4H5.75ZM5.75 6.5H11.25H12V8H11.25H5.75H5V6.5H5.75Z" fill="#092306"/>
</g>
</svg>
