<?xml version="1.0" encoding="UTF-8"?>
<svg xmlns="http://www.w3.org/2000/svg" xmlns:xlink="http://www.w3.org/1999/xlink" width="80px" height="32px" viewBox="0 0 80 32" version="1.1">
<defs>
<clipPath id="clip1">
  <path d="M 29 3 L 79.433594 3 L 79.433594 28 L 29 28 Z M 29 3 "/>
</clipPath>
<linearGradient id="linear0" gradientUnits="userSpaceOnUse" x1="14.344" y1="0.625" x2="14.578" y2="29.954" gradientTransform="matrix(0.8,0,0,0.8,0,0)">
<stop offset="0" style="stop-color:rgb(100%,1.960784%,100%);stop-opacity:1;"/>
<stop offset="0.56" style="stop-color:rgb(51.372549%,13.72549%,100%);stop-opacity:1;"/>
<stop offset="0.76" style="stop-color:rgb(56.078431%,0%,100%);stop-opacity:1;"/>
<stop offset="0.98" style="stop-color:rgb(30.588235%,40.784314%,100%);stop-opacity:1;"/>
</linearGradient>
<linearGradient id="linear1" gradientUnits="userSpaceOnUse" x1="32.615" y1="34.691" x2="15.609" y2="39.526" gradientTransform="matrix(0.8,0,0,0.8,0,0)">
<stop offset="0" style="stop-color:rgb(87.45098%,71.372549%,100%);stop-opacity:1;"/>
<stop offset="0.49" style="stop-color:rgb(56.078431%,0%,100%);stop-opacity:1;"/>
<stop offset="0.99" style="stop-color:rgb(32.156863%,38.823529%,100%);stop-opacity:1;"/>
</linearGradient>
<linearGradient id="linear2" gradientUnits="userSpaceOnUse" x1="15.513" y1="35.075" x2="-3.103" y2="36.726" gradientTransform="matrix(0.8,0,0,0.8,0,0)">
<stop offset="0" style="stop-color:rgb(32.156863%,38.823529%,100%);stop-opacity:1;"/>
<stop offset="0.46" style="stop-color:rgb(56.078431%,0%,100%);stop-opacity:1;"/>
<stop offset="0.99" style="stop-color:rgb(87.45098%,71.372549%,100%);stop-opacity:1;"/>
</linearGradient>
</defs>
<g id="surface1">
<g clip-path="url(#clip1)" clip-rule="nonzero">
<path style=" stroke:none;fill-rule:nonzero;fill:rgb(0%,0%,0%);fill-opacity:1;" d="M 32.828125 13.992188 L 32.828125 20.730469 L 29.945312 20.730469 L 29.945312 4.257812 L 40.132812 4.257812 L 40.132812 6.914062 L 32.828125 6.914062 L 32.828125 11.402344 L 38.960938 11.402344 L 38.960938 13.992188 Z M 40.917969 4.257812 L 47.476562 4.257812 C 50.722656 4.257812 52.703125 5.945312 52.703125 8.695312 C 52.703125 10.523438 51.894531 11.828125 50.339844 12.480469 C 52.074219 13.046875 52.953125 14.351562 52.953125 16.269531 C 52.953125 19.085938 50.992188 20.730469 47.589844 20.730469 L 40.917969 20.730469 Z M 43.804688 6.800781 L 43.804688 11.289062 L 47.296875 11.289062 C 48.875 11.289062 49.753906 10.453125 49.753906 8.988281 C 49.753906 7.523438 48.851562 6.800781 47.226562 6.800781 Z M 43.804688 13.722656 L 43.804688 18.183594 L 47.476562 18.183594 C 49.097656 18.183594 50 17.394531 50 15.90625 C 50 14.511719 49.078125 13.722656 47.476562 13.722656 Z M 51.121094 4.257812 C 52.175781 4.867188 52.929688 5.777344 53.308594 6.914062 L 56.871094 6.914062 L 56.871094 20.730469 L 59.757812 20.730469 L 59.757812 6.914062 L 64.578125 6.914062 L 64.578125 4.257812 Z M 63.972656 12.503906 C 63.972656 7.390625 67.195312 3.984375 72.019531 3.984375 C 75.917969 3.984375 78.824219 6.261719 79.386719 9.800781 L 76.34375 9.800781 C 75.78125 7.886719 74.136719 6.757812 71.953125 6.757812 C 68.910156 6.757812 66.992188 8.964844 66.992188 12.480469 C 66.992188 15.996094 68.929688 18.226562 71.953125 18.226562 C 74.183594 18.226562 75.894531 17.058594 76.4375 15.230469 L 79.433594 15.230469 C 78.800781 18.699219 75.78125 21 71.882812 21 C 67.082031 21 63.972656 17.664062 63.972656 12.503906 Z M 53.511719 26.96875 L 52.964844 26.96875 L 52.964844 23.835938 L 53.511719 23.835938 Z M 55.695312 25.425781 C 55.695312 26.125 56.097656 26.507812 56.675781 26.507812 C 57.21875 26.507812 57.550781 26.207031 57.550781 25.703125 L 57.550781 25.691406 L 56.601562 25.691406 L 56.601562 25.207031 L 58.058594 25.207031 L 58.058594 26.96875 L 57.597656 26.96875 L 57.5625 26.609375 C 57.390625 26.847656 57.035156 27.015625 56.609375 27.015625 C 55.730469 27.015625 55.117188 26.378906 55.117188 25.414062 C 55.117188 24.449219 55.738281 23.785156 56.683594 23.785156 C 57.398438 23.785156 57.953125 24.199219 58.042969 24.839844 L 57.464844 24.839844 C 57.363281 24.46875 57.046875 24.300781 56.667969 24.300781 C 56.046875 24.300781 55.691406 24.75 55.691406 25.425781 Z M 59.742188 26.96875 L 59.742188 23.835938 L 60.289062 23.835938 L 61.757812 26.054688 L 61.757812 23.835938 L 62.296875 23.835938 L 62.296875 26.96875 L 61.757812 26.96875 L 60.285156 24.75 L 60.285156 26.96875 Z M 64.632812 26.96875 L 64.085938 26.96875 L 64.085938 23.835938 L 64.632812 23.835938 Z M 66.144531 23.835938 L 68.527344 23.835938 L 68.527344 24.339844 L 67.613281 24.339844 L 67.613281 26.96875 L 67.0625 26.96875 L 67.0625 24.339844 L 66.144531 24.339844 Z M 70.589844 26.96875 L 70.039062 26.96875 L 70.039062 23.835938 L 70.589844 23.835938 Z M 73.710938 27.019531 C 72.8125 27.019531 72.195312 26.355469 72.195312 25.402344 C 72.195312 24.445312 72.820312 23.78125 73.714844 23.78125 C 74.609375 23.78125 75.234375 24.445312 75.234375 25.402344 C 75.234375 26.355469 74.609375 27.019531 73.710938 27.019531 Z M 73.714844 24.308594 C 73.140625 24.308594 72.769531 24.734375 72.769531 25.402344 C 72.769531 26.070312 73.140625 26.492188 73.714844 26.492188 C 74.289062 26.492188 74.65625 26.058594 74.65625 25.402344 C 74.65625 24.742188 74.289062 24.308594 73.714844 24.308594 Z M 76.839844 26.96875 L 76.839844 23.835938 L 77.382812 23.835938 L 78.851562 26.054688 L 78.851562 23.835938 L 79.394531 23.835938 L 79.394531 26.96875 L 78.851562 26.96875 L 77.378906 24.75 L 77.378906 26.96875 Z M 49.945312 25.214844 C 49.945312 25.214844 50.125 25.460938 50.125 25.703125 C 50.125 25.949219 49.945312 26.167969 49.945312 26.167969 L 29.894531 25.90625 L 29.894531 25.542969 Z M 49.945312 25.214844 "/>
</g>
<path style=" stroke:none;fill-rule:evenodd;fill:url(#linear0);" d="M 19.898438 15.789062 C 19.898438 20.382812 16.179688 24.105469 11.597656 24.105469 C 7.011719 24.105469 3.296875 20.382812 3.296875 15.789062 C 3.296875 8.746094 11.390625 0 11.597656 0 C 11.800781 0 19.898438 8.746094 19.898438 15.789062 Z M 16.539062 15.789062 C 16.539062 18.523438 14.328125 20.742188 11.597656 20.742188 C 8.867188 20.742188 6.65625 18.523438 6.65625 15.789062 C 6.65625 13.054688 8.828125 10.878906 11.519531 10.839844 L 11.519531 15.941406 C 11.519531 15.941406 14.652344 14.6875 16.183594 13.933594 C 16.414062 14.507812 16.542969 15.132812 16.542969 15.789062 Z M 16.539062 15.789062 "/>
<path style=" stroke:none;fill-rule:nonzero;fill:url(#linear1);" d="M 9.734375 29.015625 L 23.175781 27.574219 C 23.332031 29.046875 23.296875 30.535156 23.066406 32 L 9.675781 31.167969 C 9.792969 30.457031 9.808594 29.734375 9.734375 29.015625 Z M 9.734375 29.015625 "/>
<path style=" stroke:none;fill-rule:nonzero;fill:url(#linear2);" d="M 13.257812 25.082031 L 0 27.746094 C 0.292969 29.199219 0.773438 30.609375 1.429688 31.933594 L 13.953125 27.117188 C 13.632812 26.472656 13.398438 25.789062 13.257812 25.082031 Z M 13.257812 25.082031 "/>
</g>
</svg>
