<svg width="80" height="28" viewBox="0 0 80 28" fill="none" xmlns="http://www.w3.org/2000/svg">
<path d="M16.0868 0.067569L11.4706 2.51275C9.80205 3.3966 9.65357 5.5942 11.1899 6.66782L15.9031 9.96149C16.8631 10.6323 16.7707 12.0054 15.7283 12.5581L11.4753 14.8131C9.80564 15.6983 9.65962 17.8984 11.1994 18.9704L15.6866 22.0943C16.1523 22.4185 16.4267 22.9297 16.4267 23.4729V23.6015C16.4267 23.997 16.8827 24.2451 17.2497 24.0493L21.8901 21.573C23.5595 20.6821 23.6963 18.4773 22.1484 17.4114L17.4385 14.1683C16.4716 13.5025 16.5563 12.1255 17.5985 11.5681L21.8986 9.26814C23.5654 8.37669 23.7018 6.17466 22.1561 5.1088L17.655 2.00483C17.1855 1.68104 16.9083 1.16759 16.9083 0.621619V0.51613C16.9083 0.121391 16.4537 -0.126809 16.0868 0.067569Z" fill="#075A5A"/>
<path d="M5.96372 3.94993L1.34757 6.39511C-0.321006 7.27894 -0.469459 9.47659 1.06688 10.5502L5.78006 13.8438C6.74004 14.5146 6.64759 15.8878 5.60523 16.4404L1.35215 18.6955C-0.317422 19.5807 -0.463427 21.7808 1.07627 22.8527L5.56358 25.9766C6.02917 26.3008 6.30359 26.812 6.30359 27.3552V27.4839C6.30359 27.8793 6.75967 28.1275 7.12664 27.9316L11.767 25.4554C13.4364 24.5645 13.5733 22.3596 12.0253 21.2937L7.31544 18.0506C6.34851 17.3848 6.43326 16.0078 7.47546 15.4504L11.7756 13.1505C13.4423 12.259 13.5787 10.057 12.0331 8.99114L7.53196 5.88718C7.06244 5.5634 6.78525 5.04994 6.78525 4.50398V4.39849C6.78525 4.00375 6.33068 3.75554 5.96372 3.94993Z" fill="#075A5A"/>
<path d="M40.4604 21.651C40.3911 21.651 40.3253 21.6225 40.2805 21.5729L34.1925 14.8467C34.0504 14.6898 33.7765 14.7839 33.7765 14.9896V21.4301C33.7765 21.5521 33.6708 21.651 33.5405 21.651H31.2262C31.0959 21.651 30.9902 21.5521 30.9902 21.4301V5.96833C30.9902 5.84632 31.0959 5.74741 31.2262 5.74741H33.5405C33.6708 5.74741 33.7765 5.84632 33.7765 5.96833V12.5392C33.7765 12.7457 34.0522 12.8393 34.1936 12.6807L40.3049 5.82675C40.3496 5.77647 40.416 5.74741 40.4859 5.74741H43.3462C43.5496 5.74741 43.6577 5.97232 43.5228 6.11487L36.4722 13.5627C36.3925 13.6469 36.3931 13.7738 36.4737 13.8574L43.6368 21.282C43.7739 21.4241 43.6662 21.651 43.4617 21.651H40.4604Z" fill="#075A5A"/>
<path d="M56.7969 15.0378C56.7969 15.4351 56.7738 15.8001 56.7279 16.1328C56.713 16.2405 56.6138 16.3193 56.4979 16.3193H46.6639C46.5266 16.3193 46.4177 16.4289 46.435 16.5565C46.5566 17.4539 46.9473 18.1833 47.607 18.7449C48.324 19.3551 49.2038 19.6602 50.2467 19.6602C51.6928 19.6602 52.7295 19.1136 53.3568 18.0204C53.3993 17.9463 53.4808 17.8982 53.5707 17.8982H56.1042C56.2648 17.8982 56.3785 18.0454 56.3206 18.1857C55.8961 19.2162 55.1913 20.0737 54.2061 20.7586C53.147 21.4908 51.8272 21.8569 50.2467 21.8569C48.9594 21.8569 47.8026 21.5899 46.776 21.0561C45.7658 20.5068 44.9674 19.7441 44.3808 18.7678C43.8105 17.7761 43.5254 16.632 43.5254 15.3353C43.5254 14.0386 43.8024 12.9021 44.3563 11.9257C44.9267 10.9342 45.7169 10.1714 46.7271 9.63745C47.7537 9.10356 48.9268 8.83658 50.2467 8.83658C51.5176 8.83658 52.65 9.09593 53.644 9.61456C54.6379 10.1333 55.4118 10.8655 55.9658 11.8114C56.5199 12.7419 56.7969 13.8174 56.7969 15.0378ZM53.6574 14.5902C53.7857 14.5858 53.8873 14.4862 53.879 14.3662C53.8159 13.4557 53.4523 12.4397 52.7885 11.9029C52.0716 11.3232 51.1836 11.0333 50.1244 11.0333C49.1631 11.0333 48.3403 11.3232 47.6559 11.9029C46.9358 12.5129 46.6198 13.6467 46.4713 14.5828C46.45 14.7175 46.5658 14.8354 46.7111 14.8304L53.6574 14.5902Z" fill="#075A5A"/>
<path d="M68.8078 11.4115C69.3197 10.5372 69.9239 9.82813 70.7386 9.43151C71.5533 9.03489 72.474 8.83658 73.5004 8.83658C74.6736 8.83658 75.7408 9.11119 76.7023 9.66034C77.6795 10.1943 78.4459 10.9494 78.9999 11.9257C79.5539 12.9021 79.8305 14.0234 79.8305 15.2895C79.8305 16.5558 79.5539 17.6923 78.9999 18.6991C78.4459 19.6907 77.6795 20.4687 76.7023 21.0332C75.7408 21.5823 74.6736 21.8569 73.5004 21.8569C72.474 21.8569 71.5614 21.6662 70.7631 21.2849C69.9647 20.8882 69.1949 20.1423 68.8078 19.3049V27.4254C68.8078 27.5474 68.7022 27.6463 68.5718 27.6463H66.2575C66.1271 27.6463 66.0215 27.5474 66.0215 27.4254V9.26344C66.0215 9.14143 66.1271 9.04252 66.2575 9.04252H68.5718C68.7022 9.04252 68.8078 9.14143 68.8078 9.26344V11.4115ZM76.9954 15.2895C76.9954 14.42 76.8003 13.6725 76.4092 13.047C76.0339 12.4063 75.5292 11.9257 74.8937 11.6054C74.2744 11.2698 73.6064 11.102 72.8895 11.102C72.1888 11.102 71.5208 11.2698 70.8853 11.6054C70.2661 11.941 69.761 12.4292 69.3699 13.0699C68.9952 13.7106 68.8078 14.4658 68.8078 15.3353C68.8078 16.2048 68.9952 16.9676 69.3699 17.6236C69.761 18.2643 70.2661 18.7525 70.8853 19.0881C71.5208 19.4237 72.1888 19.5915 72.8895 19.5915C73.6064 19.5915 74.2744 19.4237 74.8937 19.0881C75.5292 18.7372 76.0339 18.2338 76.4092 17.5778C76.8003 16.9219 76.9954 16.1591 76.9954 15.2895Z" fill="#075A5A"/>
<path d="M61.8395 21.8351C60.5215 21.8351 60.1993 21.5489 59.8549 21.2259C59.3592 20.7764 59.1113 20.0402 59.1113 19.0172V5.63368C59.1113 5.51167 59.217 5.41275 59.3473 5.41275H61.5024C61.6328 5.41275 61.7384 5.50386 61.7384 5.62587C61.7384 7.28721 61.7384 18.1102 61.7384 18.481C61.7384 18.765 61.8964 18.9367 61.9863 19.021C62.0762 19.1053 62.2097 19.242 62.7299 19.2285C63.0437 19.2285 63.3374 19.2285 63.6341 19.2285C63.7644 19.2285 63.8701 19.3274 63.8701 19.4494V21.6142C63.8701 21.7362 63.7644 21.8351 63.6341 21.8351C63.3463 21.8351 63.0789 21.8351 62.831 21.8351C62.5165 21.8351 62.2195 21.8351 61.8395 21.8351Z" fill="#075A5A"/>
</svg>
