<svg width="16" height="17" viewBox="0 0 16 17" fill="none" xmlns="http://www.w3.org/2000/svg">
<path fill-rule="evenodd" clip-rule="evenodd" d="M0 8.50041C0 4.0818 3.58188 0.5 7.9998 0.5C12.4185 0.5 16.0004 4.0818 16 8.50002C16 10.065 15.5505 11.5249 14.7739 12.7576C14.5598 13.0973 14.3212 13.4197 14.0599 13.7228L8.01043 7.67345L2.80843 12.8749L1.94957 13.7338C1.68742 13.4315 1.4481 13.1095 1.23398 12.7702C0.452262 11.5351 0 10.0705 0 8.50041ZM13.8568 11.6178L13.93 11.4713C14.3889 10.5558 14.6318 9.52851 14.6318 8.50041C14.6318 4.84382 11.6569 1.86896 8.0002 1.86896C4.34353 1.86896 1.36899 4.84382 1.36899 8.50041C1.36899 9.53402 1.61382 10.566 2.0771 11.4851L2.1507 11.6307L8.01043 5.77116L13.8568 11.6178ZM7.99966 16.4999C9.99134 16.4999 11.8134 15.7722 13.2139 14.5677V14.5673L8.01029 9.36389L2.79687 14.5768C4.19538 15.7761 6.00797 16.4999 7.99966 16.4999Z" fill="#092306"/>
</svg>
