<svg width="101" height="32" viewBox="0 0 101 32" fill="none" xmlns="http://www.w3.org/2000/svg">
<path fill-rule="evenodd" clip-rule="evenodd" d="M8.40135 4L14.3348 13.2934L8.40135 16.7543L2.46387 13.2894L8.40135 4ZM4.28303 12.8497L8.40135 6.40403L12.5197 12.8497L8.40135 15.2497L4.28303 12.8497Z" fill="#007AFF"/>
<path d="M8.39314 18.7912L1.50776 14.7778L1.31818 15.0723C-0.79947 18.3919 -0.327538 22.7402 2.45969 25.5274C5.73902 28.8067 11.0513 28.8067 14.3306 25.5274C17.1178 22.7402 17.5898 18.396 15.4681 15.0723L15.2785 14.7778L8.39314 18.7912Z" fill="#007AFF"/>
<path d="M32.8008 23.8938V11.8736H35.2532V21.8447H41.3319V23.8938H32.8008ZM52.8478 23.8938V11.7768H55.3043V23.8978H52.8478V23.8938ZM67.4979 11.7768H71.9591C72.9675 11.7768 73.7339 11.8534 74.2623 12.0067C74.9722 12.2165 75.5813 12.5876 76.0855 13.124C76.5937 13.6565 76.9769 14.3099 77.2431 15.0884C77.5053 15.8629 77.6384 16.8188 77.6384 17.9523C77.6384 18.9526 77.5134 19.8077 77.2673 20.5298C76.9648 21.4131 76.5332 22.1271 75.9725 22.6716C75.549 23.0871 74.9762 23.4098 74.2583 23.6397C73.7178 23.8131 72.9998 23.8978 72.0962 23.8978H67.502V11.7768H67.4979ZM69.9504 13.8219V21.8447H71.7695C72.4512 21.8447 72.9393 21.8044 73.2418 21.7277C73.6411 21.6309 73.9678 21.4615 74.226 21.2235C74.4882 20.9856 74.702 20.5983 74.8633 20.0538C75.0287 19.5133 75.1134 18.7711 75.1134 17.8353C75.1134 16.8995 75.0327 16.1815 74.8633 15.6813C74.6979 15.1771 74.468 14.7899 74.1736 14.5076C73.8791 14.2292 73.504 14.0356 73.0441 13.9388C72.7053 13.8622 72.0357 13.8219 71.0435 13.8219H69.9504ZM89.0737 17.9079C89.0737 16.6736 89.2593 15.6329 89.6304 14.794C89.9047 14.1768 90.2838 13.6202 90.7598 13.1281C91.2357 12.636 91.7601 12.2729 92.3248 12.035C93.0791 11.7163 93.9544 11.555 94.9386 11.555C96.7255 11.555 98.1534 12.1116 99.2304 13.2208C100.303 14.3341 100.84 15.875 100.84 17.8555C100.84 19.8158 100.307 21.3526 99.2425 22.4578C98.1776 23.5671 96.7537 24.1197 94.9749 24.1197C93.1719 24.1197 91.7359 23.5711 90.671 22.4659C89.6062 21.3607 89.0737 19.844 89.0737 17.9079ZM91.5988 17.8272C91.5988 19.2027 91.9174 20.2434 92.5507 20.9533C93.184 21.6632 93.9907 22.0182 94.9668 22.0182C95.947 22.0182 96.7457 21.6672 97.3749 20.9613C98.0001 20.2555 98.3147 19.2027 98.3147 17.795C98.3147 16.4034 98.0082 15.3667 97.3991 14.681C96.79 13.9953 95.9793 13.6524 94.9668 13.6524C93.9584 13.6524 93.1396 13.9993 92.5225 14.6891C91.9094 15.3869 91.5988 16.4316 91.5988 17.8272Z" fill="black"/>
</svg>
