<svg width="173" height="26" viewBox="0 0 173 26" fill="none" xmlns="http://www.w3.org/2000/svg">
<path d="M8.61528 3.85914H3.82943V8.67564H7.83436V12.7056H0V0H12.6193V22.1409H21.996V12.7047H13.4011V8.67471H26V26H8.61528V3.85914ZM164.249 20.813H158.401V5.18793H164.249C166.771 5.18793 168.848 5.92429 170.433 7.37564C172.017 8.82607 172.821 10.7009 172.821 13C172.821 15.2991 172.017 17.1971 170.433 18.6476C168.848 20.0989 166.771 20.813 164.249 20.813ZM161.615 8.06743V17.9335H163.982C167.464 17.9335 169.517 16.1033 169.517 13C169.517 9.89764 167.464 8.06743 163.982 8.06743H161.615ZM141.963 20.813H138.749V5.18793H145.981C147.633 5.18793 148.949 5.61229 149.909 6.48236C150.87 7.33107 151.361 8.44721 151.361 9.8085C151.361 11.8848 150.156 13.5135 148.124 14.1384L152.945 20.813H149.218L144.664 14.4959H141.963V20.813ZM141.963 8.00057V11.7947H145.802C147.254 11.7947 148.124 11.1261 148.124 9.89764C148.124 8.71464 147.254 8.00057 145.802 8.00057H141.963ZM120.232 20.8121H116.863L123.559 5.09786H126.639L133.335 20.8121H129.92L128.38 17.1962H121.773L120.232 20.8121ZM125.077 9.11579L122.778 14.5396H127.354L125.077 9.11579ZM106.753 20.813H98.8966V5.18793H106.241C109.097 5.18793 110.973 6.59379 110.973 9.09443C110.973 10.6786 110.079 11.7501 109.008 12.1968C109.879 12.3751 110.615 12.844 111.24 13.5804C111.865 14.3176 112.178 15.2332 112.178 16.3707C112.178 17.6874 111.687 18.759 110.704 19.5854C109.723 20.4119 108.405 20.813 106.753 20.813ZM102.11 13.9601V18.0459H106.151C107.736 18.0459 108.696 17.3309 108.696 16.0141C108.696 14.6965 107.736 13.9601 106.151 13.9601H102.11ZM102.11 7.86686V11.3044H105.727C107.066 11.3044 107.869 10.6786 107.869 9.60793C107.869 8.51407 107.066 7.86686 105.727 7.86686H102.11ZM79.885 20.813H76.6721V5.18793H79.8636L84.3951 11.661L88.9265 5.18793H92.0957V20.813H88.9256V10.1205L85.332 15.1441H83.5464L79.8859 10.1205L79.885 20.813ZM58.8594 16.6604C59.774 17.6206 60.9347 18.1118 62.3192 18.1118C63.7028 18.1118 64.8412 17.6206 65.7568 16.6604C66.6714 15.7012 67.1404 14.4727 67.1404 13C67.1404 11.5273 66.6714 10.2988 65.7568 9.33957C64.8412 8.37943 63.7028 7.88821 62.3192 7.88821C60.9356 7.88821 59.7749 8.37943 58.8594 9.33957C57.9429 10.2979 57.4971 11.5273 57.4971 13C57.4971 14.4727 57.9438 15.7012 58.8594 16.6604ZM54.2165 13C54.2165 10.7231 54.9751 8.80286 56.5156 7.241C58.0552 5.65593 59.9978 4.875 62.3192 4.875C64.6406 4.875 66.56 5.65593 68.1005 7.241C69.6401 8.80379 70.4219 10.7231 70.4219 13C70.4219 15.2546 69.6401 17.1739 68.1005 18.759C66.56 20.3441 64.6406 21.125 62.3192 21.125C59.9978 21.125 58.0552 20.3441 56.5156 18.759C54.9751 17.1739 54.2165 15.2546 54.2165 13ZM50.1382 20.813H39V5.18793H42.2147V17.9335H50.1382V20.813Z" fill="black"/>
</svg>
