<svg width="148" height="26" viewBox="0 0 148 26" fill="none" xmlns="http://www.w3.org/2000/svg">
<path d="M48.4783 5.10178L50.7011 19.9478H50.7483L58.9588 5.10178H62.0151L58.4809 22.3658H56.3637L59.759 7.254H59.7117L51.2568 22.3658H49.1396L46.9779 7.254H46.9307L44.0327 22.3658H41.9155L45.3942 5.10178H48.4783Z" fill="#202020"/>
<path d="M63.243 11.8444C63.5529 11.3473 63.9519 10.9167 64.4183 10.5762C64.8985 10.2309 65.4337 9.97658 65.9992 9.8251C66.5998 9.66284 67.2181 9.58224 67.8386 9.58532C68.3973 9.58212 68.9552 9.63046 69.5057 9.72977C69.994 9.81258 70.4644 9.98472 70.8949 10.2382C71.2926 10.4718 71.6256 10.8081 71.8618 11.2147C72.1169 11.6906 72.2419 12.2301 72.223 12.7747C72.2191 13.1634 72.1763 13.5507 72.0952 13.9302C72.0091 14.3404 71.9285 14.716 71.8507 15.054L71.0811 18.4629C71.0366 18.7229 70.9699 19.0118 70.8838 19.3295C70.8025 19.6286 70.7595 19.9375 70.756 20.2482C70.7342 20.4639 70.7929 20.68 70.9199 20.852C70.9745 20.9093 71.0401 20.954 71.1123 20.9834C71.1846 21.0127 71.262 21.026 71.3395 21.0224C71.4465 21.0196 71.5525 20.9992 71.6534 20.9618L71.9674 20.852L71.6646 22.3744C71.4713 22.4513 71.2724 22.5121 71.07 22.5564C70.868 22.6083 70.6611 22.6364 70.4531 22.6402C70.2285 22.6572 70.0029 22.625 69.791 22.5459C69.579 22.4668 69.3853 22.3425 69.2223 22.1809C69.0775 22.0077 68.9729 21.8022 68.9165 21.5803C68.8602 21.3584 68.8536 21.1261 68.8972 20.9011L68.8499 20.852C68.4428 21.4209 67.9075 21.8772 67.2912 22.1809C66.5117 22.5189 65.6706 22.6756 64.8267 22.6402C64.3443 22.6449 63.8633 22.5847 63.3958 22.4611C62.9703 22.3524 62.5748 22.143 62.2399 21.8494C61.9049 21.5558 61.6397 21.1858 61.4647 20.7682C61.2629 20.2505 61.1682 19.6943 61.1869 19.136C61.1869 18.2173 61.3758 17.498 61.7426 16.9838C62.1217 16.4635 62.6257 16.0561 63.2041 15.8022C63.8246 15.527 64.4794 15.3442 65.149 15.2591C65.8621 15.1609 66.5521 15.08 67.219 15.0164C67.7469 14.9673 68.1998 14.9153 68.5804 14.8575C68.9073 14.8147 69.2254 14.7171 69.5223 14.5687C69.7621 14.4537 69.9578 14.2584 70.078 14.014C70.2083 13.7009 70.2681 13.361 70.2531 13.0202C70.2665 12.7272 70.1843 12.438 70.0197 12.1998C69.8662 11.9891 69.6673 11.8189 69.439 11.7029C69.1934 11.5779 68.9312 11.4922 68.661 11.4487C68.3853 11.4024 68.1067 11.3783 67.8275 11.3764C67.4539 11.3759 67.0814 11.4166 66.7161 11.4978C66.3673 11.5723 66.0329 11.7071 65.7269 11.8964C65.4369 12.0775 65.1839 12.316 64.9823 12.5984C64.7729 12.9069 64.6393 13.2639 64.5933 13.6384H62.6178C62.6964 12.9998 62.9099 12.3872 63.243 11.8444ZM63.7987 20.4158C64.2476 20.7092 64.7688 20.8608 65.299 20.852C66.8661 20.852 67.9905 20.3041 68.6721 19.2082C68.992 18.7541 69.2173 18.2356 69.3334 17.6858C69.4501 17.1369 69.5779 16.5707 69.7196 15.9929H69.6724C69.3541 16.218 68.9931 16.3697 68.6138 16.4378C68.1636 16.5308 67.7092 16.6002 67.2523 16.6458C66.7716 16.692 66.2882 16.7527 65.7992 16.8249C65.3491 16.8873 64.9079 17.0056 64.4849 17.1773C64.1187 17.3235 63.7918 17.5594 63.5319 17.8649C63.2651 18.2196 63.1256 18.6599 63.1374 19.11C63.1263 19.3682 63.1821 19.6248 63.2989 19.8529C63.4157 20.0811 63.5892 20.2724 63.8014 20.4071L63.7987 20.4158Z" fill="#202020"/>
<path d="M75.0928 17.8215C75.0857 18.2672 75.173 18.7091 75.3485 19.1158C75.5093 19.4806 75.7478 19.8026 76.0459 20.0575C76.344 20.3098 76.6826 20.5054 77.0461 20.6353C77.4202 20.7718 77.8139 20.8411 78.2103 20.8404C78.982 20.8721 79.7444 20.6563 80.3942 20.2222C80.9886 19.7818 81.4363 19.1598 81.6751 18.4427H83.6506C83.513 19.0938 83.2605 19.7129 82.9059 20.2684C82.5785 20.7805 82.1609 21.2235 81.6751 21.5742C81.1848 21.9259 80.6422 22.1913 80.0691 22.36C79.4649 22.5403 78.8389 22.6298 78.2103 22.6258C77.3613 22.6549 76.5161 22.4943 75.7319 22.1549C75.1271 21.8817 74.5902 21.4688 74.162 20.9473C73.7838 20.4729 73.5063 19.9205 73.348 19.3267C73.1978 18.7719 73.1202 18.1985 73.1173 17.6222C73.105 16.5087 73.2741 15.401 73.6175 14.3462C73.9151 13.4184 74.3717 12.5542 74.965 11.7953C75.5047 11.1068 76.179 10.5455 76.9433 10.1487C77.6754 9.76695 78.4833 9.56906 79.3022 9.57087C81.0694 9.57087 82.3604 10.0524 83.1755 11.0153C83.9905 11.9783 84.3971 13.3399 84.3952 15.1002C84.3969 15.4079 84.3736 15.7152 84.3257 16.0189C84.2794 16.3097 84.2405 16.5437 84.2091 16.7209H75.1512C75.1072 17.0859 75.0877 17.4537 75.0928 17.8215ZM82.3363 13.624C82.2594 13.2161 82.1014 12.8294 81.8723 12.4887C81.6418 12.1536 81.338 11.8803 80.986 11.6913C80.5575 11.4815 80.0867 11.3824 79.6134 11.4024C79.0846 11.3963 78.5595 11.4943 78.0658 11.6913C77.6246 11.857 77.216 12.1046 76.86 12.4222C76.5178 12.7467 76.228 13.1261 76.0014 13.546C75.7673 13.9783 75.5809 14.4366 75.4457 14.9124H82.4225C82.4517 14.4809 82.4227 14.0472 82.3363 13.624Z" fill="#202020"/>
<path d="M90.7107 5.10178L87.232 22.3658H85.2871L88.7519 5.10178H90.7107Z" fill="#202020"/>
<path d="M97.6296 11.934C97.1023 11.5606 96.4753 11.3695 95.8375 11.388C95.5343 11.3896 95.2316 11.4137 94.9317 11.4602C94.6432 11.5008 94.3621 11.5865 94.0982 11.7144C93.8685 11.8281 93.6662 11.994 93.5064 12.1998C93.3432 12.4256 93.2607 12.7034 93.273 12.9855C93.2698 13.2628 93.3693 13.5306 93.5508 13.7338C93.7575 13.9674 94.0008 14.1627 94.2705 14.3115C94.5993 14.5026 94.941 14.6687 95.2929 14.8084C95.6736 14.9615 96.057 15.1175 96.446 15.2793C96.835 15.4411 97.2407 15.6491 97.6185 15.8571C97.9815 16.0542 98.3217 16.2936 98.6327 16.5706C98.9253 16.8368 99.1691 17.1559 99.3523 17.5124C99.5448 17.9057 99.6402 18.3424 99.6302 18.7835C99.6479 19.4073 99.4947 20.0235 99.1884 20.5602C98.9016 21.0442 98.5119 21.4533 98.0492 21.7562C97.567 22.0708 97.0358 22.2957 96.4794 22.4206C95.9033 22.5577 95.3143 22.6265 94.7233 22.6258C94.0753 22.632 93.4285 22.5632 92.7951 22.4206C92.246 22.3051 91.7258 22.073 91.2669 21.7389C90.8305 21.4027 90.4827 20.9576 90.2555 20.4446C89.9888 19.8076 89.8616 19.1169 89.8832 18.4224H91.8282C91.7864 18.8196 91.8559 19.2209 92.0282 19.578C92.1845 19.885 92.4165 20.1433 92.7006 20.3262C93.0086 20.5199 93.3473 20.6549 93.7009 20.7249C94.0951 20.8071 94.4963 20.8477 94.8984 20.8462C95.2265 20.846 95.554 20.8141 95.8764 20.7509C96.1857 20.6913 96.4839 20.5811 96.76 20.4244C97.0139 20.2794 97.2325 20.0758 97.399 19.8293C97.5691 19.566 97.6547 19.2536 97.6435 18.9366C97.6486 18.6478 97.5495 18.3675 97.3657 18.1509C97.1564 17.9191 96.9124 17.724 96.6433 17.5731C96.3194 17.3797 95.9812 17.2136 95.6319 17.0762C95.2513 16.9231 94.8678 16.7584 94.4816 16.5793C94.0954 16.4002 93.687 16.2413 93.3063 16.0478C92.9391 15.864 92.5956 15.633 92.2838 15.3602C91.9871 15.102 91.7417 14.786 91.5614 14.43C91.3736 14.0484 91.2782 13.625 91.2836 13.1964C91.274 12.6537 91.4065 12.1184 91.667 11.648C91.9195 11.1998 92.265 10.8159 92.6784 10.5242C93.1223 10.2104 93.6121 9.97338 94.1287 9.8222C94.6614 9.66167 95.2134 9.58093 95.7681 9.58242C96.3242 9.58115 96.8783 9.65003 97.4185 9.78753C97.9404 9.91293 98.4339 10.1425 98.8716 10.4635C99.305 10.785 99.6599 11.2074 99.908 11.6971C100.186 12.2695 100.321 12.9051 100.303 13.546H98.327C98.3606 13.2369 98.3135 12.9242 98.1908 12.6406C98.0681 12.357 97.8743 12.1129 97.6296 11.934Z" fill="#202020"/>
<path d="M108.791 9.86555L108.419 11.6798H106.023L104.534 19.0291C104.52 19.1736 104.504 19.318 104.49 19.4422C104.473 19.5782 104.464 19.7153 104.465 19.8524C104.452 19.9883 104.48 20.1248 104.545 20.2437C104.61 20.3625 104.708 20.4578 104.826 20.5169C105.087 20.6432 105.372 20.7055 105.659 20.6989C105.855 20.6996 106.049 20.6793 106.24 20.6382C106.428 20.5973 106.614 20.5442 106.796 20.4793L106.449 22.3658L105.751 22.4524C105.518 22.4756 105.284 22.4871 105.054 22.4871C104.703 22.4884 104.353 22.4604 104.006 22.4033C103.706 22.3554 103.418 22.2485 103.156 22.0884C102.917 21.9357 102.718 21.7245 102.575 21.4731C102.418 21.1683 102.342 20.825 102.356 20.4793C102.355 20.3102 102.367 20.1413 102.389 19.9738C102.414 19.812 102.439 19.6358 102.47 19.4422L104.048 11.6798H102.022L102.395 9.86555H104.42L105.159 6.16489H107.138L106.393 9.86555H108.791Z" fill="#202020"/>
<path d="M112.836 9.86554L112.255 12.5493H112.302C112.747 11.7194 113.353 10.9944 114.081 10.4202C114.832 9.8475 115.745 9.55075 116.676 9.57666C116.792 9.57715 116.908 9.56845 117.023 9.55066C117.14 9.53536 117.259 9.54419 117.373 9.57666L116.906 11.7751C116.806 11.7568 116.705 11.749 116.604 11.752H116.326C116.078 11.752 115.876 11.752 115.72 11.752C115.523 11.7676 115.329 11.8044 115.139 11.8618C114.609 11.9994 114.113 12.2547 113.686 12.61C113.251 12.9719 112.876 13.4051 112.575 13.8927C112.299 14.3295 112.089 14.8079 111.952 15.3111C111.8 15.8523 111.676 16.3569 111.58 16.8249L110.438 22.3658H108.493L110.994 9.86554H112.836Z" fill="#202020"/>
<path d="M116.829 14.4849C117.113 13.5665 117.563 12.7127 118.154 11.9687C118.736 11.2443 119.457 10.654 120.271 10.2354C121.15 9.78765 122.119 9.56386 123.097 9.58246C124.725 9.58246 125.965 10.0216 126.817 10.8998C127.67 11.778 128.096 13.0636 128.096 14.7565C128.101 15.7551 127.955 16.7484 127.665 17.7002C127.382 18.6187 126.936 19.4741 126.351 20.2222C125.779 20.9533 125.065 21.55 124.256 21.9729C123.381 22.4208 122.416 22.6447 121.441 22.6258C120.72 22.6386 120.004 22.5092 119.329 22.2445C118.734 22.0132 118.193 21.6504 117.745 21.1811C117.297 20.7118 116.952 20.1472 116.734 19.526C116.498 18.8564 116.38 18.1477 116.387 17.4345C116.381 16.433 116.53 15.437 116.829 14.4849ZM119.188 19.9016C119.743 20.5294 120.566 20.8434 121.655 20.8434C122.336 20.8588 123.005 20.6572 123.572 20.2656C124.123 19.8774 124.595 19.3808 124.961 18.8038C125.342 18.2126 125.633 17.5636 125.823 16.8798C126.009 16.2446 126.107 15.5851 126.114 14.9211C126.116 14.4549 126.053 13.9909 125.928 13.5431C125.814 13.1312 125.617 12.7492 125.35 12.4222C125.077 12.1009 124.739 11.8456 124.361 11.674C123.917 11.4734 123.437 11.3748 122.953 11.3851C122.246 11.3689 121.551 11.5699 120.955 11.9629C120.384 12.3453 119.894 12.8435 119.513 13.4276C119.122 14.0217 118.827 14.6785 118.64 15.3718C118.458 16.0293 118.365 16.7098 118.362 17.394C118.314 18.309 118.609 19.2078 119.185 19.9016H119.188Z" fill="#202020"/>
<path d="M133.141 9.86555L132.697 11.726L132.744 11.7751C133.243 11.1084 133.874 10.5607 134.595 10.1689C135.314 9.77378 136.117 9.57031 136.931 9.57666C137.612 9.55756 138.284 9.73239 138.876 10.0822C139.162 10.2766 139.405 10.5315 139.589 10.8302C139.773 11.1289 139.895 11.4646 139.946 11.8156C140.417 11.1331 141.034 10.5743 141.749 10.1833C142.459 9.77991 143.255 9.56832 144.064 9.56799C144.478 9.5677 144.892 9.62009 145.294 9.72399C145.678 9.8198 146.044 9.98295 146.375 10.2064C146.692 10.4257 146.952 10.7235 147.131 11.0731C147.327 11.4773 147.423 11.9263 147.409 12.3789C147.404 12.8014 147.365 13.2228 147.292 13.6384C147.214 14.1064 147.137 14.5051 147.059 14.872L145.558 22.3658H143.583L145.25 14.4358C145.297 14.2422 145.339 14.0111 145.378 13.7453C145.413 13.5256 145.432 13.3036 145.436 13.0809C145.441 12.8519 145.396 12.6247 145.306 12.4159C145.216 12.207 145.082 12.0217 144.914 11.8733C144.551 11.5445 144.081 11.3711 143.6 11.388C143.316 11.3917 143.035 11.4404 142.766 11.5324C142.477 11.6292 142.198 11.7549 141.933 11.908C141.668 12.0628 141.419 12.2457 141.191 12.454C140.968 12.6496 140.765 12.8683 140.585 13.1069C140.26 13.4752 140.015 13.9116 139.865 14.3867C139.705 14.8868 139.572 15.3961 139.468 15.912L138.14 22.3658H136.164L137.606 15.2331C137.715 14.7507 137.804 14.3 137.884 13.8782C137.938 13.5989 137.973 13.3161 137.99 13.0318C138.002 12.8105 137.97 12.589 137.896 12.3812C137.822 12.1734 137.707 11.9838 137.559 11.8242C137.39 11.6699 137.192 11.5519 136.979 11.477C136.765 11.4021 136.539 11.3719 136.314 11.388C135.743 11.3962 135.185 11.5638 134.697 11.8733C134.192 12.1698 133.737 12.5504 133.35 13C132.976 13.351 132.681 13.7843 132.488 14.2682C132.311 14.7766 132.171 15.2981 132.069 15.8282L130.721 22.3658H128.776L131.31 9.86555H133.141Z" fill="#202020"/>
<path d="M6.30888 0L0.410156 26H8.7345L14.6305 0H6.30888Z" fill="#202020"/>
<path d="M16.928 0L11.0293 26H19.3536L25.2524 0H16.928Z" fill="#202020"/>
<path d="M27.5477 0L21.6489 26H29.9733L35.872 0H27.5477Z" fill="#202020"/>
</svg>
