<?xml version="1.0" encoding="UTF-8"?>
<svg xmlns="http://www.w3.org/2000/svg" xmlns:xlink="http://www.w3.org/1999/xlink" width="122px" height="32px" viewBox="0 0 120 32" version="1.1">
<g id="surface1">
<path style=" stroke:none;fill-rule:nonzero;fill:rgb(0%,0%,0%);fill-opacity:1;" d="M 44.316406 10.953125 L 40.109375 10.953125 L 40.109375 21.046875 L 42.28125 21.046875 L 42.28125 13.140625 L 42.902344 13.140625 L 46.371094 21.046875 L 48.742188 21.046875 Z M 44.316406 10.953125 "/>
<path style=" stroke:none;fill-rule:nonzero;fill:rgb(0%,0%,0%);fill-opacity:1;" d="M 82.207031 21.046875 L 84.378906 21.046875 L 84.378906 10.953125 L 82.207031 10.953125 Z M 82.207031 21.046875 "/>
<path style=" stroke:none;fill-rule:nonzero;fill:rgb(0%,0%,0%);fill-opacity:1;" d="M 53.167969 10.953125 L 48.742188 21.046875 L 51.121094 21.046875 L 54.585938 13.140625 L 55.207031 13.140625 L 55.207031 21.046875 L 57.378906 21.046875 L 57.378906 10.953125 Z M 53.167969 10.953125 "/>
<path style=" stroke:none;fill-rule:nonzero;fill:rgb(0%,0%,0%);fill-opacity:1;" d="M 67.085938 10.953125 L 63.117188 10.953125 L 58.6875 21.046875 L 61.0625 21.046875 L 62.503906 17.757812 L 67.699219 17.757812 L 69.140625 21.046875 L 71.511719 21.046875 Z M 63.464844 15.570312 L 64.53125 13.140625 L 65.671875 13.140625 L 66.738281 15.570312 Z M 63.464844 15.570312 "/>
<path style=" stroke:none;fill-rule:nonzero;fill:rgb(0%,0%,0%);fill-opacity:1;" d="M 77.78125 10.953125 L 72.769531 10.953125 L 72.769531 21.046875 L 74.9375 21.046875 L 74.9375 13.140625 L 76.367188 13.140625 L 79.835938 21.046875 L 82.207031 21.046875 Z M 77.78125 10.953125 "/>
<path style=" stroke:none;fill-rule:nonzero;fill:rgb(0%,0%,0%);fill-opacity:1;" d="M 85.582031 10.953125 L 85.582031 13.140625 L 90.648438 13.140625 L 90.648438 21.046875 L 92.820312 21.046875 L 92.820312 13.140625 L 97.886719 13.140625 L 97.886719 10.953125 Z M 85.582031 10.953125 "/>
<path style=" stroke:none;fill-rule:nonzero;fill:rgb(0%,0%,0%);fill-opacity:1;" d="M 101.261719 10.953125 L 99.089844 10.953125 L 99.089844 21.046875 L 108.539062 21.046875 L 108.539062 18.859375 L 101.261719 18.859375 Z M 101.261719 10.953125 "/>
<path style=" stroke:none;fill-rule:nonzero;fill:rgb(0%,0%,0%);fill-opacity:1;" d="M 119.996094 13.140625 L 119.996094 10.953125 L 109.746094 10.953125 L 109.746094 21.046875 L 119.996094 21.046875 L 119.996094 18.859375 L 111.914062 18.859375 L 111.914062 16.949219 L 118.921875 16.949219 L 118.921875 14.761719 L 111.914062 14.761719 L 111.914062 13.140625 Z M 119.996094 13.140625 "/>
<path style=" stroke:none;fill-rule:nonzero;fill:rgb(0%,0%,0%);fill-opacity:1;" d="M 6.539062 11.21875 L 1.726562 8.75 C 1.347656 9.496094 1.027344 10.277344 0.773438 11.074219 L 5.914062 12.75 C 6.082031 12.226562 6.292969 11.710938 6.539062 11.21875 Z M 6.539062 11.21875 "/>
<path style=" stroke:none;fill-rule:nonzero;fill:rgb(0%,0%,0%);fill-opacity:1;" d="M 10.628906 6.867188 L 13.296875 11.496094 C 13.6875 11.269531 14.105469 11.09375 14.535156 10.976562 L 13.15625 5.808594 C 13.507812 5.714844 13.867188 5.632812 14.226562 5.578125 L 13.378906 0.199219 C 12.558594 0.328125 11.742188 0.527344 10.953125 0.785156 L 12.601562 5.882812 C 12.078125 6.054688 11.566406 6.269531 11.074219 6.523438 L 8.652344 1.753906 C 7.914062 2.132812 7.199219 2.578125 6.53125 3.070312 L 9.71875 7.46875 C 10.011719 7.25 10.316406 7.050781 10.628906 6.867188 Z M 10.628906 6.867188 "/>
<path style=" stroke:none;fill-rule:nonzero;fill:rgb(0%,0%,0%);fill-opacity:1;" d="M 24.945312 10.703125 L 20.351562 13.390625 C 20.574219 13.785156 20.75 14.207031 20.867188 14.640625 L 25.996094 13.246094 C 26.09375 13.597656 26.171875 13.957031 26.226562 14.320312 L 31.566406 13.464844 C 31.4375 12.636719 31.238281 11.816406 30.980469 11.023438 L 25.925781 12.6875 C 25.753906 12.15625 25.539062 11.640625 25.289062 11.148438 L 30.023438 8.699219 C 29.644531 7.960938 29.207031 7.238281 28.714844 6.566406 L 24.355469 9.777344 C 24.5625 10.078125 24.761719 10.386719 24.945312 10.703125 Z M 24.945312 10.703125 "/>
<path style=" stroke:none;fill-rule:nonzero;fill:rgb(0%,0%,0%);fill-opacity:1;" d="M 23.070312 1.730469 C 22.332031 1.347656 21.554688 1.027344 20.765625 0.769531 L 19.105469 5.949219 C 19.621094 6.121094 20.132812 6.332031 20.625 6.582031 Z M 23.070312 1.730469 "/>
<path style=" stroke:none;fill-rule:nonzero;fill:rgb(0%,0%,0%);fill-opacity:1;" d="M 21.148438 6.773438 L 18.453125 11.492188 C 18.84375 11.71875 19.203125 11.996094 19.523438 12.316406 L 27.085938 4.667969 C 26.5 4.074219 25.859375 3.527344 25.195312 3.039062 L 22.074219 7.375 C 21.777344 7.15625 21.472656 6.953125 21.148438 6.773438 Z M 21.148438 6.773438 "/>
<path style=" stroke:none;fill-rule:nonzero;fill:rgb(0%,0%,0%);fill-opacity:1;" d="M 6.726562 10.6875 L 11.40625 13.40625 C 11.628906 13.015625 11.90625 12.648438 12.226562 12.324219 L 4.640625 4.699219 C 4.050781 5.289062 3.507812 5.933594 3.023438 6.605469 L 7.324219 9.753906 C 7.113281 10.054688 6.910156 10.367188 6.726562 10.6875 Z M 6.726562 10.6875 "/>
<path style=" stroke:none;fill-rule:nonzero;fill:rgb(0%,0%,0%);fill-opacity:1;" d="M 17.519531 5.484375 L 18.335938 0.191406 C 17.527344 0.0664062 16.703125 0 15.878906 0 L 15.867188 0 L 15.867188 10.800781 L 15.878906 10.800781 C 16.328125 10.800781 16.78125 10.855469 17.210938 10.972656 L 18.597656 5.710938 C 18.242188 5.613281 17.886719 5.542969 17.519531 5.484375 Z M 17.519531 5.484375 "/>
<path style=" stroke:none;fill-rule:nonzero;fill:rgb(0%,0%,0%);fill-opacity:1;" d="M 10.894531 14.660156 L 5.671875 13.257812 C 5.578125 13.613281 5.503906 13.980469 5.445312 14.34375 L 0.191406 13.515625 C 0.0664062 14.332031 0.00390625 15.167969 0.00390625 16 L 10.722656 16 C 10.722656 15.542969 10.78125 15.09375 10.894531 14.660156 Z M 10.894531 14.660156 "/>
<path style=" stroke:none;fill-rule:nonzero;fill:rgb(0%,0%,0%);fill-opacity:1;" d="M 25.226562 20.78125 L 30.042969 23.25 C 30.421875 22.503906 30.738281 21.722656 30.996094 20.925781 L 25.851562 19.25 C 25.683594 19.773438 25.476562 20.289062 25.226562 20.78125 Z M 25.226562 20.78125 "/>
<path style=" stroke:none;fill-rule:nonzero;fill:rgb(0%,0%,0%);fill-opacity:1;" d="M 21.132812 25.128906 L 18.46875 20.5 C 18.078125 20.726562 17.660156 20.902344 17.230469 21.019531 L 18.609375 26.1875 C 18.257812 26.28125 17.902344 26.363281 17.539062 26.417969 L 18.386719 31.796875 C 19.207031 31.667969 20.023438 31.46875 20.8125 31.210938 L 19.164062 26.113281 C 19.691406 25.941406 20.199219 25.726562 20.691406 25.472656 L 23.117188 30.242188 C 23.851562 29.859375 24.566406 29.417969 25.234375 28.925781 L 22.050781 24.527344 C 21.757812 24.75 21.453125 24.949219 21.132812 25.128906 Z M 21.132812 25.128906 "/>
<path style=" stroke:none;fill-rule:nonzero;fill:rgb(0%,0%,0%);fill-opacity:1;" d="M 6.820312 21.296875 L 11.417969 18.609375 C 11.191406 18.214844 11.015625 17.792969 10.898438 17.359375 L 5.769531 18.753906 C 5.671875 18.402344 5.597656 18.042969 5.539062 17.679688 L 0.199219 18.535156 C 0.328125 19.363281 0.527344 20.183594 0.789062 20.976562 L 5.839844 19.3125 C 6.015625 19.839844 6.226562 20.359375 6.476562 20.851562 L 1.746094 23.300781 C 2.121094 24.039062 2.5625 24.761719 3.050781 25.433594 L 7.414062 22.222656 C 7.203125 21.921875 7.007812 21.613281 6.820312 21.296875 Z M 6.820312 21.296875 "/>
<path style=" stroke:none;fill-rule:nonzero;fill:rgb(0%,0%,0%);fill-opacity:1;" d="M 8.695312 30.269531 C 9.433594 30.652344 10.210938 30.972656 11.003906 31.230469 L 12.664062 26.050781 C 12.144531 25.878906 11.632812 25.667969 11.144531 25.417969 Z M 8.695312 30.269531 "/>
<path style=" stroke:none;fill-rule:nonzero;fill:rgb(0%,0%,0%);fill-opacity:1;" d="M 10.613281 25.226562 L 13.3125 20.507812 C 12.921875 20.28125 12.558594 20.003906 12.242188 19.683594 L 4.675781 27.332031 C 5.261719 27.925781 5.902344 28.472656 6.570312 28.960938 L 9.6875 24.625 C 9.984375 24.839844 10.296875 25.039062 10.613281 25.226562 Z M 10.613281 25.226562 "/>
<path style=" stroke:none;fill-rule:nonzero;fill:rgb(0%,0%,0%);fill-opacity:1;" d="M 25.039062 21.3125 L 20.359375 18.59375 C 20.132812 18.984375 19.855469 19.351562 19.539062 19.675781 L 27.128906 27.300781 C 27.714844 26.710938 28.257812 26.066406 28.742188 25.394531 L 24.441406 22.246094 C 24.65625 21.941406 24.855469 21.632812 25.039062 21.3125 Z M 25.039062 21.3125 "/>
<path style=" stroke:none;fill-rule:nonzero;fill:rgb(0%,0%,0%);fill-opacity:1;" d="M 14.554688 21.027344 L 13.164062 26.289062 C 13.519531 26.382812 13.882812 26.457031 14.242188 26.515625 L 13.425781 31.808594 C 14.234375 31.933594 15.058594 32 15.882812 32 L 15.894531 32 L 15.894531 21.199219 L 15.882812 21.199219 C 15.433594 21.199219 14.984375 21.140625 14.554688 21.027344 Z M 14.554688 21.027344 "/>
<path style=" stroke:none;fill-rule:nonzero;fill:rgb(0%,0%,0%);fill-opacity:1;" d="M 21.046875 16 C 21.046875 16.457031 20.988281 16.90625 20.871094 17.339844 L 26.09375 18.742188 C 26.1875 18.386719 26.261719 18.019531 26.320312 17.65625 L 31.574219 18.484375 C 31.699219 17.667969 31.761719 16.832031 31.761719 16 Z M 21.046875 16 "/>
</g>
</svg>
