<svg width="81" height="32" viewBox="0 0 96 38" fill="none" xmlns="http://www.w3.org/2000/svg">
<g clip-path="url(#clip0_7_2)">
<path d="M18.5708 37.1416C28.8272 37.1416 37.1416 28.8272 37.1416 18.5708C37.1416 8.31443 28.8272 0 18.5708 0C8.31443 0 0 8.31443 0 18.5708C0 28.8272 8.31443 37.1416 18.5708 37.1416Z" fill="url(#paint0_radial_7_2)"/>
<path d="M20.9926 34.1426C29.5608 34.1426 36.5067 27.1838 36.5067 18.5996C36.5067 10.0155 29.5608 3.05664 20.9926 3.05664C12.4244 3.05664 5.47852 10.0155 5.47852 18.5996C5.47852 27.1838 12.4244 34.1426 20.9926 34.1426Z" fill="url(#paint1_radial_7_2)"/>
<path d="M18.254 30.1631C24.6722 30.1631 29.8752 24.9731 29.8752 18.5708C29.8752 12.1686 24.6722 6.97852 18.254 6.97852C11.8358 6.97852 6.63281 12.1686 6.63281 18.5708C6.63281 24.9731 11.8358 30.1631 18.254 30.1631Z" fill="url(#paint2_radial_7_2)"/>
<path d="M14.0435 24.6842C17.4039 24.6842 20.128 21.9601 20.128 18.5997C20.128 15.2393 17.4039 12.5151 14.0435 12.5151C10.6831 12.5151 7.95898 15.2393 7.95898 18.5997C7.95898 21.9601 10.6831 24.6842 14.0435 24.6842Z" fill="url(#paint3_radial_7_2)"/>
<path d="M81.6528 17.8257H83.4059L85.6778 24.8382L88.0213 17.8257H89.6313L91.9747 24.8382L94.2466 17.8257H95.9997L93.0123 26.5913H91.134L88.8263 19.883L86.5007 26.5913H84.6403L81.6528 17.8257Z" fill="black"/>
<path d="M77.0395 26.8062C76.1809 26.8062 75.3997 26.6094 74.6961 26.2159C74.0044 25.8223 73.4558 25.2797 73.0503 24.588C72.6568 23.8844 72.46 23.0913 72.46 22.2088C72.46 21.3262 72.6568 20.5391 73.0503 19.8474C73.4558 19.1438 74.0044 18.5952 74.6961 18.2016C75.3997 17.8081 76.1809 17.6113 77.0395 17.6113C77.8863 17.6113 78.6555 17.8081 79.3472 18.2016C80.0509 18.5952 80.6054 19.1438 81.0109 19.8474C81.4164 20.5391 81.6191 21.3262 81.6191 22.2088C81.6191 23.0913 81.4164 23.8844 81.0109 24.588C80.6173 25.2797 80.0687 25.8223 79.3651 26.2159C78.6734 26.6094 77.8982 26.8062 77.0395 26.8062ZM74.1594 22.2088C74.1594 22.7931 74.2787 23.3238 74.5172 23.8009C74.7677 24.266 75.1135 24.6297 75.5548 24.8921C75.996 25.1545 76.491 25.2857 77.0395 25.2857C77.5881 25.2857 78.0771 25.1545 78.5064 24.8921C78.9477 24.6297 79.2936 24.266 79.544 23.8009C79.7944 23.3238 79.9197 22.7931 79.9197 22.2088C79.9197 21.6244 79.7944 21.0997 79.544 20.6345C79.2936 20.1694 78.9477 19.8057 78.5064 19.5433C78.0771 19.269 77.5881 19.1319 77.0395 19.1319C76.491 19.1319 75.996 19.269 75.5548 19.5433C75.1135 19.8057 74.7677 20.1694 74.5172 20.6345C74.2787 21.0997 74.1594 21.6244 74.1594 22.2088Z" fill="black"/>
<path d="M69.79 14.0693H71.4715V26.5916H69.79V14.0693Z" fill="black"/>
<path d="M66.6348 14.0693H68.3164V26.5916H66.6348V14.0693Z" fill="black"/>
<path d="M61.4467 26.8062C60.5881 26.8062 59.8069 26.6094 59.1033 26.2159C58.4116 25.8223 57.863 25.2797 57.4575 24.588C57.0639 23.8844 56.8672 23.0913 56.8672 22.2088C56.8672 21.3262 57.0639 20.5391 57.4575 19.8474C57.8511 19.1438 58.3877 18.5952 59.0675 18.2016C59.7592 17.8081 60.5284 17.6113 61.3752 17.6113C62.21 17.6113 62.9494 17.7902 63.5934 18.148C64.2374 18.5058 64.7383 19.0126 65.0961 19.6685C65.4539 20.3245 65.6327 21.0818 65.6327 21.9404C65.6327 22.2028 65.6208 22.4413 65.597 22.656H58.5845C58.6441 23.455 58.9363 24.111 59.4611 24.6238C59.9977 25.1247 60.6596 25.3751 61.4467 25.3751C62.043 25.3751 62.5678 25.232 63.021 24.9458C63.4741 24.6595 63.7783 24.2958 63.9333 23.8545L65.4717 24.266C65.2332 25.0173 64.7502 25.6315 64.0227 26.1086C63.2953 26.5737 62.4366 26.8062 61.4467 26.8062ZM64.0049 21.3859C63.9452 20.6703 63.6709 20.1038 63.182 19.6864C62.693 19.2571 62.0967 19.0424 61.3931 19.0424C60.6894 19.0424 60.0872 19.2571 59.5863 19.6864C59.0854 20.1038 58.7694 20.6703 58.6382 21.3859H64.0049Z" fill="black"/>
<path d="M42.3428 14.0693H44.4716L48.9438 24.3018L53.3802 14.0693H55.5269V26.5915H53.8811V17.0925L49.6951 26.5915H48.1567L43.9886 17.1283V26.5915H42.3428V14.0693Z" fill="black"/>
</g>
<defs>
<radialGradient id="paint0_radial_7_2" cx="0" cy="0" r="1" gradientUnits="userSpaceOnUse" gradientTransform="translate(18.5708 18.5708) rotate(90) scale(18.5708)">
<stop stop-color="#0E122B"/>
<stop offset="0.252894" stop-color="#131D52"/>
<stop offset="0.608015" stop-color="#2750AA"/>
<stop offset="0.927083" stop-color="#A3EAFF"/>
<stop offset="1" stop-color="white"/>
</radialGradient>
<radialGradient id="paint1_radial_7_2" cx="0" cy="0" r="1" gradientUnits="userSpaceOnUse" gradientTransform="translate(20.9926 18.5996) rotate(90) scale(15.543 15.5141)">
<stop stop-color="#F85F97"/>
<stop offset="0.546875" stop-color="#330E18"/>
<stop offset="1" stop-color="#F00A38"/>
</radialGradient>
<radialGradient id="paint2_radial_7_2" cx="0" cy="0" r="1" gradientUnits="userSpaceOnUse" gradientTransform="translate(18.254 18.5708) rotate(90) scale(11.5923 11.6212)">
<stop stop-color="#23164B"/>
<stop offset="0.489583" stop-color="#15105D"/>
<stop offset="0.939782" stop-color="#2D68C6"/>
<stop offset="1" stop-color="white"/>
</radialGradient>
<radialGradient id="paint3_radial_7_2" cx="0" cy="0" r="1" gradientUnits="userSpaceOnUse" gradientTransform="translate(14.0435 18.5997) rotate(90) scale(6.08454)">
<stop stop-color="#BB2354"/>
<stop offset="0.557292" stop-color="#CE2C65"/>
<stop offset="1" stop-color="#FF94CE"/>
</radialGradient>
<clipPath id="clip0_7_2">
<rect width="96" height="38" fill="white"/>
</clipPath>
</defs>
</svg>
