<svg width="139" height="25" viewBox="0 0 139 25" fill="none" xmlns="http://www.w3.org/2000/svg">
<g clip-path="url(#clip0_7913_1546)">
<path fill-rule="evenodd" clip-rule="evenodd" d="M28.5149 24.5C30.2243 22.0262 31.2268 19.0177 31.2268 15.7728C31.2268 7.33784 24.4529 0.5 16.0968 0.5C7.74072 0.5 0.966797 7.33784 0.966797 15.7728C0.966797 19.0177 1.96932 22.0262 3.6787 24.5C6.41275 20.5433 10.9553 17.9545 16.0968 17.9545C21.2383 17.9545 25.7809 20.5433 28.5149 24.5Z" fill="black"/>
</g>
<g clip-path="url(#clip1_7913_1546)">
<mask id="mask0_7913_1546" style="mask-type:luminance" maskUnits="userSpaceOnUse" x="39" y="6" width="100" height="12">
<path d="M138.967 6.5H39.9668V17.6818H138.967V6.5Z" fill="white"/>
</mask>
<g mask="url(#mask0_7913_1546)">
<path d="M47.2424 17.6819L42.5432 9.0478V17.6819H39.9668V6.50146H44.0027L48.344 14.4078L52.6863 6.50146H56.668V17.6819H54.0738V9.0478L49.389 17.6819H47.2424Z" fill="black"/>
<path d="M64.8268 17.6809H62.1777V6.50049H64.8268V17.6809Z" fill="black"/>
<path d="M69.9998 12.467H77.9811C79.5302 12.467 80.4136 11.7939 80.4136 10.6296C80.4136 9.44743 79.5302 8.77433 77.9811 8.77433H69.9998V6.50049H78.1223C81.0591 6.50049 83.0416 7.91928 83.0416 10.6117C83.0416 12.6122 81.8883 13.943 80.0506 14.4495L83.3504 17.6809H80.3044L77.2584 14.7041H72.6463V17.6809H69.998L69.9998 12.467Z" fill="black"/>
<path d="M94.208 9.13857L89.0374 17.6805H86.209L92.7307 6.5H95.7031L102.225 17.6805H99.3599L94.208 9.13857Z" fill="black"/>
<path d="M119.199 17.6809H116.857L108.407 9.90186V17.6809H105.85V6.50049H108.552L116.623 13.8465V6.50049H119.199V17.6809Z" fill="black"/>
<path d="M130.951 9.13857L125.78 17.6805H122.951L129.473 6.5H132.445L138.968 17.6805H136.103L130.951 9.13857Z" fill="black"/>
</g>
</g>
<defs>
<clipPath id="clip0_7913_1546">
<rect width="31" height="24" fill="white" transform="translate(0.966797 0.5)"/>
</clipPath>
<clipPath id="clip1_7913_1546">
<rect width="99" height="12" fill="white" transform="translate(39.9668 6.5)"/>
</clipPath>
</defs>
</svg>
