<?xml version="1.0" encoding="UTF-8"?>
<svg xmlns="http://www.w3.org/2000/svg" xmlns:xlink="http://www.w3.org/1999/xlink" width="218px" height="62px" viewBox="0 0 218 62" version="1.1">
<g id="surface1">
<path style=" stroke:none;fill-rule:nonzero;fill:rgb(0%,0%,0%);fill-opacity:1;" d="M 0 1.160156 C 2.300781 1.085938 4.601562 1.027344 6.902344 0.992188 C 7.96875 0.976562 9.039062 0.953125 10.105469 0.917969 C 11.136719 0.882812 12.171875 0.863281 13.203125 0.855469 C 13.785156 0.847656 14.367188 0.824219 14.949219 0.796875 C 17.542969 0.796875 17.542969 0.796875 18.652344 1.785156 C 19.261719 2.609375 19.765625 3.449219 20.265625 4.347656 C 20.59375 4.84375 20.929688 5.339844 21.265625 5.832031 C 21.597656 6.335938 21.929688 6.839844 22.257812 7.34375 C 22.433594 7.617188 22.613281 7.886719 22.796875 8.167969 C 23.359375 9.023438 23.921875 9.878906 24.480469 10.738281 C 25.042969 11.597656 25.605469 12.453125 26.167969 13.3125 C 26.515625 13.84375 26.863281 14.371094 27.210938 14.902344 C 28.1875 16.394531 29.191406 17.863281 30.21875 19.320312 C 30.855469 20.230469 31.472656 21.152344 32.085938 22.078125 C 32.207031 22.261719 32.328125 22.445312 32.453125 22.632812 C 32.707031 23.015625 32.960938 23.394531 33.210938 23.777344 C 33.796875 24.65625 34.378906 25.535156 34.964844 26.414062 C 35.078125 26.589844 35.195312 26.765625 35.316406 26.945312 C 38.652344 31.960938 42.007812 36.960938 45.378906 41.953125 C 47.410156 44.960938 49.433594 47.972656 51.441406 50.996094 C 51.949219 51.761719 52.460938 52.527344 52.96875 53.292969 C 53.3125 53.808594 53.660156 54.328125 54.003906 54.847656 C 54.507812 55.605469 55.023438 56.359375 55.539062 57.109375 C 55.675781 57.308594 55.808594 57.503906 55.949219 57.707031 C 56.207031 58.085938 56.46875 58.460938 56.730469 58.835938 C 57.394531 59.808594 57.613281 60.207031 57.613281 61.421875 C 55.53125 61.4375 53.449219 61.4375 51.363281 61.425781 C 50.082031 61.417969 48.800781 61.429688 47.519531 61.449219 C 46.632812 61.460938 45.742188 61.460938 44.855469 61.457031 C 44.425781 61.457031 43.992188 61.460938 43.5625 61.472656 C 40.179688 61.554688 40.179688 61.554688 39.027344 60.609375 C 38.484375 59.847656 38.066406 59.0625 37.636719 58.234375 C 37.210938 57.582031 36.777344 56.9375 36.339844 56.296875 C 36.097656 55.9375 35.859375 55.574219 35.621094 55.210938 C 32.382812 50.332031 29.117188 45.472656 25.839844 40.617188 C 23.480469 37.121094 21.132812 33.617188 18.800781 30.101562 C 17.644531 28.363281 16.480469 26.632812 15.3125 24.90625 C 11.699219 19.5625 8.101562 14.214844 4.542969 8.832031 C 4.167969 8.269531 3.796875 7.707031 3.421875 7.140625 C 2.898438 6.355469 2.378906 5.570312 1.859375 4.78125 C 1.625 4.429688 1.625 4.429688 1.386719 4.074219 C 1.175781 3.75 1.175781 3.75 0.960938 3.421875 C 0.835938 3.234375 0.714844 3.050781 0.585938 2.855469 C 0.277344 2.292969 0.125 1.785156 0 1.160156 Z M 0 1.160156 "/>
<path style=" stroke:none;fill-rule:nonzero;fill:rgb(74.117647%,15.294118%,20.392157%);fill-opacity:1;" d="M 35.609375 0.289062 C 38.550781 0.28125 41.488281 0.277344 44.425781 0.273438 C 45.792969 0.273438 47.15625 0.269531 48.519531 0.269531 C 49.835938 0.265625 51.152344 0.261719 52.46875 0.261719 C 52.972656 0.261719 53.476562 0.261719 53.980469 0.257812 C 54.679688 0.257812 55.382812 0.257812 56.085938 0.257812 C 56.296875 0.253906 56.503906 0.253906 56.722656 0.253906 C 58.160156 0.257812 58.160156 0.257812 58.480469 0.578125 C 58.507812 1.011719 58.515625 1.445312 58.515625 1.878906 C 58.515625 2.300781 58.515625 2.300781 58.515625 2.730469 C 58.515625 3.195312 58.515625 3.195312 58.511719 3.671875 C 58.511719 3.996094 58.515625 4.320312 58.515625 4.65625 C 58.511719 5.734375 58.511719 6.816406 58.507812 7.894531 C 58.507812 8.640625 58.507812 9.390625 58.507812 10.136719 C 58.507812 11.902344 58.503906 13.671875 58.5 15.441406 C 58.5 17.453125 58.496094 19.464844 58.496094 21.476562 C 58.492188 25.617188 58.488281 29.757812 58.480469 33.898438 C 57.523438 33.722656 57.359375 33.652344 56.707031 32.851562 C 56.46875 32.496094 56.234375 32.136719 56 31.777344 C 55.722656 31.355469 55.441406 30.9375 55.160156 30.515625 C 55 30.273438 54.84375 30.035156 54.679688 29.785156 C 53.714844 28.332031 52.730469 26.894531 51.75 25.449219 C 51.386719 24.914062 51.019531 24.375 50.65625 23.835938 C 49.457031 22.066406 48.257812 20.300781 47.046875 18.542969 C 45.019531 15.601562 43.015625 12.644531 41.015625 9.6875 C 40.316406 8.644531 39.609375 7.609375 38.898438 6.574219 C 38.566406 6.085938 38.234375 5.597656 37.902344 5.109375 C 37.492188 4.5 37.078125 3.898438 36.664062 3.296875 C 36.390625 2.890625 36.390625 2.890625 36.113281 2.480469 C 35.949219 2.246094 35.789062 2.007812 35.625 1.765625 C 35.523438 1.566406 35.421875 1.367188 35.320312 1.160156 C 35.414062 0.871094 35.511719 0.585938 35.609375 0.289062 Z M 35.609375 0.289062 "/>
<path style=" stroke:none;fill-rule:nonzero;fill:rgb(0.392157%,0.392157%,0.392157%);fill-opacity:1;" d="M 0 29.839844 C 0.9375 30.011719 1.117188 30.082031 1.761719 30.859375 C 1.980469 31.183594 2.195312 31.511719 2.40625 31.839844 C 2.585938 32.105469 2.585938 32.105469 2.765625 32.375 C 3.15625 32.957031 3.542969 33.546875 3.925781 34.132812 C 4.199219 34.542969 4.472656 34.953125 4.746094 35.363281 C 5.304688 36.203125 5.863281 37.042969 6.421875 37.886719 C 7.5 39.507812 8.59375 41.117188 9.6875 42.726562 C 10.25 43.558594 10.8125 44.386719 11.375 45.214844 C 12.429688 46.773438 13.488281 48.328125 14.542969 49.882812 C 15.355469 51.078125 16.167969 52.277344 16.976562 53.472656 C 17.769531 54.644531 18.5625 55.808594 19.367188 56.972656 C 19.691406 57.449219 20.015625 57.921875 20.339844 58.398438 C 20.484375 58.605469 20.632812 58.816406 20.785156 59.035156 C 21.117188 59.523438 21.417969 60.035156 21.714844 60.550781 C 21.570312 60.980469 21.570312 60.980469 21.421875 61.421875 C 18.671875 61.425781 15.921875 61.433594 13.171875 61.4375 C 11.894531 61.4375 10.617188 61.4375 9.339844 61.441406 C 8.109375 61.445312 6.878906 61.449219 5.648438 61.449219 C 5.175781 61.449219 4.703125 61.449219 4.234375 61.453125 C 3.578125 61.453125 2.917969 61.453125 2.261719 61.453125 C 1.699219 61.453125 1.699219 61.453125 1.125 61.457031 C 0.289062 61.421875 0.289062 61.421875 0 61.128906 C -0.0273438 60.722656 -0.0351562 60.316406 -0.0351562 59.90625 C -0.0351562 59.644531 -0.0351562 59.378906 -0.0351562 59.109375 C -0.0351562 58.816406 -0.0351562 58.527344 -0.03125 58.226562 C -0.03125 57.921875 -0.03125 57.613281 -0.03125 57.300781 C -0.03125 56.285156 -0.03125 55.273438 -0.0273438 54.257812 C -0.0273438 53.558594 -0.0273438 52.855469 -0.0273438 52.15625 C -0.0273438 50.304688 -0.0234375 48.457031 -0.0195312 46.605469 C -0.015625 44.71875 -0.015625 42.835938 -0.015625 40.949219 C -0.0117188 37.246094 -0.0078125 33.542969 0 29.839844 Z M 0 29.839844 "/>
<path style=" stroke:none;fill-rule:nonzero;fill:rgb(1.568627%,1.568627%,1.568627%);fill-opacity:1;" d="M 134.621094 0.578125 C 136.9375 0.578125 136.9375 0.578125 137.527344 1.019531 C 137.679688 1.238281 137.832031 1.457031 137.988281 1.683594 C 138.269531 2.078125 138.269531 2.078125 138.558594 2.480469 C 138.667969 2.632812 138.773438 2.789062 138.882812 2.945312 C 139.480469 3.800781 140.109375 4.636719 140.730469 5.472656 C 141.261719 6.191406 141.785156 6.910156 142.3125 7.628906 C 142.917969 8.453125 143.527344 9.277344 144.148438 10.089844 C 144.269531 10.25 144.390625 10.410156 144.519531 10.578125 C 144.839844 10.996094 145.164062 11.414062 145.484375 11.835938 C 145.914062 12.457031 145.914062 12.457031 145.914062 13.039062 C 147.0625 11.945312 148.011719 10.78125 148.953125 9.507812 C 149.171875 9.207031 149.171875 9.207031 149.398438 8.90625 C 151.023438 6.710938 152.617188 4.496094 154.207031 2.273438 C 154.335938 2.097656 154.464844 1.921875 154.597656 1.738281 C 154.703125 1.523438 154.808594 1.3125 154.917969 1.089844 C 155.464844 0.578125 155.464844 0.578125 158.070312 0.578125 C 158.070312 7.941406 158.070312 15.304688 158.070312 22.886719 C 156.542969 22.886719 155.015625 22.886719 153.441406 22.886719 C 152.828125 22.277344 153.074219 20.941406 153.058594 20.097656 C 153.050781 19.847656 153.046875 19.597656 153.039062 19.339844 C 153.019531 18.535156 153.003906 17.734375 152.988281 16.929688 C 152.976562 16.386719 152.960938 15.84375 152.949219 15.300781 C 152.917969 13.96875 152.890625 12.632812 152.859375 11.300781 C 149.714844 15.277344 149.714844 15.277344 146.78125 19.410156 C 145.96875 19.308594 145.660156 19.160156 145.085938 18.558594 C 144.902344 18.316406 144.722656 18.074219 144.539062 17.824219 C 144.335938 17.558594 144.136719 17.292969 143.929688 17.019531 C 143.726562 16.738281 143.519531 16.457031 143.308594 16.171875 C 143.101562 15.894531 142.894531 15.621094 142.683594 15.339844 C 141.859375 14.238281 141.046875 13.144531 140.304688 11.992188 C 139.898438 11.273438 139.898438 11.273438 139.253906 11.007812 C 139.253906 14.929688 139.253906 18.847656 139.253906 22.886719 C 137.726562 22.886719 136.195312 22.886719 134.621094 22.886719 C 134.621094 15.527344 134.621094 8.164062 134.621094 0.578125 Z M 134.621094 0.578125 "/>
<path style=" stroke:none;fill-rule:nonzero;fill:rgb(1.568627%,1.568627%,1.568627%);fill-opacity:1;" d="M 123.730469 2.570312 C 126.359375 4.714844 127.628906 7.640625 128.070312 10.953125 C 128.222656 14.175781 127.097656 17.085938 125.125 19.59375 C 124.152344 20.644531 123.15625 21.367188 121.882812 22.019531 C 121.660156 22.136719 121.433594 22.257812 121.203125 22.378906 C 118.308594 23.675781 114.421875 23.710938 111.425781 22.707031 C 110.695312 22.382812 110.695312 22.382812 110.011719 22.019531 C 109.667969 21.835938 109.667969 21.835938 109.3125 21.644531 C 106.664062 20.054688 105.125 17.699219 104.222656 14.777344 C 103.421875 11.355469 104.039062 7.960938 105.871094 4.960938 C 107.539062 2.675781 109.964844 1.121094 112.691406 0.410156 C 116.710938 -0.195312 120.335938 0.269531 123.730469 2.570312 Z M 110.792969 7.007812 C 109.519531 8.644531 109.046875 10.265625 109.164062 12.332031 C 109.460938 14.585938 110.261719 16.1875 112.0625 17.597656 C 113.597656 18.601562 115.125 19.054688 116.960938 18.832031 C 119.164062 18.265625 120.628906 17.265625 121.882812 15.355469 C 122.847656 13.453125 122.796875 10.871094 122.273438 8.824219 C 121.53125 7.175781 120.214844 5.964844 118.605469 5.175781 C 115.707031 4.242188 112.871094 4.824219 110.792969 7.007812 Z M 110.792969 7.007812 "/>
<path style=" stroke:none;fill-rule:nonzero;fill:rgb(1.568627%,1.568627%,1.568627%);fill-opacity:1;" d="M 191.65625 0.578125 C 204.71875 0.578125 204.71875 0.578125 208.503906 3.714844 C 210.675781 5.96875 211.742188 9.207031 211.691406 12.308594 C 211.4375 15.34375 210.171875 18.109375 207.976562 20.226562 C 203.328125 24.019531 197.320312 22.886719 191.65625 22.886719 C 191.65625 15.527344 191.65625 8.164062 191.65625 0.578125 Z M 196.578125 5.503906 C 196.570312 7.273438 196.5625 9.042969 196.558594 10.8125 C 196.558594 11.414062 196.558594 12.015625 196.554688 12.617188 C 196.550781 13.480469 196.550781 14.34375 196.546875 15.210938 C 196.546875 15.480469 196.546875 15.75 196.542969 16.03125 C 196.542969 16.28125 196.542969 16.527344 196.542969 16.785156 C 196.542969 17.007812 196.542969 17.226562 196.542969 17.453125 C 196.519531 17.972656 196.519531 17.972656 196.867188 18.253906 C 199.21875 18.433594 201.449219 18.265625 203.578125 17.21875 C 205.011719 15.976562 205.988281 14.839844 206.28125 12.917969 C 206.347656 10.636719 206.152344 8.792969 204.558594 7.09375 C 202.832031 5.542969 201.300781 5.421875 199.089844 5.46875 C 198.726562 5.472656 198.726562 5.472656 198.359375 5.476562 C 197.765625 5.484375 197.171875 5.492188 196.578125 5.503906 Z M 196.578125 5.503906 "/>
<path style=" stroke:none;fill-rule:nonzero;fill:rgb(2.745098%,2.745098%,2.745098%);fill-opacity:1;" d="M 79.246094 0.464844 C 80.269531 0.480469 80.457031 0.558594 81.316406 1.226562 C 81.570312 1.519531 81.816406 1.816406 82.058594 2.117188 C 82.191406 2.277344 82.328125 2.433594 82.464844 2.597656 C 82.875 3.078125 83.273438 3.566406 83.667969 4.054688 C 83.890625 4.324219 84.109375 4.597656 84.339844 4.875 C 84.761719 5.394531 85.183594 5.914062 85.605469 6.4375 C 86.558594 7.585938 87.574219 8.671875 88.597656 9.761719 C 89.816406 11.085938 90.933594 12.503906 92.0625 13.90625 C 92.066406 13.742188 92.070312 13.582031 92.074219 13.414062 C 92.105469 11.726562 92.136719 10.039062 92.171875 8.351562 C 92.183594 7.722656 92.195312 7.089844 92.207031 6.460938 C 92.222656 5.558594 92.242188 4.652344 92.261719 3.75 C 92.265625 3.464844 92.269531 3.183594 92.277344 2.890625 C 92.28125 2.628906 92.289062 2.367188 92.292969 2.097656 C 92.296875 1.867188 92.304688 1.636719 92.308594 1.398438 C 92.351562 0.871094 92.351562 0.871094 92.644531 0.578125 C 94.171875 0.578125 95.699219 0.578125 97.273438 0.578125 C 97.273438 7.941406 97.273438 15.304688 97.273438 22.886719 C 94.667969 22.886719 94.667969 22.886719 94.082031 22.503906 C 93.953125 22.320312 93.824219 22.136719 93.691406 21.945312 C 92.859375 20.855469 91.984375 19.835938 91.050781 18.832031 C 90.007812 17.703125 88.984375 16.558594 87.980469 15.394531 C 87.121094 14.421875 86.238281 13.46875 85.351562 12.519531 C 84.644531 11.753906 83.996094 10.976562 83.378906 10.140625 C 83.371094 10.515625 83.363281 10.890625 83.355469 11.277344 C 83.328125 12.667969 83.300781 14.058594 83.269531 15.445312 C 83.257812 16.050781 83.246094 16.652344 83.234375 17.253906 C 83.21875 18.117188 83.199219 18.980469 83.179688 19.84375 C 83.171875 20.25 83.171875 20.25 83.164062 20.664062 C 83.160156 20.914062 83.15625 21.164062 83.148438 21.421875 C 83.144531 21.640625 83.140625 21.863281 83.136719 22.089844 C 83.089844 22.597656 83.089844 22.597656 82.800781 22.886719 C 82.023438 22.917969 81.257812 22.929688 80.484375 22.925781 C 80.15625 22.925781 80.15625 22.925781 79.824219 22.925781 C 78.203125 22.925781 78.203125 22.925781 77.878906 22.597656 C 77.847656 21.921875 77.839844 21.253906 77.839844 20.574219 C 77.839844 20.363281 77.839844 20.152344 77.839844 19.933594 C 77.835938 19.230469 77.839844 18.527344 77.839844 17.828125 C 77.839844 17.339844 77.839844 16.855469 77.839844 16.367188 C 77.839844 15.347656 77.839844 14.328125 77.839844 13.308594 C 77.839844 12 77.839844 10.6875 77.839844 9.378906 C 77.839844 8.375 77.839844 7.367188 77.839844 6.363281 C 77.839844 5.882812 77.839844 5.398438 77.839844 4.914062 C 77.835938 4.242188 77.839844 3.566406 77.839844 2.890625 C 77.839844 2.691406 77.839844 2.488281 77.839844 2.28125 C 77.847656 0.613281 77.847656 0.613281 79.246094 0.464844 Z M 79.246094 0.464844 "/>
<path style=" stroke:none;fill-rule:nonzero;fill:rgb(1.568627%,1.568627%,1.568627%);fill-opacity:1;" d="M 123.621094 39.113281 C 136.011719 39.113281 136.011719 39.113281 138.386719 40.851562 C 140.421875 43.011719 140.847656 44.972656 140.769531 47.898438 C 140.628906 50.058594 139.984375 51.40625 138.394531 52.882812 C 136.246094 54.441406 133.449219 54.511719 130.894531 54.484375 C 129.730469 54.476562 129.730469 54.476562 128.542969 54.46875 C 128.542969 56.761719 128.542969 59.054688 128.542969 61.421875 C 126.917969 61.421875 125.292969 61.421875 123.621094 61.421875 C 123.621094 54.058594 123.621094 46.695312 123.621094 39.113281 Z M 128.542969 43.457031 C 128.542969 45.65625 128.542969 47.855469 128.542969 50.121094 C 129.371094 50.140625 130.203125 50.15625 131.058594 50.175781 C 131.316406 50.183594 131.574219 50.191406 131.839844 50.199219 C 133.195312 50.214844 134.113281 50.15625 135.199219 49.253906 C 135.828125 48.160156 136.070312 47.433594 136.070312 46.175781 C 135.722656 45.007812 135.257812 44.515625 134.332031 43.746094 C 133.667969 43.414062 133.292969 43.425781 132.554688 43.429688 C 132.347656 43.429688 132.136719 43.429688 131.917969 43.433594 C 131.652344 43.433594 131.386719 43.4375 131.109375 43.441406 C 129.839844 43.449219 129.839844 43.449219 128.542969 43.457031 Z M 128.542969 43.457031 "/>
<path style=" stroke:none;fill-rule:nonzero;fill:rgb(2.352941%,2.352941%,2.352941%);fill-opacity:1;" d="M 186.6875 39.082031 C 187.28125 39.09375 187.875 39.101562 188.46875 39.113281 C 190.015625 42.160156 191.484375 45.230469 192.886719 48.347656 C 193.261719 49.179688 193.636719 50.011719 194.011719 50.84375 C 194.105469 51.050781 194.199219 51.257812 194.296875 51.46875 C 194.917969 52.84375 195.546875 54.214844 196.183594 55.582031 C 196.304688 55.847656 196.304688 55.847656 196.429688 56.117188 C 196.816406 56.945312 197.199219 57.769531 197.589844 58.597656 C 197.722656 58.886719 197.855469 59.175781 197.996094 59.472656 C 198.113281 59.722656 198.230469 59.976562 198.351562 60.234375 C 198.601562 60.839844 198.601562 60.839844 198.601562 61.421875 C 196.882812 61.421875 195.164062 61.421875 193.390625 61.421875 C 193.007812 60.558594 192.628906 59.699219 192.234375 58.8125 C 188.984375 58.8125 185.738281 58.8125 182.390625 58.8125 C 182.007812 59.671875 181.625 60.535156 181.230469 61.421875 C 179.511719 61.421875 177.792969 61.421875 176.019531 61.421875 C 176.441406 60.160156 176.871094 59.046875 177.429688 57.855469 C 177.511719 57.683594 177.59375 57.511719 177.675781 57.335938 C 177.847656 56.96875 178.019531 56.601562 178.195312 56.234375 C 178.652344 55.257812 179.109375 54.285156 179.566406 53.308594 C 179.660156 53.113281 179.753906 52.914062 179.847656 52.714844 C 180.699219 50.898438 181.539062 49.082031 182.371094 47.261719 C 182.5 46.980469 182.628906 46.699219 182.761719 46.410156 C 183.625 44.523438 184.464844 42.628906 185.28125 40.722656 C 185.96875 39.121094 185.96875 39.121094 186.6875 39.082031 Z M 187.023438 47.515625 C 186.539062 48.613281 186.054688 49.710938 185.574219 50.808594 C 185.4375 51.121094 185.300781 51.433594 185.15625 51.757812 C 185.027344 52.058594 184.894531 52.355469 184.761719 52.664062 C 184.640625 52.941406 184.519531 53.214844 184.394531 53.5 C 184.09375 54.144531 184.09375 54.144531 184.128906 54.757812 C 186.230469 54.757812 188.332031 54.757812 190.496094 54.757812 C 189.859375 52.78125 189.859375 52.78125 189.101562 50.882812 C 189.011719 50.679688 188.921875 50.480469 188.832031 50.273438 C 188.742188 50.074219 188.652344 49.875 188.5625 49.667969 C 188.46875 49.460938 188.375 49.25 188.28125 49.035156 C 188.054688 48.527344 187.828125 48.019531 187.601562 47.515625 C 187.410156 47.515625 187.21875 47.515625 187.023438 47.515625 Z M 187.023438 47.515625 "/>
<path style=" stroke:none;fill-rule:nonzero;fill:rgb(1.960784%,1.960784%,1.960784%);fill-opacity:1;" d="M 105.671875 39.113281 C 106.433594 39.113281 107.199219 39.113281 107.988281 39.113281 C 109.945312 42.925781 111.734375 46.808594 113.515625 50.707031 C 113.796875 51.320312 114.078125 51.933594 114.359375 52.546875 C 114.863281 53.644531 115.367188 54.746094 115.867188 55.847656 C 116.066406 56.277344 116.265625 56.710938 116.460938 57.140625 C 116.738281 57.746094 117.015625 58.351562 117.292969 58.957031 C 117.375 59.140625 117.460938 59.324219 117.546875 59.511719 C 118.121094 60.773438 118.121094 60.773438 118.121094 61.421875 C 116.398438 61.421875 114.679688 61.421875 112.910156 61.421875 C 112.527344 60.558594 112.144531 59.699219 111.75 58.8125 C 108.503906 58.71875 105.253906 58.621094 101.90625 58.523438 C 101.714844 59.097656 101.523438 59.671875 101.328125 60.261719 C 101.136719 60.644531 100.945312 61.027344 100.75 61.421875 C 99.03125 61.421875 97.308594 61.421875 95.539062 61.421875 C 96.1875 59.464844 96.1875 59.464844 96.632812 58.515625 C 96.730469 58.300781 96.832031 58.085938 96.933594 57.867188 C 97.039062 57.640625 97.144531 57.414062 97.253906 57.179688 C 97.367188 56.9375 97.480469 56.695312 97.59375 56.449219 C 97.957031 55.667969 98.320312 54.886719 98.6875 54.105469 C 98.9375 53.566406 99.1875 53.03125 99.433594 52.496094 C 99.808594 51.691406 100.183594 50.886719 100.558594 50.082031 C 101.742188 47.539062 102.914062 44.996094 104.085938 42.449219 C 104.210938 42.171875 104.339844 41.898438 104.46875 41.613281 C 104.574219 41.378906 104.683594 41.148438 104.792969 40.90625 C 105.078125 40.300781 105.371094 39.707031 105.671875 39.113281 Z M 106.539062 47.515625 C 106.054688 48.613281 105.574219 49.710938 105.089844 50.808594 C 104.953125 51.121094 104.816406 51.433594 104.671875 51.757812 C 104.542969 52.058594 104.410156 52.355469 104.277344 52.664062 C 104.15625 52.941406 104.035156 53.214844 103.910156 53.5 C 103.609375 54.144531 103.609375 54.144531 103.644531 54.757812 C 105.746094 54.757812 107.847656 54.757812 110.011719 54.757812 C 109.375 52.78125 109.375 52.78125 108.617188 50.882812 C 108.527344 50.679688 108.4375 50.480469 108.347656 50.273438 C 108.257812 50.074219 108.167969 49.875 108.078125 49.667969 C 107.984375 49.460938 107.890625 49.25 107.796875 49.035156 C 107.570312 48.527344 107.34375 48.019531 107.117188 47.515625 C 106.925781 47.515625 106.734375 47.515625 106.539062 47.515625 Z M 106.539062 47.515625 "/>
<path style=" stroke:none;fill-rule:nonzero;fill:rgb(2.352941%,2.352941%,2.352941%);fill-opacity:1;" d="M 173.707031 0.578125 C 174.628906 0.433594 174.628906 0.433594 175.730469 0.578125 C 177.097656 2.449219 177.996094 4.5625 178.953125 6.664062 C 179.117188 7.023438 179.28125 7.382812 179.449219 7.742188 C 179.867188 8.65625 180.285156 9.566406 180.703125 10.480469 C 181.074219 11.300781 181.449219 12.117188 181.824219 12.933594 C 182.230469 13.816406 182.632812 14.699219 183.035156 15.582031 C 183.609375 16.835938 184.1875 18.09375 184.777344 19.339844 C 184.871094 19.542969 184.96875 19.75 185.066406 19.960938 C 185.320312 20.488281 185.570312 21.015625 185.824219 21.546875 C 186.152344 22.308594 186.152344 22.308594 186.152344 22.886719 C 184.433594 22.886719 182.714844 22.886719 180.941406 22.886719 C 179.785156 20.570312 179.785156 20.570312 179.785156 19.992188 C 176.535156 19.992188 173.289062 19.992188 169.941406 19.992188 C 169.75 20.5625 169.558594 21.136719 169.363281 21.730469 C 169.171875 22.113281 168.980469 22.492188 168.785156 22.886719 C 167.0625 22.886719 165.34375 22.886719 163.574219 22.886719 C 164.03125 21.503906 164.550781 20.214844 165.164062 18.898438 C 165.261719 18.683594 165.359375 18.46875 165.460938 18.246094 C 165.785156 17.546875 166.109375 16.851562 166.429688 16.152344 C 166.652344 15.667969 166.875 15.1875 167.097656 14.703125 C 167.546875 13.734375 167.992188 12.769531 168.441406 11.800781 C 169.003906 10.578125 169.566406 9.355469 170.128906 8.128906 C 170.433594 7.464844 170.742188 6.800781 171.046875 6.136719 C 171.183594 5.839844 171.320312 5.542969 171.460938 5.234375 C 172.179688 3.667969 172.925781 2.117188 173.707031 0.578125 Z M 174.574219 8.980469 C 174.089844 10.078125 173.609375 11.179688 173.125 12.277344 C 172.988281 12.589844 172.851562 12.902344 172.707031 13.226562 C 172.578125 13.523438 172.445312 13.824219 172.3125 14.128906 C 172.191406 14.40625 172.070312 14.683594 171.945312 14.96875 C 171.644531 15.613281 171.644531 15.613281 171.679688 16.222656 C 173.78125 16.222656 175.882812 16.222656 178.046875 16.222656 C 177.691406 15.152344 177.34375 14.144531 176.90625 13.113281 C 176.804688 12.871094 176.699219 12.625 176.59375 12.375 C 176.488281 12.128906 176.382812 11.878906 176.273438 11.625 C 176.167969 11.371094 176.058594 11.117188 175.949219 10.851562 C 175.683594 10.230469 175.417969 9.605469 175.152344 8.980469 C 174.960938 8.980469 174.769531 8.980469 174.574219 8.980469 Z M 174.574219 8.980469 "/>
<path style=" stroke:none;fill-rule:nonzero;fill:rgb(1.960784%,1.960784%,1.960784%);fill-opacity:1;" d="M 91.195312 39.980469 C 91.195312 41.511719 91.195312 43.039062 91.195312 44.617188 C 90.800781 44.480469 90.40625 44.34375 90 44.199219 C 87.394531 43.421875 84.222656 42.953125 81.640625 44.039062 C 79.820312 45.058594 78.601562 46.332031 78 48.371094 C 77.546875 50.570312 77.933594 52.515625 79.035156 54.46875 C 80.28125 55.972656 82.117188 56.722656 84.011719 57.019531 C 85.898438 57.183594 87.894531 56.890625 89.652344 56.183594 C 90.328125 55.914062 90.328125 55.914062 91.195312 55.914062 C 91.195312 57.445312 91.195312 58.976562 91.195312 60.550781 C 88.949219 61.414062 87.199219 61.769531 84.789062 61.78125 C 84.53125 61.789062 84.269531 61.792969 84 61.800781 C 80.636719 61.820312 77.957031 60.816406 75.503906 58.5 C 72.835938 55.671875 72.226562 52.78125 72.296875 48.988281 C 72.445312 45.785156 74.101562 43.363281 76.359375 41.210938 C 80.128906 38.035156 86.890625 37.828125 91.195312 39.980469 Z M 91.195312 39.980469 "/>
<path style=" stroke:none;fill-rule:nonzero;fill:rgb(1.176471%,1.176471%,1.176471%);fill-opacity:1;" d="M 158.070312 39.113281 C 163.707031 39.113281 169.34375 39.113281 175.152344 39.113281 C 175.152344 40.640625 175.152344 42.171875 175.152344 43.746094 C 172.285156 43.890625 172.285156 43.890625 169.363281 44.039062 C 169.265625 49.773438 169.171875 55.511719 169.074219 61.421875 C 167.449219 61.421875 165.824219 61.421875 164.152344 61.421875 C 164.054688 55.683594 163.960938 49.949219 163.863281 44.039062 C 161.949219 43.941406 160.039062 43.847656 158.070312 43.746094 C 158.070312 42.21875 158.070312 40.6875 158.070312 39.113281 Z M 158.070312 39.113281 "/>
<path style=" stroke:none;fill-rule:nonzero;fill:rgb(3.921569%,3.921569%,3.921569%);fill-opacity:1;" d="M 206.050781 39.074219 C 206.375 39.074219 206.375 39.074219 206.710938 39.074219 C 206.925781 39.074219 207.144531 39.074219 207.367188 39.074219 C 208.988281 39.074219 208.988281 39.074219 209.316406 39.402344 C 209.34375 39.933594 209.347656 40.46875 209.347656 41.003906 C 209.347656 41.347656 209.347656 41.6875 209.347656 42.039062 C 209.347656 42.414062 209.34375 42.785156 209.34375 43.167969 C 209.34375 43.546875 209.34375 43.925781 209.339844 44.316406 C 209.339844 45.328125 209.335938 46.335938 209.335938 47.34375 C 209.332031 48.375 209.332031 49.402344 209.328125 50.433594 C 209.324219 52.453125 209.320312 54.476562 209.316406 56.496094 C 209.558594 56.492188 209.804688 56.492188 210.054688 56.492188 C 210.957031 56.484375 211.859375 56.480469 212.761719 56.480469 C 213.152344 56.476562 213.542969 56.476562 213.9375 56.472656 C 214.496094 56.46875 215.058594 56.46875 215.621094 56.46875 C 216.125 56.464844 216.125 56.464844 216.644531 56.460938 C 217.421875 56.496094 217.421875 56.496094 217.710938 56.785156 C 217.710938 58.316406 217.710938 59.84375 217.710938 61.421875 C 213.21875 61.421875 208.730469 61.421875 204.105469 61.421875 C 204.09375 55.9375 204.09375 55.9375 204.089844 53.609375 C 204.085938 52.015625 204.085938 50.421875 204.082031 48.832031 C 204.078125 47.546875 204.078125 46.265625 204.074219 44.980469 C 204.074219 44.492188 204.074219 44 204.074219 43.511719 C 204.070312 42.824219 204.070312 42.140625 204.070312 41.457031 C 204.070312 41.25 204.070312 41.046875 204.066406 40.835938 C 204.070312 39.039062 204.269531 39.074219 206.050781 39.074219 Z M 206.050781 39.074219 "/>
<path style=" stroke:none;fill-rule:nonzero;fill:rgb(0.392157%,0.392157%,0.392157%);fill-opacity:1;" d="M 147.070312 39.113281 C 148.695312 39.113281 150.320312 39.113281 151.992188 39.113281 C 151.992188 46.472656 151.992188 53.835938 151.992188 61.421875 C 150.367188 61.421875 148.742188 61.421875 147.070312 61.421875 C 147.070312 54.058594 147.070312 46.695312 147.070312 39.113281 Z M 147.070312 39.113281 "/>
<path style=" stroke:none;fill-rule:nonzero;fill:rgb(61.176471%,12.54902%,16.862745%);fill-opacity:1;" d="M 35.609375 0.289062 C 38.550781 0.28125 41.488281 0.277344 44.425781 0.273438 C 45.792969 0.273438 47.15625 0.269531 48.519531 0.269531 C 49.835938 0.265625 51.152344 0.261719 52.46875 0.261719 C 52.972656 0.261719 53.476562 0.261719 53.980469 0.257812 C 54.679688 0.257812 55.382812 0.257812 56.085938 0.257812 C 56.296875 0.253906 56.503906 0.253906 56.722656 0.253906 C 58.160156 0.257812 58.160156 0.257812 58.480469 0.578125 C 58.507812 1.011719 58.515625 1.445312 58.515625 1.878906 C 58.515625 2.300781 58.515625 2.300781 58.515625 2.730469 C 58.515625 3.195312 58.515625 3.195312 58.511719 3.671875 C 58.511719 3.996094 58.515625 4.320312 58.515625 4.65625 C 58.511719 5.734375 58.511719 6.816406 58.507812 7.894531 C 58.507812 8.640625 58.507812 9.390625 58.507812 10.136719 C 58.507812 11.902344 58.503906 13.671875 58.5 15.441406 C 58.5 17.453125 58.496094 19.464844 58.496094 21.476562 C 58.492188 25.617188 58.488281 29.757812 58.480469 33.898438 C 57.867188 32.976562 57.828125 32.757812 57.832031 31.703125 C 57.832031 31.429688 57.832031 31.160156 57.828125 30.878906 C 57.832031 30.433594 57.832031 30.433594 57.835938 29.976562 C 57.835938 29.664062 57.835938 29.351562 57.835938 29.027344 C 57.835938 27.988281 57.839844 26.949219 57.84375 25.910156 C 57.847656 25.1875 57.847656 24.46875 57.847656 23.75 C 57.851562 22.046875 57.855469 20.34375 57.859375 18.640625 C 57.867188 16.175781 57.871094 13.707031 57.875 11.238281 C 57.878906 7.78125 57.890625 4.324219 57.902344 0.871094 C 50.546875 0.871094 43.1875 0.871094 35.609375 0.871094 C 35.609375 0.679688 35.609375 0.488281 35.609375 0.289062 Z M 35.609375 0.289062 "/>
</g>
</svg>
