<svg width="106" height="24" viewBox="0 0 106 24" fill="none" xmlns="http://www.w3.org/2000/svg">
<g id="ottersec">
<path id="Vector" d="M15.4086 20.3989C16.7294 19.8711 17.9167 19.0745 18.8892 18.0634C20.4546 16.4426 21.2804 13.8426 21.2804 13.8426C21.2534 14.1188 21.2102 14.3933 21.151 14.6648C21.0658 15.0727 20.9531 15.4748 20.8138 15.8685C20.6646 16.3093 20.4894 16.7415 20.2889 17.1629C20.0552 17.6625 19.7788 18.1426 19.4626 18.598C18.7098 19.6194 17.7538 20.4857 16.6502 21.1467C15.8822 21.5737 15.0618 21.9067 14.2082 22.1377C11.6002 22.8114 5.98662 22.6499 2.6407 18.5726C0.205168 15.6035 0.376048 12.2707 0.420956 11.6338C0.4542 11.1593 0.769723 7.52667 3.89872 4.76686C4.81365 3.96222 5.86487 3.31501 7.00666 2.85344C7.00446 2.54862 7.11466 2.25295 7.31762 2.01934C7.52058 1.78574 7.80306 1.62941 8.11447 1.57832C8.42599 1.52722 8.74607 1.5847 9.01767 1.74046C9.28919 1.89623 9.49447 2.14013 9.59671 2.42854C10.3689 2.37227 10.9691 2.3689 11.2688 2.39534C11.4462 2.41054 11.6514 2.4353 11.6514 2.4353C12.0426 2.47586 12.4286 2.55374 12.8039 2.66772C13.2742 2.7931 13.7229 2.98403 14.136 3.23443C14.7554 3.6205 14.8299 3.9058 15.6856 4.4213C15.7778 4.47702 15.8542 4.52035 15.9031 4.54738L16.2379 4.64303C16.4001 4.68919 16.4863 4.71283 16.5604 4.73364C16.6998 4.77305 16.8981 4.83043 17.1472 4.90867C17.087 5.02458 17.0363 5.12138 16.999 5.19003C16.9232 5.33185 16.8648 5.43712 16.8648 5.44105C16.592 5.95143 16.1877 6.38552 15.6908 6.70166C15.1939 7.0178 13.5131 6.81474 12.8039 6.70166C12.0946 6.58858 9.86679 5.99986 7.74271 7.38654C5.18701 9.05511 5.23426 12.0631 5.2506 12.5077C5.26462 12.9006 5.39582 15.3413 7.52048 17.0149C9.08407 18.2463 10.8069 18.325 11.4199 18.3447C11.883 18.3594 13.7557 18.374 15.5607 17.1629C16.3751 16.621 17.0528 15.9094 17.5438 15.0806C18.0018 14.2864 18.2613 13.4 18.3019 12.492C18.3215 11.8426 18.2229 11.195 18.0103 10.5786C17.8003 10.0402 17.5207 9.52975 17.178 9.05903C17.9013 11.2539 17.2364 13.0547 17.2364 13.0547C17.0486 13.5629 16.803 14.1994 16.2046 14.8342C15.4283 15.6569 14.3576 16.0509 13.957 16.1944C13.6503 16.3018 13.3366 16.3892 13.0179 16.4561C12.7726 16.5043 12.5862 16.5247 12.3298 16.5527L12.3181 16.554C12.0666 16.5835 11.8133 16.5969 11.5599 16.594C11.5599 16.594 12.0387 16.5039 12.4978 16.3886C13.4185 16.1496 14.2678 15.7046 14.977 15.0897C15.3538 14.7582 15.9545 14.2168 16.3003 13.3165C16.5238 12.7345 16.5469 12.2478 16.5679 11.8044L16.568 11.802C16.5978 11.0981 16.5152 10.3938 16.323 9.71407C16.1491 9.09535 15.8878 8.50263 15.5462 7.95267L15.9148 7.98982C16.4858 8.06535 17.0509 8.17823 17.6062 8.32751C18.2122 8.49063 18.6862 8.62239 19.2391 8.94655C19.4905 9.09399 19.7407 9.24087 19.9974 9.50927C20.4692 10.0039 20.6173 10.5498 20.6971 10.8599C20.9503 11.8409 20.7427 12.6665 20.5806 13.2798C20.3193 14.2675 19.8912 14.9467 19.5891 15.4184C19.152 16.1022 18.6225 16.7267 18.0144 17.2754C16.5219 18.6126 14.8592 19.1551 13.9027 19.3858C12.6079 19.7266 11.2487 19.7718 9.93271 19.5178C8.61671 19.2638 7.38016 18.7177 6.32083 17.9226C4.8744 16.9097 4.17337 15.774 3.85495 15.1566C2.8903 13.2871 2.95797 11.3676 2.99936 10.4598C3.01163 10.197 3.02564 10.0366 3.02564 10.0158C2.74448 10.9482 2.29778 12.9428 3.01918 15.2372C3.21166 15.8499 3.63798 17.1556 4.83361 18.4021C6.2001 19.8265 7.76487 20.3307 8.62455 20.5969C9.61199 20.9025 12.3677 21.5902 15.4086 20.3989Z" fill="#0D0D0E"/>
<path id="Vector_2" d="M39.9804 16.3936C39.4236 17.4304 38.6556 18.256 37.6572 18.832C36.6588 19.4272 35.5452 19.7152 34.278 19.7152C33.0108 19.7152 31.878 19.4272 30.8796 18.832C29.8812 18.256 29.1132 17.4304 28.5756 16.3936C28.0188 15.3568 27.75 14.1856 27.75 12.88C27.75 11.5744 28.0188 10.4032 28.5756 9.3664C29.1132 8.3296 29.8812 7.5232 30.8796 6.928C31.878 6.352 33.0108 6.0448 34.278 6.0448C35.5452 6.0448 36.6588 6.352 37.6572 6.928C38.6556 7.5232 39.4236 8.3296 39.9804 9.3664C40.518 10.4032 40.806 11.5744 40.806 12.88C40.806 14.1856 40.518 15.3568 39.9804 16.3936ZM30.5532 15.4144C30.8988 16.1632 31.398 16.7392 32.0508 17.1616C32.7036 17.584 33.4332 17.776 34.278 17.776C35.1036 17.776 35.8332 17.584 36.486 17.1616C37.1388 16.7392 37.638 16.1632 38.0028 15.4144C38.3484 14.6656 38.5404 13.8208 38.5404 12.88C38.5404 11.9584 38.3484 11.1136 38.0028 10.3648C37.638 9.616 37.1388 9.04 36.486 8.6176C35.8332 8.1952 35.1036 7.984 34.278 7.984C33.4332 7.984 32.7036 8.1952 32.0508 8.6176C31.398 9.04 30.8988 9.616 30.5532 10.3648C30.1884 11.1136 30.0156 11.9584 30.0156 12.88C30.0156 13.8208 30.1884 14.6656 30.5532 15.4144ZM43.1658 11.5936H41.457V9.7696H43.1658V7.024H45.2586V9.7696H47.6202V11.5936H45.2586V16.72C45.2586 17.104 45.3354 17.392 45.489 17.5456C45.6426 17.6992 45.8922 17.776 46.2762 17.776H47.8506V19.6H45.8538C44.913 19.6 44.2218 19.3888 43.7994 18.9472C43.377 18.5248 43.1658 17.8528 43.1658 16.9312V11.5936ZM48.9634 7.024H51.037V9.7696H53.4178V11.5936H51.037V16.72C51.037 17.104 51.1138 17.392 51.2674 17.5456C51.421 17.6992 51.6706 17.776 52.0546 17.776H53.629V19.6H51.6322C50.6914 19.6 50.0194 19.3888 49.597 18.9472C49.1746 18.5248 48.9634 17.8528 48.9634 16.9312V7.024ZM54.7814 12.0544C55.1846 11.2864 55.7414 10.7104 56.471 10.288C57.2006 9.8656 58.0262 9.6544 58.967 9.6544C59.9078 9.6544 60.7334 9.8464 61.463 10.2304C62.1926 10.6144 62.7494 11.1712 63.1718 11.8624C63.5942 12.5728 63.8054 13.3984 63.8246 14.3392C63.8246 14.608 63.8054 14.8576 63.767 15.1264H56.3558V15.2416C56.3942 16.1056 56.663 16.7776 57.1622 17.2768C57.6422 17.776 58.295 18.0256 59.1014 18.0256C59.735 18.0256 60.2726 17.8912 60.7142 17.584C61.1366 17.2768 61.4246 16.8544 61.5782 16.2976H63.6518C63.4598 17.296 62.9798 18.1216 62.1926 18.7552C61.4054 19.408 60.4262 19.7152 59.255 19.7152C58.2182 19.7152 57.335 19.5232 56.567 19.1008C55.799 18.6784 55.223 18.1024 54.8006 17.3344C54.3782 16.5856 54.1862 15.7024 54.1862 14.704C54.1862 13.7056 54.3782 12.8224 54.7814 12.0544ZM61.7126 13.6096C61.6166 12.8992 61.3286 12.3424 60.8486 11.9392C60.3686 11.536 59.7734 11.3248 59.0438 11.3248C58.3526 11.3248 57.7766 11.536 57.2774 11.9584C56.7782 12.3808 56.5094 12.9184 56.4326 13.6096H61.7126ZM70.9346 9.7696V11.7088H70.013C69.149 11.7088 68.5346 11.9968 68.1506 12.5536C67.7666 13.1104 67.5746 13.8208 67.5746 14.6656V19.6H65.501V9.7696H67.3442L67.5746 11.248C67.8434 10.7872 68.2082 10.4416 68.669 10.1728C69.1106 9.904 69.7058 9.7696 70.4738 9.7696H70.9346ZM74.1326 15.2224C74.1902 16.0288 74.5166 16.6624 75.0926 17.1424C75.6686 17.6224 76.4366 17.8528 77.3774 17.8528C78.1838 17.8528 78.8558 17.68 79.355 17.3344C79.8542 16.9888 80.1228 16.4896 80.1228 15.856C80.1228 15.4144 79.9694 15.0688 79.7006 14.8C79.4318 14.5312 79.0478 14.3392 78.587 14.1856C78.107 14.0512 77.435 13.8976 76.5902 13.744C75.707 13.5904 74.9582 13.3984 74.3438 13.1488C73.7294 12.8992 73.211 12.5152 72.827 11.9968C72.443 11.4976 72.251 10.8256 72.251 9.9808C72.251 9.2128 72.443 8.5408 72.8462 7.9264C73.2494 7.3312 73.8062 6.8704 74.5358 6.5248C75.2654 6.1984 76.091 6.0256 77.0318 6.0256C77.9918 6.0256 78.8366 6.2176 79.6046 6.5632C80.3532 6.928 80.9484 7.4272 81.39 8.0416C81.8124 8.6752 82.062 9.3856 82.1004 10.192H79.931C79.8542 9.5008 79.547 8.944 79.0286 8.5216C78.491 8.0992 77.8382 7.888 77.0318 7.888C76.2446 7.888 75.611 8.0608 75.1502 8.4064C74.6894 8.752 74.459 9.2128 74.459 9.8272C74.459 10.2688 74.5934 10.6144 74.8622 10.864C75.131 11.1328 75.515 11.3248 75.9758 11.44C76.4366 11.5744 77.0894 11.7088 77.9534 11.8624C78.8174 12.016 79.5662 12.2272 80.1996 12.4768C80.814 12.7456 81.3324 13.1104 81.7356 13.6096C82.1196 14.1088 82.3308 14.7808 82.3308 15.5872C82.3308 16.3936 82.1196 17.104 81.6972 17.7184C81.2748 18.352 80.6796 18.8512 79.931 19.1968C79.163 19.5424 78.3182 19.7152 77.3582 19.7152C76.283 19.7152 75.3614 19.5232 74.555 19.1392C73.7486 18.7552 73.115 18.2368 72.6542 17.5456C72.1934 16.8544 71.963 16.0672 71.963 15.184L74.1326 15.2224ZM84.294 12.0544C84.6972 11.2864 85.254 10.7104 85.9836 10.288C86.7132 9.8656 87.5388 9.6544 88.4796 9.6544C89.4204 9.6544 90.246 9.8464 90.9756 10.2304C91.7052 10.6144 92.262 11.1712 92.6844 11.8624C93.1068 12.5728 93.318 13.3984 93.3372 14.3392C93.3372 14.608 93.318 14.8576 93.2796 15.1264H85.8684V15.2416C85.9068 16.1056 86.1756 16.7776 86.6748 17.2768C87.1548 17.776 87.8076 18.0256 88.614 18.0256C89.2476 18.0256 89.7852 17.8912 90.2268 17.584C90.6492 17.2768 90.9372 16.8544 91.0908 16.2976H93.1644C92.9724 17.296 92.4924 18.1216 91.7052 18.7552C90.918 19.408 89.9388 19.7152 88.7676 19.7152C87.7308 19.7152 86.8476 19.5232 86.0796 19.1008C85.3116 18.6784 84.7356 18.1024 84.3132 17.3344C83.8908 16.5856 83.6988 15.7024 83.6988 14.704C83.6988 13.7056 83.8908 12.8224 84.294 12.0544ZM91.2252 13.6096C91.1292 12.8992 90.8412 12.3424 90.3612 11.9392C89.8812 11.536 89.286 11.3248 88.5564 11.3248C87.8652 11.3248 87.2892 11.536 86.79 11.9584C86.2908 12.3808 86.022 12.9184 85.9452 13.6096H91.2252ZM102.597 18.7552C101.791 19.408 100.773 19.7152 99.5444 19.7152C98.5652 19.7152 97.7012 19.5232 96.9716 19.1008C96.2228 18.6784 95.6468 18.0832 95.2436 17.3152C94.8404 16.5472 94.6484 15.664 94.6484 14.6656C94.6484 13.6672 94.8404 12.8032 95.2628 12.0352C95.666 11.2864 96.242 10.7104 96.9908 10.288C97.7396 9.8656 98.6036 9.6544 99.602 9.6544C100.831 9.6544 101.829 9.9808 102.616 10.6336C103.384 11.2864 103.884 12.1504 104.076 13.264H101.944C101.791 12.7072 101.522 12.2656 101.1 11.92C100.677 11.5936 100.159 11.4208 99.5444 11.4208C98.6996 11.4208 98.0276 11.728 97.5284 12.3232C97.0292 12.9376 96.7796 13.7056 96.7796 14.6656C96.7796 15.6448 97.0292 16.432 97.5284 17.0464C98.0276 17.6608 98.6996 17.9488 99.5444 17.9488C100.178 17.9488 100.716 17.7952 101.138 17.4496C101.56 17.104 101.829 16.6432 101.964 16.0672H104.076C103.884 17.2192 103.384 18.1024 102.597 18.7552Z" fill="#0D0D0E"/>
</g>
</svg>
