<svg width="167" height="20" viewBox="0 0 167 20" fill="none" xmlns="http://www.w3.org/2000/svg">
<path d="M61.06 15.6907H59.1816L57.9937 13.3702H51.0324L49.8445 15.6907H47.9661L53.4357 5.35917H55.5904L61.06 15.6907ZM57.165 11.8233L54.5407 6.82325L51.8611 11.8233H57.165ZM82.1097 15.6907H79.9826L72.0821 7.20999V15.6907H70.3694V5.35917H72.4965L80.397 13.8398V5.35917H82.1097V15.6907ZM103.049 6.87851V5.33154H91.4467V6.87851H96.3915V8.42546H93.1594V9.97242H96.3915V15.6907H98.1042V9.97242H101.309V8.42546H98.0766V6.87851H103.049ZM123.187 6.87851H114.071V9.7238H120.121V11.2708H114.071V14.1437H123.187V15.6907H112.358V5.35917H123.187V6.87851ZM166.309 15.6907H164.43L163.242 13.3702H156.281L155.093 15.6907H153.215L158.684 5.35917H160.839L166.309 15.6907ZM162.386 11.8233L159.762 6.82325L157.082 11.8233H162.386ZM37.6622 5.33154H29.2368V15.6907H30.9495V11.7404H37.6622C39.4302 11.7404 40.8666 10.3039 40.8666 8.53596C40.8666 6.76801 39.4302 5.33154 37.6622 5.33154ZM37.6622 10.1934H30.9495V6.87851H37.6622C38.5738 6.87851 39.3197 7.62436 39.3197 8.53596C39.3197 9.44757 38.5738 10.1934 37.6622 10.1934ZM144.264 15.6907L141.53 11.6851C143.021 11.4089 144.182 10.1105 144.182 8.53596C144.182 6.76801 142.745 5.33154 140.977 5.33154H132.552V15.6907H134.264V11.7404H139.485L142.275 15.6907H144.264ZM134.264 6.87851H140.977C141.889 6.87851 142.635 7.62436 142.635 8.53596C142.635 9.44757 141.889 10.1934 140.977 10.1934H134.264V6.87851Z" fill="black"/>
<path d="M20.5351 0H0.535156V20H20.5351V0Z" fill="white"/>
<path d="M20.5628 0H0.535156V20H20.5351V0H20.5628ZM7.41361 12.4586H5.50753V3.42542H7.41361V12.4586ZM11.502 16.547H9.59593V3.42542H11.502V16.547ZM15.618 12.4586H13.7119V3.42542H15.618V12.4586Z" fill="#15182B"/>
</svg>
