<?xml version="1.0" encoding="UTF-8"?>
<svg xmlns="http://www.w3.org/2000/svg" xmlns:xlink="http://www.w3.org/1999/xlink" width="106px" height="32px" viewBox="0 0 105 32" version="1.1">
<defs>
<linearGradient id="linear0" gradientUnits="userSpaceOnUse" x1="-0.000000318638" y1="3.44579" x2="12.4813" y2="45.6458" gradientTransform="matrix(1.22093,0,0,1.230769,0,0)">
<stop offset="0.0677083" style="stop-color:rgb(52.941176%,30.980392%,100%);stop-opacity:1;"/>
<stop offset="0.463542" style="stop-color:rgb(21.176471%,68.627451%,88.627451%);stop-opacity:1;"/>
<stop offset="0.859375" style="stop-color:rgb(34.117647%,100%,40.784314%);stop-opacity:1;"/>
</linearGradient>
</defs>
<g id="surface1">
<path style=" stroke:none;fill-rule:evenodd;fill:url(#linear0);" d="M 14.234375 0.902344 C 14.003906 0.351562 13.175781 0.589844 13.277344 1.179688 L 13.472656 2.324219 C 13.480469 2.382812 13.496094 2.4375 13.519531 2.484375 C 12.492188 2.828125 11.515625 3.285156 10.605469 3.84375 C 10.582031 3.796875 10.550781 3.746094 10.515625 3.703125 L 9.765625 2.820312 C 9.378906 2.367188 8.664062 2.847656 8.941406 3.378906 L 9.476562 4.40625 C 9.503906 4.457031 9.535156 4.503906 9.574219 4.542969 C 8.707031 5.183594 7.917969 5.921875 7.21875 6.738281 C 7.183594 6.699219 7.140625 6.667969 7.09375 6.636719 L 6.105469 6.027344 C 5.597656 5.714844 5.070312 6.398438 5.496094 6.816406 L 6.324219 7.628906 C 6.363281 7.667969 6.40625 7.699219 6.449219 7.722656 C 5.828125 8.59375 5.300781 9.539062 4.886719 10.539062 C 4.84375 10.515625 4.796875 10.5 4.746094 10.484375 L 3.617188 10.214844 C 3.039062 10.074219 2.742188 10.882812 3.277344 11.148438 L 4.320312 11.667969 C 4.363281 11.691406 4.410156 11.707031 4.457031 11.71875 C 4.140625 12.726562 3.933594 13.789062 3.847656 14.882812 C 3.796875 14.871094 3.746094 14.871094 3.695312 14.875 L 2.539062 14.964844 C 1.945312 15.011719 1.914062 15.871094 2.503906 15.960938 L 3.65625 16.128906 C 3.707031 16.136719 3.753906 16.136719 3.804688 16.132812 C 3.808594 16.757812 3.855469 17.375 3.941406 17.976562 C 3.824219 17.859375 3.679688 17.757812 3.519531 17.691406 L 2.734375 17.359375 C 1.394531 16.792969 -0.105469 17.613281 0.00390625 19.070312 C 0.0898438 20.195312 0.347656 21.453125 0.898438 22.640625 C 1.515625 23.960938 3.234375 23.855469 4.109375 22.695312 L 4.664062 21.957031 C 4.777344 21.808594 4.851562 21.644531 4.890625 21.472656 C 5.179688 22.164062 5.515625 22.824219 5.90625 23.457031 C 5.859375 23.476562 5.816406 23.503906 5.777344 23.539062 L 4.890625 24.292969 C 4.4375 24.683594 4.917969 25.398438 5.449219 25.121094 L 6.476562 24.582031 C 6.523438 24.554688 6.566406 24.527344 6.605469 24.492188 C 7.246094 25.355469 7.984375 26.144531 8.800781 26.84375 C 8.765625 26.878906 8.730469 26.917969 8.703125 26.964844 L 8.09375 27.960938 C 7.78125 28.46875 8.457031 29 8.875 28.574219 L 9.6875 27.742188 C 9.726562 27.703125 9.757812 27.660156 9.785156 27.613281 C 10.65625 28.230469 11.597656 28.757812 12.597656 29.171875 C 12.574219 29.21875 12.554688 29.269531 12.539062 29.324219 L 12.265625 30.457031 C 12.125 31.039062 12.9375 31.332031 13.199219 30.796875 L 13.714844 29.757812 C 13.742188 29.703125 13.761719 29.648438 13.769531 29.59375 C 14.777344 29.910156 15.835938 30.117188 16.929688 30.199219 C 16.917969 30.257812 16.910156 30.316406 16.917969 30.378906 L 17.007812 31.539062 C 17.050781 32.132812 17.914062 32.164062 18 31.570312 L 18.167969 30.425781 C 18.179688 30.359375 18.175781 30.296875 18.167969 30.238281 C 19.265625 30.226562 20.335938 30.089844 21.359375 29.839844 C 21.367188 29.902344 21.378906 29.960938 21.402344 30.023438 L 21.847656 31.097656 C 22.074219 31.648438 22.902344 31.410156 22.800781 30.820312 L 22.609375 29.675781 C 22.597656 29.609375 22.578125 29.550781 22.550781 29.496094 C 23.578125 29.148438 24.554688 28.6875 25.460938 28.125 C 25.484375 28.1875 25.519531 28.242188 25.566406 28.296875 L 26.316406 29.179688 C 26.703125 29.632812 27.414062 29.152344 27.140625 28.621094 L 26.601562 27.59375 C 26.570312 27.53125 26.527344 27.476562 26.480469 27.433594 C 27.34375 26.789062 28.132812 26.046875 28.832031 25.226562 C 28.875 25.277344 28.925781 25.324219 28.984375 25.363281 L 29.972656 25.972656 C 30.480469 26.285156 31.011719 25.601562 30.585938 25.183594 L 29.753906 24.371094 C 29.703125 24.320312 29.648438 24.28125 29.589844 24.253906 C 30.207031 23.382812 30.734375 22.4375 31.148438 21.433594 C 31.203125 21.46875 31.265625 21.496094 31.335938 21.515625 L 32.460938 21.785156 C 33.042969 21.925781 33.335938 21.117188 32.800781 20.851562 L 31.757812 20.332031 C 31.695312 20.300781 31.632812 20.28125 31.566406 20.273438 C 31.882812 19.261719 32.089844 18.199219 32.175781 17.105469 C 32.242188 17.125 32.3125 17.132812 32.382812 17.125 L 33.539062 17.035156 C 34.136719 16.988281 34.164062 16.128906 33.574219 16.039062 L 32.425781 15.871094 C 32.351562 15.859375 32.285156 15.863281 32.21875 15.875 C 32.207031 14.8125 32.082031 13.777344 31.851562 12.777344 C 32.144531 12.976562 32.472656 13.046875 32.808594 12.902344 C 33.363281 12.660156 33.601562 12.042969 33.351562 11.441406 C 33.035156 10.695312 32.484375 10.074219 31.78125 9.675781 C 31.789062 9.644531 31.796875 9.617188 31.800781 9.589844 L 31.804688 9.589844 L 31.804688 9.585938 C 31.824219 9.511719 31.84375 9.445312 31.859375 9.378906 C 32.046875 8.652344 32 7.882812 31.726562 7.183594 C 31.636719 6.96875 31.480469 6.789062 31.28125 6.671875 C 31.078125 6.554688 30.84375 6.507812 30.613281 6.539062 C 30.132812 6.605469 29.707031 6.96875 29.710938 7.441406 L 29.710938 7.457031 C 29.710938 7.609375 29.710938 7.769531 29.71875 7.929688 C 29.015625 6.910156 28.1875 5.984375 27.25 5.183594 C 27.296875 5.140625 27.34375 5.089844 27.378906 5.035156 L 27.988281 4.039062 C 28.300781 3.53125 27.621094 3 27.203125 3.425781 L 26.390625 4.257812 C 26.34375 4.304688 26.304688 4.359375 26.277344 4.417969 C 25.410156 3.792969 24.46875 3.265625 23.46875 2.847656 C 23.5 2.796875 23.523438 2.738281 23.539062 2.675781 L 23.8125 1.542969 C 23.953125 0.960938 23.144531 0.667969 22.878906 1.203125 L 22.363281 2.246094 C 22.335938 2.300781 22.316406 2.363281 22.308594 2.421875 C 21.296875 2.101562 20.242188 1.890625 19.148438 1.804688 C 19.164062 1.746094 19.167969 1.683594 19.164062 1.621094 L 19.074219 0.460938 C 19.027344 -0.132812 18.167969 -0.164062 18.078125 0.429688 L 17.910156 1.574219 C 17.902344 1.636719 17.902344 1.699219 17.914062 1.761719 C 16.8125 1.765625 15.742188 1.898438 14.71875 2.144531 C 14.710938 2.089844 14.699219 2.03125 14.675781 1.976562 Z M 29.832031 16 C 29.832031 14.644531 29.605469 13.339844 29.1875 12.125 C 28.515625 12.632812 27.738281 13.085938 26.863281 13.40625 C 24.476562 14.28125 22.652344 14.664062 21.113281 14.816406 C 19.363281 17.226562 16.390625 18.234375 14.949219 18.441406 L 15.132812 14.828125 C 14.195312 14.867188 13.191406 14.992188 12.011719 15.296875 C 9.96875 15.820312 8.054688 16.65625 6.300781 17.628906 C 7.09375 23.394531 12.027344 27.84375 18.011719 27.84375 C 24.546875 27.84375 29.832031 22.535156 29.832031 16 Z M 9.679688 20.730469 C 9.089844 20.835938 8.527344 20.441406 8.421875 19.851562 C 8.316406 19.257812 8.710938 18.695312 9.300781 18.589844 C 9.890625 18.484375 10.453125 18.878906 10.558594 19.46875 C 10.664062 20.058594 10.269531 20.625 9.679688 20.730469 Z M 14.679688 20.859375 C 14.296875 20.929688 13.925781 20.671875 13.859375 20.285156 C 13.789062 19.902344 14.046875 19.53125 14.433594 19.464844 C 14.816406 19.394531 15.183594 19.652344 15.253906 20.039062 C 15.320312 20.425781 15.066406 20.792969 14.679688 20.859375 Z M 21.027344 20.613281 C 20.644531 20.679688 20.277344 20.425781 20.207031 20.039062 C 20.140625 19.652344 20.394531 19.285156 20.78125 19.214844 C 21.167969 19.148438 21.535156 19.402344 21.601562 19.789062 C 21.671875 20.175781 21.414062 20.542969 21.027344 20.613281 Z M 22.351562 24.011719 C 22.421875 24.398438 22.789062 24.652344 23.171875 24.585938 C 23.558594 24.515625 23.8125 24.148438 23.746094 23.761719 C 23.675781 23.375 23.308594 23.121094 22.925781 23.1875 C 22.539062 23.257812 22.28125 23.625 22.351562 24.011719 Z M 14.933594 25.742188 C 14.546875 25.8125 14.179688 25.554688 14.109375 25.167969 C 14.042969 24.78125 14.296875 24.414062 14.683594 24.347656 C 15.070312 24.277344 15.4375 24.535156 15.503906 24.921875 C 15.574219 25.304688 15.316406 25.675781 14.933594 25.742188 Z M 11.113281 22.742188 C 11.179688 23.128906 11.546875 23.386719 11.933594 23.316406 C 12.316406 23.25 12.574219 22.882812 12.503906 22.496094 C 12.4375 22.109375 12.070312 21.851562 11.683594 21.921875 C 11.300781 21.988281 11.042969 22.359375 11.113281 22.742188 Z M 18.023438 22.972656 C 17.636719 23.042969 17.269531 22.785156 17.203125 22.398438 C 17.132812 22.011719 17.390625 21.644531 17.773438 21.574219 C 18.160156 21.507812 18.527344 21.765625 18.597656 22.148438 C 18.664062 22.535156 18.40625 22.902344 18.023438 22.972656 Z M 24.066406 20.070312 C 24.171875 20.660156 24.734375 21.054688 25.324219 20.949219 C 25.914062 20.84375 26.304688 20.28125 26.199219 19.6875 C 26.097656 19.097656 25.53125 18.703125 24.945312 18.808594 C 24.355469 18.914062 23.960938 19.480469 24.066406 20.070312 Z M 17.996094 25.582031 C 18.097656 26.171875 18.664062 26.566406 19.253906 26.460938 C 19.84375 26.355469 20.234375 25.789062 20.128906 25.199219 C 20.023438 24.609375 19.460938 24.214844 18.871094 24.320312 C 18.28125 24.425781 17.890625 24.988281 17.996094 25.582031 Z M 26.285156 8.898438 C 26.503906 9.855469 25.941406 10.800781 25.03125 11.007812 C 24.117188 11.214844 23.203125 10.609375 22.988281 9.652344 C 22.769531 8.695312 23.332031 7.753906 24.242188 7.546875 C 25.15625 7.335938 26.070312 7.945312 26.285156 8.898438 Z M 25.097656 10.175781 C 25.507812 10.082031 25.753906 9.621094 25.648438 9.148438 C 25.539062 8.671875 25.117188 8.363281 24.707031 8.457031 C 24.296875 8.550781 24.050781 9.011719 24.160156 9.488281 C 24.269531 9.960938 24.6875 10.269531 25.097656 10.175781 Z M 82.839844 3.199219 C 79.320312 3.199219 76.464844 6.058594 76.464844 9.585938 L 76.464844 22.363281 L 79.578125 22.363281 L 79.578125 12.707031 L 82.839844 12.707031 L 82.839844 9.585938 L 79.578125 9.585938 C 79.578125 7.78125 81.039062 6.320312 82.839844 6.320312 Z M 75.066406 3.292969 L 75.066406 6.414062 C 73.265625 6.414062 71.804688 7.875 71.804688 9.679688 L 71.804688 22.457031 L 68.6875 22.457031 L 68.6875 9.679688 C 68.691406 6.152344 71.542969 3.292969 75.066406 3.292969 Z M 71.804688 9.679688 L 75.066406 9.679688 L 75.066406 12.800781 L 71.804688 12.800781 Z M 50.023438 16.070312 C 50.023438 17.875 48.5625 19.335938 46.761719 19.335938 C 44.960938 19.335938 43.5 17.875 43.5 16.070312 C 43.5 14.265625 44.960938 12.800781 46.761719 12.800781 C 48.5625 12.800781 50.023438 14.265625 50.023438 16.070312 Z M 43.5 21.558594 C 44.457031 22.128906 45.570312 22.457031 46.761719 22.457031 C 50.285156 22.457031 53.136719 19.597656 53.136719 16.070312 C 53.136719 12.539062 50.285156 9.679688 46.761719 9.679688 C 43.242188 9.679688 40.386719 12.539062 40.386719 16.070312 L 40.386719 28.800781 L 43.5 28.800781 Z M 64.175781 9.679688 L 67.289062 9.679688 L 67.289062 16.066406 C 67.289062 19.597656 64.433594 22.457031 60.914062 22.457031 C 57.394531 22.457031 54.539062 19.597656 54.539062 16.070312 L 54.539062 9.679688 L 57.652344 9.679688 L 57.652344 16.066406 C 57.652344 17.871094 59.113281 19.335938 60.914062 19.335938 C 62.714844 19.335938 64.175781 17.875 64.175781 16.070312 Z M 96.796875 14.414062 C 96.574219 13.523438 96.160156 12.683594 95.574219 11.960938 C 94.65625 10.824219 93.378906 10.035156 91.953125 9.730469 C 90.527344 9.421875 89.039062 9.617188 87.738281 10.277344 C 86.4375 10.933594 85.402344 12.023438 84.800781 13.355469 C 84.203125 14.6875 84.078125 16.1875 84.449219 17.597656 C 84.820312 19.011719 85.664062 20.257812 86.839844 21.121094 C 88.011719 21.988281 89.449219 22.425781 90.90625 22.359375 C 92.363281 22.292969 93.753906 21.726562 94.84375 20.757812 L 92.78125 18.421875 C 92.203125 18.933594 91.445312 19.246094 90.617188 19.246094 C 89.378906 19.246094 88.300781 18.554688 87.75 17.535156 L 96.800781 17.535156 C 96.925781 17.035156 96.992188 16.515625 96.992188 15.976562 C 96.992188 15.957031 96.992188 15.9375 96.992188 15.921875 Z M 90.617188 12.707031 C 89.378906 12.707031 88.300781 13.398438 87.75 14.414062 L 93.480469 14.414062 C 92.929688 13.398438 91.851562 12.707031 90.617188 12.707031 Z M 104.757812 12.800781 C 102.960938 12.804688 101.503906 14.265625 101.503906 16.066406 L 98.390625 16.066406 C 98.390625 12.542969 101.238281 9.683594 104.757812 9.679688 Z M 101.503906 22.457031 L 98.390625 22.457031 L 98.390625 16.066406 L 101.503906 16.066406 Z M 101.503906 22.457031 "/>
</g>
</svg>
