<svg width="89" height="32" viewBox="0 0 89 32" fill="none" xmlns="http://www.w3.org/2000/svg">
<path fill-rule="evenodd" clip-rule="evenodd" d="M48.0617 20.0163V6.76155H50.7793V26L36.2207 12.0924V25.1659H33.5031V6L48.0617 20.0163ZM13.6462 16.0453C14.345 15.0662 14.6944 13.9601 14.6944 12.7634C14.6944 11.6754 14.4033 10.6782 13.8403 9.75341C13.258 8.82866 12.4815 8.10336 11.4915 7.55939C10.5016 7.03356 9.41455 6.76157 8.26927 6.76157H0V9.30009H8.26927C9.29806 9.30009 10.1716 9.64461 10.9092 10.3155C11.6274 10.9864 11.9962 11.8024 11.9962 12.7815C11.9962 13.7607 11.6274 14.5585 10.9092 15.2475C10.191 15.9184 9.31748 16.2629 8.26927 16.2629H0V25.1296H2.7176V18.8014H8.26927H8.36634H8.46334L11.9962 25.1478H14.7138L10.8898 18.2756C12.0351 17.7679 12.9474 17.0426 13.6462 16.0453ZM17.6058 14.6854V17.224H31.4461V14.6854H17.6058ZM17.6058 22.6636L16.1888 25.1478H31.4655V22.6636H17.6058ZM16.1888 6.76157L17.6058 9.30009H31.4461V6.76157H16.1888ZM58.3119 18.3663L63.1453 15.7008C64.3879 15.0118 65.3777 14.087 66.0961 12.9084C66.8145 11.7298 67.1635 10.4606 67.1635 9.10064V6.76157H53.0321V9.30009H64.4656V9.33636C64.4656 10.2067 64.2325 11.0227 63.7663 11.7842C63.3007 12.5458 62.66 13.1441 61.8645 13.5793L57.0891 16.2085C55.8273 16.8976 54.8568 17.8223 54.1192 19.0009C53.4009 20.1795 53.0321 21.4488 53.0321 22.8087V25.1296H67.1635V22.5911H55.7303C55.7303 21.7208 55.9632 20.9048 56.4291 20.1614C56.8755 19.3998 57.5161 18.8014 58.3119 18.3663ZM88.9991 16.807V16.7526L80.1092 25.1297H80.206C84.8064 24.6945 88.5724 21.2313 88.9991 16.807ZM83.4689 7.5955C83.2167 7.48671 82.9645 7.37792 82.7123 7.28725C82.2072 7.10593 81.6831 6.96087 81.1398 6.85207C80.4799 6.72514 79.8201 6.65262 79.1208 6.65262C78.7909 6.65262 78.461 6.67075 78.131 6.68888C75.8407 6.90647 73.802 7.83122 72.2301 9.24554C72.1327 9.3362 72.0162 9.445 71.9193 9.53566C70.4245 11.0044 69.4539 12.9445 69.2405 15.066L69.239 15.088C69.2204 15.3527 69.2017 15.6178 69.2017 15.9001C69.2017 16.5892 69.2794 17.26 69.4348 17.9128C69.5513 18.4024 69.7067 18.8738 69.9004 19.3453C70.0169 19.5991 70.1335 19.853 70.25 20.0887C70.4831 20.5057 70.7353 20.9046 71.0264 21.2854L72.6569 19.7442L83.139 9.84391L84.7695 8.30266C84.3816 8.04881 83.9351 7.81309 83.4689 7.5955ZM71.706 17.659C71.6863 17.6045 71.6671 17.532 71.6671 17.4776C71.5506 16.9699 71.4926 16.4441 71.4926 15.9183C71.4926 14.0869 72.2301 12.3643 73.5695 11.0406L73.8409 10.7868C75.2777 9.49939 77.1413 8.79224 79.1405 8.79224C79.6647 8.79224 80.1889 8.84663 80.6933 8.93729L80.9264 8.99169L71.706 17.659ZM74.9853 24.3501C75.2178 24.4408 75.4509 24.5314 75.7031 24.6221L88.3985 12.6548C88.3039 12.426 88.1913 12.1972 88.0788 11.9684L88.0685 11.9476C87.8546 11.4943 87.5832 11.0773 87.2922 10.6783L73.5873 23.6067C74.0338 23.8968 74.5 24.1325 74.9853 24.3501Z" fill="#000A44"/>
</svg>
