<svg width="83" height="32" viewBox="0 0 83 32" fill="none" xmlns="http://www.w3.org/2000/svg">
<g clip-path="url(#clip0_4945_19877)">
<path d="M30.655 19.3893L30.6146 19.4318C30.5957 19.4513 30.5766 19.4707 30.5572 19.4899L19.475 30.5544C17.5444 32.4819 14.4144 32.4819 12.4838 30.5544L9.42344 27.4991C9.20646 27.2833 9.20602 26.9325 9.42199 26.7157C9.48555 26.652 9.56367 26.6047 9.64957 26.5778C12.9298 25.5652 15.5952 24.3964 17.6455 23.0713C22.5284 19.9155 26.8649 18.6882 30.655 19.3893ZM28.3316 10.2876C32.4233 11.5769 31.9457 14.5869 32 15.7736C27.519 13.4239 22.1283 14.2851 15.8277 18.3571C11.1316 21.3921 7.19787 22.6435 4.02654 22.1111C0.855203 21.5787 0.141821 17.7056 0 16.6764C3.48472 18.4383 8.15473 17.4271 14.0099 13.6429C19.466 10.1167 24.2399 8.99821 28.3316 10.2876ZM19.475 1.44558L22.3506 4.31615C22.5672 4.53227 22.5675 4.88317 22.3514 5.09978C22.2743 5.17707 22.1761 5.22984 22.0691 5.2514C17.9062 6.09004 14.5769 7.31583 12.0813 8.92875C7.8048 11.6926 4.16048 12.9773 1.14842 12.7827L1.14874 12.7819L12.4838 1.44558C14.4144 -0.481859 17.5444 -0.481859 19.475 1.44558Z" fill="url(#paint0_linear_4945_19877)"/>
</g>
<g clip-path="url(#clip1_4945_19877)">
<path d="M46.9269 13.2116C46.8699 12.6786 46.6298 12.2636 46.2067 11.9666C45.7876 11.6696 45.2424 11.5211 44.5711 11.5211C44.0991 11.5211 43.6943 11.5923 43.3566 11.7347C43.0189 11.8771 42.7606 12.0704 42.5815 12.3145C42.4025 12.5586 42.311 12.8373 42.3069 13.1506C42.3069 13.411 42.3659 13.6368 42.4839 13.828C42.6059 14.0192 42.7707 14.182 42.9782 14.3162C43.1857 14.4464 43.4156 14.5563 43.6679 14.6458C43.9201 14.7353 44.1744 14.8106 44.4307 14.8716L45.6025 15.1646C46.0745 15.2744 46.5281 15.4229 46.9634 15.61C47.4029 15.7972 47.7955 16.0332 48.1413 16.318C48.4912 16.6028 48.7679 16.9466 48.9713 17.3494C49.1748 17.7522 49.2765 18.2242 49.2765 18.7653C49.2765 19.4977 49.0893 20.1426 48.715 20.6999C48.3407 21.2533 47.7996 21.6866 47.0916 21.9999C46.3877 22.3091 45.5354 22.4637 44.5345 22.4637C43.5621 22.4637 42.7178 22.3132 42.0017 22.0121C41.2897 21.711 40.7323 21.2716 40.3295 20.6938C39.9308 20.1161 39.7152 19.4122 39.6826 18.5822H41.9102C41.9428 19.0175 42.077 19.3796 42.313 19.6685C42.549 19.9574 42.8562 20.173 43.2345 20.3155C43.617 20.4579 44.0442 20.5291 44.5162 20.5291C45.0085 20.5291 45.4398 20.4558 45.81 20.3093C46.1843 20.1588 46.4773 19.9513 46.6888 19.6868C46.9004 19.4183 47.0082 19.1051 47.0123 18.747C47.0082 18.4215 46.9126 18.153 46.7254 17.9414C46.5383 17.7257 46.2759 17.5467 45.9382 17.4044C45.6045 17.2579 45.2139 17.1277 44.7664 17.0138L43.3444 16.6476C42.315 16.3831 41.5013 15.9824 40.9032 15.4453C40.3092 14.9042 40.0122 14.186 40.0122 13.2909C40.0122 12.5545 40.2115 11.9096 40.6103 11.3563C41.0131 10.803 41.5603 10.3737 42.252 10.0686C42.9436 9.75936 43.7269 9.60475 44.6016 9.60475C45.4886 9.60475 46.2657 9.75936 46.9329 10.0686C47.6043 10.3737 48.1312 10.7989 48.5136 11.3441C48.896 11.8852 49.0934 12.5077 49.1056 13.2116H46.9269ZM53.132 22.2745L50.4834 12.9004H52.7354L54.3832 19.4916H54.4686L56.153 12.9004H58.3806L60.065 19.4549H60.1565L61.7799 12.9004H64.038L61.3833 22.2745H59.0824L57.3248 15.9396H57.1966L55.439 22.2745H53.132ZM69.4621 22.4576C68.5222 22.4576 67.7105 22.2623 67.027 21.8717C66.3475 21.4771 65.8247 20.9197 65.4585 20.1995C65.0923 19.4753 64.9092 18.6229 64.9092 17.6424C64.9092 16.6781 65.0923 15.8318 65.4585 15.1035C65.8288 14.3712 66.3455 13.8016 67.0087 13.3947C67.6718 12.9838 68.451 12.7783 69.3461 12.7783C69.9238 12.7783 70.4691 12.8719 70.9817 13.059C71.4984 13.2421 71.9541 13.5269 72.3487 13.9134C72.7475 14.3 73.0608 14.7923 73.2886 15.3904C73.5165 15.9844 73.6304 16.6923 73.6304 17.5142V18.1916H65.9467V16.7025H71.5127C71.5086 16.2793 71.417 15.903 71.238 15.5735C71.059 15.2398 70.8088 14.9774 70.4873 14.7862C70.17 14.5949 69.7998 14.4993 69.3766 14.4993C68.925 14.4993 68.5283 14.6092 68.1865 14.8289C67.8448 15.0445 67.5783 15.3293 67.387 15.6833C67.1999 16.0332 67.1043 16.4177 67.1002 16.8368V18.1367C67.1002 18.6819 67.1999 19.1498 67.3993 19.5404C67.5986 19.9269 67.8773 20.2239 68.2354 20.4314C68.5934 20.6349 69.0125 20.7366 69.4926 20.7366C69.814 20.7366 70.1049 20.6918 70.3653 20.6023C70.6257 20.5087 70.8515 20.3724 71.0428 20.1934C71.2339 20.0144 71.3784 19.7926 71.476 19.5282L73.5388 19.7601C73.4086 20.3053 73.1605 20.7813 72.7943 21.1882C72.4322 21.591 71.9684 21.9043 71.4028 22.1281C70.8373 22.3477 70.1904 22.4576 69.4621 22.4576ZM77.7087 9.77564V22.2745H75.4994V9.77564H77.7087ZM82.1898 9.77564V22.2745H79.9806V9.77564H82.1898Z" fill="black"/>
</g>
<defs>
<linearGradient id="paint0_linear_4945_19877" x1="16" y1="-1.7896e-07" x2="15.6863" y2="53.9608" gradientUnits="userSpaceOnUse">
<stop stop-color="#3068EF"/>
<stop offset="1" stop-color="#1322AC"/>
</linearGradient>
<clipPath id="clip0_4945_19877">
<rect width="32" height="32" fill="white"/>
</clipPath>
<clipPath id="clip1_4945_19877">
<rect width="42.6667" height="13.8039" fill="white" transform="translate(39.5293 9.09804)"/>
</clipPath>
</defs>
</svg>
