<?xml version="1.0" encoding="UTF-8"?>
<svg width="20px" height="20px" viewBox="0 0 20 20" version="1.1" xmlns="http://www.w3.org/2000/svg" xmlns:xlink="http://www.w3.org/1999/xlink">
    <g id="Page-1" stroke="none" stroke-width="1" fill="none" fill-rule="evenodd">
        <g id="telegram-icon" fill="#000000" fill-rule="nonzero">
            <path d="M10,0 C4.47580645,0 0,4.47580645 0,10 C0,15.5241935 4.47580645,20 10,20 C15.5241935,20 20,15.5241935 20,10 C20,4.47580645 15.5241935,0 10,0 Z M14.6370968,6.80241935 C14.4879032,8.38306452 13.8346774,12.2217742 13.5040323,13.9919355 C13.3629032,14.7419355 13.0887097,14.9919355 12.8225806,15.016129 C12.2419355,15.0685484 11.8024194,14.6330645 11.2379032,14.2620968 C10.358871,13.6854839 9.85887097,13.3266129 9.00806452,12.7620968 C8.02016129,12.1129032 8.66129032,11.7540323 9.22177419,11.1693548 C9.37096774,11.016129 11.9274194,8.68951613 11.9758065,8.47983871 C11.983871,8.4516129 11.9879032,8.35483871 11.9274194,8.30241935 C11.8669355,8.25 11.7822581,8.27016129 11.7217742,8.28225806 C11.6330645,8.30107527 10.2271505,9.22983871 7.50403226,11.0685484 C7.1061828,11.3427419 6.74462366,11.4758065 6.41935484,11.4677419 C6.06048387,11.4596774 5.375,11.266129 4.86290323,11.1008065 C4.23790323,10.8991935 3.73790323,10.7903226 3.78225806,10.4435484 C3.80376344,10.2634409 4.05241935,10.0793011 4.52822581,9.89112903 C7.4422043,8.62231183 9.38575269,7.78494624 10.358871,7.37903226 C13.1370968,6.22580645 13.7137097,6.02419355 14.0887097,6.01612903 C14.1733871,6.01612903 14.3548387,6.03629032 14.4758065,6.13306452 C14.5547577,6.20247473 14.6050634,6.29877423 14.6169355,6.40322581 C14.6387401,6.53509869 14.6455038,6.66902063 14.6370968,6.80241935 Z" id="Shape"></path>
        </g>
    </g>
</svg>