<svg width="702" height="209" viewBox="0 0 702 209" fill="none" xmlns="http://www.w3.org/2000/svg">
<g clip-path="url(#clip0_8_69)">
<path d="M363.43 158.25H338.08L317.08 86.41H316.63L295.63 158.25H270.13L239.98 52.04H267.58L284.38 122.69H284.83L303.73 52.04H330.43L349.48 122.69H349.93L367.03 52.04H393.73L363.43 158.25Z" fill="#282138"/>
<path d="M494.38 127.34C494.38 133.153 493.23 138.03 490.93 141.97C488.703 145.843 485.561 149.111 481.78 151.49C477.788 153.974 473.386 155.728 468.78 156.67C463.884 157.725 458.889 158.255 453.88 158.25H411.58V52.04H453.88C458.112 52.055 462.332 52.4837 466.48 53.32C470.597 54.1016 474.552 55.5723 478.18 57.67C481.664 59.7073 484.599 62.5631 486.73 65.99C488.93 69.5 490.03 73.99 490.03 79.34C490.03 85.2467 488.43 90.1234 485.23 93.97C481.918 97.8983 477.543 100.787 472.63 102.29V102.59C475.581 103.082 478.44 104.019 481.11 105.37C485.179 107.403 488.587 110.55 490.937 114.445C493.286 118.34 494.48 122.822 494.38 127.37V127.34ZM465.25 82.79C465.25 79.19 463.877 76.5667 461.13 74.92C458.383 73.2734 454.307 72.4467 448.9 72.44H436.3V94.34H450.1C454.9 94.34 458.627 93.3667 461.28 91.42C463.933 89.4734 465.257 86.5967 465.25 82.79ZM468.7 124.94C468.7 120.553 467.033 117.503 463.7 115.79C460.4 114.1 456 113.24 450.5 113.24H436.33V137.54H450.73C452.817 137.534 454.901 137.36 456.96 137.02C458.995 136.702 460.968 136.071 462.81 135.15C464.537 134.259 466.007 132.94 467.08 131.32C468.253 129.405 468.827 127.184 468.73 124.94H468.7Z" fill="#282138"/>
<path d="M563.68 73.94V158.25H538.03V73.94H508.03V52.04H593.68V73.94H563.68Z" fill="#282138"/>
<path d="M683.83 156.37C676.313 159.644 668.177 161.254 659.98 161.09C652.217 161.169 644.508 159.796 637.25 157.04C630.495 154.497 624.337 150.586 619.163 145.553C613.989 140.52 609.909 134.473 607.18 127.79C604.214 120.559 602.735 112.805 602.83 104.99C602.716 97.0727 604.22 89.2154 607.25 81.9C610.037 75.2201 614.204 69.2051 619.48 64.25C624.776 59.3441 630.998 55.5434 637.78 53.07C645.037 50.4302 652.708 49.1094 660.43 49.17C667.982 49.1879 675.47 50.5421 682.55 53.17C689.313 55.4939 695.378 59.4913 700.18 64.79L682.78 82.19C680.382 78.9016 677.108 76.3545 673.33 74.84C669.525 73.264 665.448 72.4486 661.33 72.44C657.075 72.3918 652.858 73.2366 648.95 74.92C645.294 76.5081 642.003 78.8293 639.28 81.74C636.532 84.7248 634.392 88.2166 632.98 92.02C631.442 96.1794 630.679 100.586 630.73 105.02C630.677 109.52 631.44 113.992 632.98 118.22C634.373 122.017 636.504 125.501 639.25 128.47C641.925 131.338 645.172 133.614 648.78 135.15C652.622 136.775 656.759 137.589 660.93 137.54C665.559 137.653 670.145 136.623 674.28 134.54C677.904 132.7 681.04 130.027 683.43 126.74L701.25 143.54C696.437 149.023 690.494 153.4 683.83 156.37Z" fill="#282138"/>
<path d="M122.04 89.85C122.04 101.39 104.04 99.99 98.33 99.99V79.66C104.05 79.66 122.04 77.85 122.04 89.85ZM126.74 121.41C126.74 134.02 105.18 132.58 98.31 132.58V110.25C105.18 110.25 126.74 108.25 126.74 121.46M140.94 85.35C139.79 73.25 129.43 69.25 116.32 67.99V51.4H106.25V67.66C103.58 67.66 100.86 67.66 98.15 67.76V51.4H88.03V68.09H67.5V78.95C67.5 78.95 74.98 78.82 74.87 78.95C76.22 78.8014 77.5748 79.1837 78.6479 80.016C79.721 80.8484 80.4283 82.0656 80.62 83.41V129.12C80.592 129.59 80.4714 130.051 80.2651 130.474C80.0588 130.898 79.7708 131.277 79.4178 131.589C79.0647 131.901 78.6535 132.141 78.2077 132.294C77.7619 132.446 77.2904 132.51 76.82 132.48C76.95 132.6 69.45 132.48 69.45 132.48L67.45 144.61H87.9V161.61H98.03V144.86H106.12V161.5H116.25V144.73C133.36 143.73 145.25 139.46 146.79 123.41C148 110.48 141.94 104.72 132.25 102.41C138.14 99.41 141.84 94.12 140.96 85.32" fill="#F09242"/>
<path d="M49.32 43.3C59.5879 34.0115 72.053 27.4921 85.5391 24.3568C99.0252 21.2214 113.088 21.5736 126.4 25.38L127.56 25.71C128.14 25.88 128.71 26.06 129.28 26.25C130.1 26.51 130.92 26.79 131.72 27.08L132.52 27.37C133.61 27.77 134.7 28.2 135.77 28.65L135.9 28.71C144.43 32.3772 152.356 37.313 159.41 43.35L163.87 38.53C163.27 37.93 162.65 37.38 162.04 36.81C146.598 23.4334 127.002 15.8153 106.58 15.25C105.49 15.25 104.4 15.25 103.31 15.25H103.08C96.4562 15.3417 89.8616 16.1464 83.41 17.65L82.09 17.97L80.99 18.26C74.5615 19.9836 68.3486 22.4292 62.47 25.55C56.033 29.0059 50.1729 33.4423 45.1 38.7L49.32 43.3Z" fill="#5A5564"/>
<path d="M43.67 48.91L38.77 44.62C5.53004 79.46 10.37 136.15 38.77 163.17L43.77 159.26C29.9464 144.216 22.2677 124.534 22.2511 104.103C22.2344 83.6714 29.8809 63.977 43.68 48.91H43.67Z" fill="#5A5564"/>
<path d="M171.9 46.79C171.13 45.99 170.35 45.2 169.54 44.45L165.25 49.15C190.45 77.78 195.77 123.23 166.04 158.22L170.22 163.27C184.503 147.325 192.543 126.756 192.859 105.352C193.175 83.9473 185.746 63.1497 171.94 46.79H171.9Z" fill="#5A5564"/>
<path d="M159.73 164.91C156.83 167.08 153.95 169.07 151.06 170.91C140.572 178.322 128.48 183.147 115.77 184.99C109.267 186.027 102.654 186.182 96.11 185.45C79.6271 183.851 64.0234 177.265 51.38 166.57C50.72 166.09 50.07 165.62 49.38 165.12L44.77 169.25C60.9 185.18 83.01 192.84 104.77 192.83C105.25 192.83 105.77 192.83 106.21 192.83H106.44C126.681 192.302 146.128 184.843 161.53 171.7C162.23 171.04 162.94 170.39 163.61 169.7L159.73 164.91Z" fill="#5A5564"/>
<path d="M104.25 7.00001C123.496 6.9921 142.311 12.6923 158.317 23.3797C174.322 34.067 186.798 49.2612 194.167 67.0403C201.535 84.8193 203.465 104.384 199.713 123.261C195.96 142.137 186.693 159.476 173.084 173.084C159.476 186.693 142.137 195.96 123.261 199.713C104.384 203.465 84.8193 201.535 67.0403 194.167C49.2612 186.798 34.067 174.322 23.3797 158.316C12.6924 142.311 6.99213 123.496 7.00004 104.25C7.03971 78.4699 17.2984 53.757 35.5277 35.5277C53.757 17.2984 78.4699 7.03968 104.25 7.00001ZM104.25 7.67456e-06C83.6234 0.00792044 63.4624 6.13216 46.3164 17.5983C29.1704 29.0644 15.8095 45.3574 7.92335 64.4169C0.0371952 83.4764 -2.02005 104.446 2.01176 124.675C6.04357 144.904 15.9834 163.483 30.5742 178.062C45.165 192.642 63.7515 202.568 83.9833 206.584C104.215 210.6 125.184 208.527 144.237 200.626C163.291 192.725 179.573 179.352 191.026 162.197C202.479 145.042 208.588 124.877 208.58 104.25C208.575 90.5544 205.872 76.994 200.626 64.343C195.38 51.692 187.694 40.1981 178.006 30.5176C168.318 20.837 156.818 13.1595 144.163 7.9233C131.508 2.68709 117.946 -0.00524621 104.25 7.67456e-06Z" fill="#282138"/>
</g>
<defs>
<clipPath id="clip0_8_69">
<rect width="701.25" height="208.58" fill="white"/>
</clipPath>
</defs>
</svg>
