<svg width="118" height="32" viewBox="0 0 118 32" fill="none" xmlns="http://www.w3.org/2000/svg">
<path d="M41.1162 23.1694L52.4697 7.99468H41.2677V5.01866H56.7082V7.69692L45.3546 22.8725H56.8597V25.8477H41.1162V23.1694Z" fill="#2F3E2C"/>
<path d="M58.373 5.01866H61.7034V8.14279H58.373V5.01866ZM58.5245 10.9699H61.5519V25.8477H58.5245V10.9699Z" fill="#2F3E2C"/>
<path d="M63.3687 10.97H65.9423L66.2453 12.3092H66.3968C66.9117 11.7438 67.396 10.97 69.2734 10.97H71.9986V13.6483H69.5764C67.4572 13.6483 66.3976 14.6897 66.3976 16.7431V25.8486H63.3702V10.9708L63.3687 10.97Z" fill="#2F3E2C"/>
<path d="M86.3776 20.6399C85.8933 22.8716 83.9554 26.1446 79.414 26.1446C74.8726 26.1446 71.8452 23.0205 71.8452 18.4083C71.8452 13.7962 75.024 10.6721 79.414 10.6721C83.8039 10.6721 85.8933 13.9751 86.3776 16.0278H83.3502C82.8659 14.6887 81.7153 13.3495 79.4148 13.3495C76.8411 13.3495 74.8733 15.3135 74.8733 18.4075C74.8733 21.5016 76.8411 23.4663 79.4148 23.4663C81.8369 23.4663 83.0174 21.8294 83.3502 20.6399H86.3776Z" fill="#2F3E2C"/>
<path d="M87.8914 10.97H90.9188V19.8966C90.9188 21.8304 92.4626 23.4673 94.552 23.4673C96.8227 23.4673 98.4883 21.8304 98.4883 19.8966V10.97H101.516V25.8478H98.7905L98.4875 24.3598H98.336C98.0032 24.6869 97.6398 24.9846 97.216 25.2523C96.4892 25.6989 95.3691 26.1448 93.9461 26.1448C90.3128 26.1448 87.8906 23.7944 87.8906 19.8966V10.97H87.8914Z" fill="#2F3E2C"/>
<path d="M103.482 5.01866H106.813V8.14279H103.482V5.01866ZM103.634 10.9699H106.661V25.8477H103.634V10.9699Z" fill="#2F3E2C"/>
<path d="M110.597 13.7969H108.175V10.9706H110.597V6.80507H113.625V10.9706H117.107V13.7969H113.625V22.2768C113.625 22.8716 113.928 23.1693 114.533 23.1693H117.107V25.8476H113.928C111.778 25.8476 110.597 24.6573 110.597 22.7235V13.7969Z" fill="#2F3E2C"/>
<path fill-rule="evenodd" clip-rule="evenodd" d="M0 16.0008C0 7.16361 7.14257 0 15.9523 0C24.7635 0 31.9061 7.16361 31.9053 16C31.9053 19.13 31.0089 22.0497 29.4603 24.5153C29.0333 25.1946 28.5577 25.8394 28.0365 26.4455L15.9734 14.3469L5.60024 24.7499L3.8876 26.4676C3.36485 25.863 2.88764 25.219 2.46065 24.5405C0.901847 22.0702 0 19.141 0 16.0008ZM27.6315 22.2355L27.7775 21.9427L27.7783 21.9435C28.6935 20.1124 29.177 18.057 29.177 16.0008C29.177 8.68765 23.2447 2.73792 15.953 2.73792C8.66134 2.73792 2.72987 8.68765 2.72987 16.0008C2.72987 18.068 3.21808 20.1321 4.1419 21.9702L4.28868 22.2615L15.9734 10.5423L27.6315 22.2355ZM15.9529 32C19.9245 32 23.5578 30.5445 26.3504 28.1356V28.1348L15.9741 17.7279L5.57812 28.1537C8.36686 30.5523 11.9813 32 15.9529 32Z" fill="url(#paint0_linear_4514_758)"/>
<defs>
<linearGradient id="paint0_linear_4514_758" x1="15.9526" y1="-2.02393e-09" x2="16" y2="32" gradientUnits="userSpaceOnUse">
<stop stop-color="#169E00"/>
<stop offset="0.49" stop-color="#00C537"/>
<stop offset="1" stop-color="#00B1C9"/>
</linearGradient>
</defs>
</svg>
